G04 #@! TF.FileFunction,Legend,Top*
%FSLAX46Y46*%
G04 Gerber Fmt 4.6, Leading zero omitted, Abs format (unit mm)*
G04 Created by KiCad (PCBNEW 4.0.5) date 03/07/17 20:24:02*
%MOMM*%
%LPD*%
G01*
G04 APERTURE LIST*
%ADD10C,0.100000*%
%ADD11C,0.120000*%
%ADD12C,0.150000*%
G04 APERTURE END LIST*
D10*
D11*
X200490000Y-89390000D02*
X200490000Y-90650000D01*
X200490000Y-96210000D02*
X200490000Y-94950000D01*
X204250000Y-89390000D02*
X200490000Y-89390000D01*
X206500000Y-96210000D02*
X200490000Y-96210000D01*
D12*
X189500000Y-110275000D02*
X188500000Y-110275000D01*
X188500000Y-108925000D02*
X189500000Y-108925000D01*
X254500000Y-67360000D02*
X254500000Y-133760000D01*
X254500000Y-133760000D02*
X247500000Y-133760000D01*
X247500000Y-133760000D02*
X247500000Y-67360000D01*
X247500000Y-67360000D02*
X254500000Y-67360000D01*
X254500000Y-72840000D02*
X247500000Y-72840000D01*
X189240000Y-51230000D02*
X190764000Y-48182000D01*
X209560000Y-51230000D02*
X208036000Y-48182000D01*
X208036000Y-48182000D02*
X190764000Y-48182000D01*
X189240000Y-84758000D02*
X189240000Y-51230000D01*
X209560000Y-84758000D02*
X209560000Y-51230000D01*
X195386800Y-84758000D02*
X189240000Y-84758000D01*
X203413200Y-84758000D02*
X209560000Y-84758000D01*
X203413200Y-86663000D02*
X203413200Y-84758000D01*
X195386800Y-86663000D02*
X195386800Y-84758000D01*
X203413200Y-86663000D02*
X195386800Y-86663000D01*
X220360000Y-136700000D02*
X239240000Y-136700000D01*
X239240000Y-136700000D02*
X239240000Y-143700000D01*
X239240000Y-143700000D02*
X220360000Y-143700000D01*
X220360000Y-143700000D02*
X220360000Y-136700000D01*
X225840000Y-136700000D02*
X225840000Y-143700000D01*
X228675000Y-63900000D02*
X228675000Y-64900000D01*
X227325000Y-64900000D02*
X227325000Y-63900000D01*
X228675000Y-55500000D02*
X228675000Y-56500000D01*
X227325000Y-56500000D02*
X227325000Y-55500000D01*
X228675000Y-72300000D02*
X228675000Y-73300000D01*
X227325000Y-73300000D02*
X227325000Y-72300000D01*
X228675000Y-89100000D02*
X228675000Y-90100000D01*
X227325000Y-90100000D02*
X227325000Y-89100000D01*
X193500000Y-113750000D02*
X192500000Y-113750000D01*
X192500000Y-115450000D02*
X193500000Y-115450000D01*
X198900000Y-113750000D02*
X197900000Y-113750000D01*
X197900000Y-115450000D02*
X198900000Y-115450000D01*
X210275000Y-93800000D02*
X210275000Y-91800000D01*
X207325000Y-91800000D02*
X207325000Y-93800000D01*
X204800000Y-96725000D02*
X202800000Y-96725000D01*
X202800000Y-99675000D02*
X204800000Y-99675000D01*
X193500000Y-121550000D02*
X192500000Y-121550000D01*
X192500000Y-123250000D02*
X193500000Y-123250000D01*
X198900000Y-121550000D02*
X197900000Y-121550000D01*
X197900000Y-123250000D02*
X198900000Y-123250000D01*
X193500000Y-105750000D02*
X192500000Y-105750000D01*
X192500000Y-107450000D02*
X193500000Y-107450000D01*
X198900000Y-105750000D02*
X197900000Y-105750000D01*
X197900000Y-107450000D02*
X198900000Y-107450000D01*
D11*
X223620000Y-65760000D02*
X224550000Y-65760000D01*
X226780000Y-65760000D02*
X225850000Y-65760000D01*
X226780000Y-65760000D02*
X226780000Y-62600000D01*
X223620000Y-65760000D02*
X223620000Y-64300000D01*
X223620000Y-57360000D02*
X224550000Y-57360000D01*
X226780000Y-57360000D02*
X225850000Y-57360000D01*
X226780000Y-57360000D02*
X226780000Y-54200000D01*
X223620000Y-57360000D02*
X223620000Y-55900000D01*
X223620000Y-74160000D02*
X224550000Y-74160000D01*
X226780000Y-74160000D02*
X225850000Y-74160000D01*
X226780000Y-74160000D02*
X226780000Y-71000000D01*
X223620000Y-74160000D02*
X223620000Y-72700000D01*
X223620000Y-90960000D02*
X224550000Y-90960000D01*
X226780000Y-90960000D02*
X225850000Y-90960000D01*
X226780000Y-90960000D02*
X226780000Y-87800000D01*
X223620000Y-90960000D02*
X223620000Y-89500000D01*
X223620000Y-107760000D02*
X224550000Y-107760000D01*
X226780000Y-107760000D02*
X225850000Y-107760000D01*
X226780000Y-107760000D02*
X226780000Y-104600000D01*
X223620000Y-107760000D02*
X223620000Y-106300000D01*
X223620000Y-82560000D02*
X224550000Y-82560000D01*
X226780000Y-82560000D02*
X225850000Y-82560000D01*
X226780000Y-82560000D02*
X226780000Y-79400000D01*
X223620000Y-82560000D02*
X223620000Y-81100000D01*
X223670000Y-99360000D02*
X224600000Y-99360000D01*
X226830000Y-99360000D02*
X225900000Y-99360000D01*
X226830000Y-99360000D02*
X226830000Y-96200000D01*
X223670000Y-99360000D02*
X223670000Y-97900000D01*
D12*
X228675000Y-105900000D02*
X228675000Y-106900000D01*
X227325000Y-106900000D02*
X227325000Y-105900000D01*
X202500000Y-110275000D02*
X201500000Y-110275000D01*
X201500000Y-108925000D02*
X202500000Y-108925000D01*
X202500000Y-112275000D02*
X201500000Y-112275000D01*
X201500000Y-110925000D02*
X202500000Y-110925000D01*
X202750000Y-118075000D02*
X201750000Y-118075000D01*
X201750000Y-116725000D02*
X202750000Y-116725000D01*
X228675000Y-80700000D02*
X228675000Y-81700000D01*
X227325000Y-81700000D02*
X227325000Y-80700000D01*
X202750000Y-120075000D02*
X201750000Y-120075000D01*
X201750000Y-118725000D02*
X202750000Y-118725000D01*
X202750000Y-126075000D02*
X201750000Y-126075000D01*
X201750000Y-124725000D02*
X202750000Y-124725000D01*
X202750000Y-128075000D02*
X201750000Y-128075000D01*
X201750000Y-126725000D02*
X202750000Y-126725000D01*
X228675000Y-97500000D02*
X228675000Y-98500000D01*
X227325000Y-98500000D02*
X227325000Y-97500000D01*
X221725000Y-98500000D02*
X221725000Y-97500000D01*
X223075000Y-97500000D02*
X223075000Y-98500000D01*
X189500000Y-112275000D02*
X188500000Y-112275000D01*
X188500000Y-110925000D02*
X189500000Y-110925000D01*
X221725000Y-90100000D02*
X221725000Y-89100000D01*
X223075000Y-89100000D02*
X223075000Y-90100000D01*
X189500000Y-118275000D02*
X188500000Y-118275000D01*
X188500000Y-116925000D02*
X189500000Y-116925000D01*
X221725000Y-81700000D02*
X221725000Y-80700000D01*
X223075000Y-80700000D02*
X223075000Y-81700000D01*
X189500000Y-120275000D02*
X188500000Y-120275000D01*
X188500000Y-118925000D02*
X189500000Y-118925000D01*
X221725000Y-73300000D02*
X221725000Y-72300000D01*
X223075000Y-72300000D02*
X223075000Y-73300000D01*
X189500000Y-126275000D02*
X188500000Y-126275000D01*
X188500000Y-124925000D02*
X189500000Y-124925000D01*
X221725000Y-64900000D02*
X221725000Y-63900000D01*
X223075000Y-63900000D02*
X223075000Y-64900000D01*
X189500000Y-128275000D02*
X188500000Y-128275000D01*
X188500000Y-126925000D02*
X189500000Y-126925000D01*
X221725000Y-106900000D02*
X221725000Y-105900000D01*
X223075000Y-105900000D02*
X223075000Y-106900000D01*
X197886000Y-116060000D02*
X197886000Y-121140000D01*
X197886000Y-121140000D02*
X193314000Y-121140000D01*
X193314000Y-121140000D02*
X193314000Y-116060000D01*
X193314000Y-116060000D02*
X197886000Y-116060000D01*
X196362000Y-116060000D02*
X196362000Y-116568000D01*
X196362000Y-116568000D02*
X195092000Y-116568000D01*
X195092000Y-116568000D02*
X195092000Y-116060000D01*
X197886000Y-123860000D02*
X197886000Y-128940000D01*
X197886000Y-128940000D02*
X193314000Y-128940000D01*
X193314000Y-128940000D02*
X193314000Y-123860000D01*
X193314000Y-123860000D02*
X197886000Y-123860000D01*
X196362000Y-123860000D02*
X196362000Y-124368000D01*
X196362000Y-124368000D02*
X195092000Y-124368000D01*
X195092000Y-124368000D02*
X195092000Y-123860000D01*
X197886000Y-108060000D02*
X197886000Y-113140000D01*
X197886000Y-113140000D02*
X193314000Y-113140000D01*
X193314000Y-113140000D02*
X193314000Y-108060000D01*
X193314000Y-108060000D02*
X197886000Y-108060000D01*
X196362000Y-108060000D02*
X196362000Y-108568000D01*
X196362000Y-108568000D02*
X195092000Y-108568000D01*
X195092000Y-108568000D02*
X195092000Y-108060000D01*
D11*
X233400000Y-63160000D02*
X233400000Y-62810000D01*
X233400000Y-62810000D02*
X234900000Y-62810000D01*
X233400000Y-67810000D02*
X233400000Y-64610000D01*
X234900000Y-69610000D02*
X233400000Y-69610000D01*
X233400000Y-69610000D02*
X233400000Y-69210000D01*
X233400000Y-54760000D02*
X233400000Y-54410000D01*
X233400000Y-54410000D02*
X234900000Y-54410000D01*
X233400000Y-59410000D02*
X233400000Y-56210000D01*
X234900000Y-61210000D02*
X233400000Y-61210000D01*
X233400000Y-61210000D02*
X233400000Y-60810000D01*
X233400000Y-71560000D02*
X233400000Y-71210000D01*
X233400000Y-71210000D02*
X234900000Y-71210000D01*
X233400000Y-76210000D02*
X233400000Y-73010000D01*
X234900000Y-78010000D02*
X233400000Y-78010000D01*
X233400000Y-78010000D02*
X233400000Y-77610000D01*
X233400000Y-88360000D02*
X233400000Y-88010000D01*
X233400000Y-88010000D02*
X234900000Y-88010000D01*
X233400000Y-93010000D02*
X233400000Y-89810000D01*
X234900000Y-94810000D02*
X233400000Y-94810000D01*
X233400000Y-94810000D02*
X233400000Y-94410000D01*
X233400000Y-105160000D02*
X233400000Y-104810000D01*
X233400000Y-104810000D02*
X234900000Y-104810000D01*
X233400000Y-109810000D02*
X233400000Y-106610000D01*
X234900000Y-111610000D02*
X233400000Y-111610000D01*
X233400000Y-111610000D02*
X233400000Y-111210000D01*
X233400000Y-79960000D02*
X233400000Y-79610000D01*
X233400000Y-79610000D02*
X234900000Y-79610000D01*
X233400000Y-84610000D02*
X233400000Y-81410000D01*
X234900000Y-86410000D02*
X233400000Y-86410000D01*
X233400000Y-86410000D02*
X233400000Y-86010000D01*
X233400000Y-96760000D02*
X233400000Y-96410000D01*
X233400000Y-96410000D02*
X234900000Y-96410000D01*
X233400000Y-101410000D02*
X233400000Y-98210000D01*
X234900000Y-103210000D02*
X233400000Y-103210000D01*
X233400000Y-103210000D02*
X233400000Y-102810000D01*
D12*
X221725000Y-56500000D02*
X221725000Y-55500000D01*
X223075000Y-55500000D02*
X223075000Y-56500000D01*
D11*
X213240000Y-73914000D02*
X213240000Y-86734000D01*
X213240000Y-86734000D02*
X216020000Y-86734000D01*
X216020000Y-86734000D02*
X216020000Y-73914000D01*
X216020000Y-73914000D02*
X213240000Y-73914000D01*
X213240000Y-72644000D02*
X213240000Y-71254000D01*
X213240000Y-71254000D02*
X214630000Y-71254000D01*
D12*
X201638095Y-87844381D02*
X201638095Y-88653905D01*
X201685714Y-88749143D01*
X201733333Y-88796762D01*
X201828571Y-88844381D01*
X202019048Y-88844381D01*
X202114286Y-88796762D01*
X202161905Y-88749143D01*
X202209524Y-88653905D01*
X202209524Y-87844381D01*
X203209524Y-88844381D02*
X202638095Y-88844381D01*
X202923809Y-88844381D02*
X202923809Y-87844381D01*
X202828571Y-87987238D01*
X202733333Y-88082476D01*
X202638095Y-88130095D01*
X184857143Y-110052381D02*
X184523809Y-109576190D01*
X184285714Y-110052381D02*
X184285714Y-109052381D01*
X184666667Y-109052381D01*
X184761905Y-109100000D01*
X184809524Y-109147619D01*
X184857143Y-109242857D01*
X184857143Y-109385714D01*
X184809524Y-109480952D01*
X184761905Y-109528571D01*
X184666667Y-109576190D01*
X184285714Y-109576190D01*
X185238095Y-109147619D02*
X185285714Y-109100000D01*
X185380952Y-109052381D01*
X185619048Y-109052381D01*
X185714286Y-109100000D01*
X185761905Y-109147619D01*
X185809524Y-109242857D01*
X185809524Y-109338095D01*
X185761905Y-109480952D01*
X185190476Y-110052381D01*
X185809524Y-110052381D01*
X186285714Y-110052381D02*
X186476190Y-110052381D01*
X186571429Y-110004762D01*
X186619048Y-109957143D01*
X186714286Y-109814286D01*
X186761905Y-109623810D01*
X186761905Y-109242857D01*
X186714286Y-109147619D01*
X186666667Y-109100000D01*
X186571429Y-109052381D01*
X186380952Y-109052381D01*
X186285714Y-109100000D01*
X186238095Y-109147619D01*
X186190476Y-109242857D01*
X186190476Y-109480952D01*
X186238095Y-109576190D01*
X186285714Y-109623810D01*
X186380952Y-109671429D01*
X186571429Y-109671429D01*
X186666667Y-109623810D01*
X186714286Y-109576190D01*
X186761905Y-109480952D01*
X248288286Y-66074857D02*
X248288286Y-64874857D01*
X248745429Y-64874857D01*
X248859715Y-64932000D01*
X248916858Y-64989143D01*
X248974001Y-65103429D01*
X248974001Y-65274857D01*
X248916858Y-65389143D01*
X248859715Y-65446286D01*
X248745429Y-65503429D01*
X248288286Y-65503429D01*
X249431143Y-64989143D02*
X249488286Y-64932000D01*
X249602572Y-64874857D01*
X249888286Y-64874857D01*
X250002572Y-64932000D01*
X250059715Y-64989143D01*
X250116858Y-65103429D01*
X250116858Y-65217714D01*
X250059715Y-65389143D01*
X249374001Y-66074857D01*
X250116858Y-66074857D01*
X198590476Y-82162381D02*
X198590476Y-81162381D01*
X198923810Y-81876667D01*
X199257143Y-81162381D01*
X199257143Y-82162381D01*
X200257143Y-82162381D02*
X199685714Y-82162381D01*
X199971428Y-82162381D02*
X199971428Y-81162381D01*
X199876190Y-81305238D01*
X199780952Y-81400476D01*
X199685714Y-81448095D01*
X220602286Y-135670857D02*
X220602286Y-134470857D01*
X221059429Y-134470857D01*
X221173715Y-134528000D01*
X221230858Y-134585143D01*
X221288001Y-134699429D01*
X221288001Y-134870857D01*
X221230858Y-134985143D01*
X221173715Y-135042286D01*
X221059429Y-135099429D01*
X220602286Y-135099429D01*
X222430858Y-135670857D02*
X221745143Y-135670857D01*
X222088001Y-135670857D02*
X222088001Y-134470857D01*
X221973715Y-134642286D01*
X221859429Y-134756571D01*
X221745143Y-134813714D01*
X228452381Y-67816666D02*
X227976190Y-68150000D01*
X228452381Y-68388095D02*
X227452381Y-68388095D01*
X227452381Y-68007142D01*
X227500000Y-67911904D01*
X227547619Y-67864285D01*
X227642857Y-67816666D01*
X227785714Y-67816666D01*
X227880952Y-67864285D01*
X227928571Y-67911904D01*
X227976190Y-68007142D01*
X227976190Y-68388095D01*
X228452381Y-66864285D02*
X228452381Y-67435714D01*
X228452381Y-67150000D02*
X227452381Y-67150000D01*
X227595238Y-67245238D01*
X227690476Y-67340476D01*
X227738095Y-67435714D01*
X228452381Y-59166666D02*
X227976190Y-59500000D01*
X228452381Y-59738095D02*
X227452381Y-59738095D01*
X227452381Y-59357142D01*
X227500000Y-59261904D01*
X227547619Y-59214285D01*
X227642857Y-59166666D01*
X227785714Y-59166666D01*
X227880952Y-59214285D01*
X227928571Y-59261904D01*
X227976190Y-59357142D01*
X227976190Y-59738095D01*
X227452381Y-58833333D02*
X227452381Y-58214285D01*
X227833333Y-58547619D01*
X227833333Y-58404761D01*
X227880952Y-58309523D01*
X227928571Y-58261904D01*
X228023810Y-58214285D01*
X228261905Y-58214285D01*
X228357143Y-58261904D01*
X228404762Y-58309523D01*
X228452381Y-58404761D01*
X228452381Y-58690476D01*
X228404762Y-58785714D01*
X228357143Y-58833333D01*
X228452381Y-75966666D02*
X227976190Y-76300000D01*
X228452381Y-76538095D02*
X227452381Y-76538095D01*
X227452381Y-76157142D01*
X227500000Y-76061904D01*
X227547619Y-76014285D01*
X227642857Y-75966666D01*
X227785714Y-75966666D01*
X227880952Y-76014285D01*
X227928571Y-76061904D01*
X227976190Y-76157142D01*
X227976190Y-76538095D01*
X227452381Y-75061904D02*
X227452381Y-75538095D01*
X227928571Y-75585714D01*
X227880952Y-75538095D01*
X227833333Y-75442857D01*
X227833333Y-75204761D01*
X227880952Y-75109523D01*
X227928571Y-75061904D01*
X228023810Y-75014285D01*
X228261905Y-75014285D01*
X228357143Y-75061904D01*
X228404762Y-75109523D01*
X228452381Y-75204761D01*
X228452381Y-75442857D01*
X228404762Y-75538095D01*
X228357143Y-75585714D01*
X228452381Y-92876666D02*
X227976190Y-93210000D01*
X228452381Y-93448095D02*
X227452381Y-93448095D01*
X227452381Y-93067142D01*
X227500000Y-92971904D01*
X227547619Y-92924285D01*
X227642857Y-92876666D01*
X227785714Y-92876666D01*
X227880952Y-92924285D01*
X227928571Y-92971904D01*
X227976190Y-93067142D01*
X227976190Y-93448095D01*
X227452381Y-92543333D02*
X227452381Y-91876666D01*
X228452381Y-92305238D01*
X189317334Y-114957143D02*
X189269715Y-115004762D01*
X189126858Y-115052381D01*
X189031620Y-115052381D01*
X188888762Y-115004762D01*
X188793524Y-114909524D01*
X188745905Y-114814286D01*
X188698286Y-114623810D01*
X188698286Y-114480952D01*
X188745905Y-114290476D01*
X188793524Y-114195238D01*
X188888762Y-114100000D01*
X189031620Y-114052381D01*
X189126858Y-114052381D01*
X189269715Y-114100000D01*
X189317334Y-114147619D01*
X190269715Y-115052381D02*
X189698286Y-115052381D01*
X189984000Y-115052381D02*
X189984000Y-114052381D01*
X189888762Y-114195238D01*
X189793524Y-114290476D01*
X189698286Y-114338095D01*
X202017334Y-114911143D02*
X201969715Y-114958762D01*
X201826858Y-115006381D01*
X201731620Y-115006381D01*
X201588762Y-114958762D01*
X201493524Y-114863524D01*
X201445905Y-114768286D01*
X201398286Y-114577810D01*
X201398286Y-114434952D01*
X201445905Y-114244476D01*
X201493524Y-114149238D01*
X201588762Y-114054000D01*
X201731620Y-114006381D01*
X201826858Y-114006381D01*
X201969715Y-114054000D01*
X202017334Y-114101619D01*
X202398286Y-114101619D02*
X202445905Y-114054000D01*
X202541143Y-114006381D01*
X202779239Y-114006381D01*
X202874477Y-114054000D01*
X202922096Y-114101619D01*
X202969715Y-114196857D01*
X202969715Y-114292095D01*
X202922096Y-114434952D01*
X202350667Y-115006381D01*
X202969715Y-115006381D01*
X211857143Y-92966666D02*
X211904762Y-93014285D01*
X211952381Y-93157142D01*
X211952381Y-93252380D01*
X211904762Y-93395238D01*
X211809524Y-93490476D01*
X211714286Y-93538095D01*
X211523810Y-93585714D01*
X211380952Y-93585714D01*
X211190476Y-93538095D01*
X211095238Y-93490476D01*
X211000000Y-93395238D01*
X210952381Y-93252380D01*
X210952381Y-93157142D01*
X211000000Y-93014285D01*
X211047619Y-92966666D01*
X210952381Y-92633333D02*
X210952381Y-92014285D01*
X211333333Y-92347619D01*
X211333333Y-92204761D01*
X211380952Y-92109523D01*
X211428571Y-92061904D01*
X211523810Y-92014285D01*
X211761905Y-92014285D01*
X211857143Y-92061904D01*
X211904762Y-92109523D01*
X211952381Y-92204761D01*
X211952381Y-92490476D01*
X211904762Y-92585714D01*
X211857143Y-92633333D01*
X203795334Y-101195143D02*
X203747715Y-101242762D01*
X203604858Y-101290381D01*
X203509620Y-101290381D01*
X203366762Y-101242762D01*
X203271524Y-101147524D01*
X203223905Y-101052286D01*
X203176286Y-100861810D01*
X203176286Y-100718952D01*
X203223905Y-100528476D01*
X203271524Y-100433238D01*
X203366762Y-100338000D01*
X203509620Y-100290381D01*
X203604858Y-100290381D01*
X203747715Y-100338000D01*
X203795334Y-100385619D01*
X204652477Y-100623714D02*
X204652477Y-101290381D01*
X204414381Y-100242762D02*
X204176286Y-100957048D01*
X204795334Y-100957048D01*
X189063334Y-122785143D02*
X189015715Y-122832762D01*
X188872858Y-122880381D01*
X188777620Y-122880381D01*
X188634762Y-122832762D01*
X188539524Y-122737524D01*
X188491905Y-122642286D01*
X188444286Y-122451810D01*
X188444286Y-122308952D01*
X188491905Y-122118476D01*
X188539524Y-122023238D01*
X188634762Y-121928000D01*
X188777620Y-121880381D01*
X188872858Y-121880381D01*
X189015715Y-121928000D01*
X189063334Y-121975619D01*
X189396667Y-121880381D02*
X190063334Y-121880381D01*
X189634762Y-122880381D01*
X202017334Y-122531143D02*
X201969715Y-122578762D01*
X201826858Y-122626381D01*
X201731620Y-122626381D01*
X201588762Y-122578762D01*
X201493524Y-122483524D01*
X201445905Y-122388286D01*
X201398286Y-122197810D01*
X201398286Y-122054952D01*
X201445905Y-121864476D01*
X201493524Y-121769238D01*
X201588762Y-121674000D01*
X201731620Y-121626381D01*
X201826858Y-121626381D01*
X201969715Y-121674000D01*
X202017334Y-121721619D01*
X202588762Y-122054952D02*
X202493524Y-122007333D01*
X202445905Y-121959714D01*
X202398286Y-121864476D01*
X202398286Y-121816857D01*
X202445905Y-121721619D01*
X202493524Y-121674000D01*
X202588762Y-121626381D01*
X202779239Y-121626381D01*
X202874477Y-121674000D01*
X202922096Y-121721619D01*
X202969715Y-121816857D01*
X202969715Y-121864476D01*
X202922096Y-121959714D01*
X202874477Y-122007333D01*
X202779239Y-122054952D01*
X202588762Y-122054952D01*
X202493524Y-122102571D01*
X202445905Y-122150190D01*
X202398286Y-122245429D01*
X202398286Y-122435905D01*
X202445905Y-122531143D01*
X202493524Y-122578762D01*
X202588762Y-122626381D01*
X202779239Y-122626381D01*
X202874477Y-122578762D01*
X202922096Y-122531143D01*
X202969715Y-122435905D01*
X202969715Y-122245429D01*
X202922096Y-122150190D01*
X202874477Y-122102571D01*
X202779239Y-122054952D01*
X189233334Y-107157143D02*
X189185715Y-107204762D01*
X189042858Y-107252381D01*
X188947620Y-107252381D01*
X188804762Y-107204762D01*
X188709524Y-107109524D01*
X188661905Y-107014286D01*
X188614286Y-106823810D01*
X188614286Y-106680952D01*
X188661905Y-106490476D01*
X188709524Y-106395238D01*
X188804762Y-106300000D01*
X188947620Y-106252381D01*
X189042858Y-106252381D01*
X189185715Y-106300000D01*
X189233334Y-106347619D01*
X189709524Y-107252381D02*
X189900000Y-107252381D01*
X189995239Y-107204762D01*
X190042858Y-107157143D01*
X190138096Y-107014286D01*
X190185715Y-106823810D01*
X190185715Y-106442857D01*
X190138096Y-106347619D01*
X190090477Y-106300000D01*
X189995239Y-106252381D01*
X189804762Y-106252381D01*
X189709524Y-106300000D01*
X189661905Y-106347619D01*
X189614286Y-106442857D01*
X189614286Y-106680952D01*
X189661905Y-106776190D01*
X189709524Y-106823810D01*
X189804762Y-106871429D01*
X189995239Y-106871429D01*
X190090477Y-106823810D01*
X190138096Y-106776190D01*
X190185715Y-106680952D01*
X201957143Y-106957143D02*
X201909524Y-107004762D01*
X201766667Y-107052381D01*
X201671429Y-107052381D01*
X201528571Y-107004762D01*
X201433333Y-106909524D01*
X201385714Y-106814286D01*
X201338095Y-106623810D01*
X201338095Y-106480952D01*
X201385714Y-106290476D01*
X201433333Y-106195238D01*
X201528571Y-106100000D01*
X201671429Y-106052381D01*
X201766667Y-106052381D01*
X201909524Y-106100000D01*
X201957143Y-106147619D01*
X202909524Y-107052381D02*
X202338095Y-107052381D01*
X202623809Y-107052381D02*
X202623809Y-106052381D01*
X202528571Y-106195238D01*
X202433333Y-106290476D01*
X202338095Y-106338095D01*
X203528571Y-106052381D02*
X203623810Y-106052381D01*
X203719048Y-106100000D01*
X203766667Y-106147619D01*
X203814286Y-106242857D01*
X203861905Y-106433333D01*
X203861905Y-106671429D01*
X203814286Y-106861905D01*
X203766667Y-106957143D01*
X203719048Y-107004762D01*
X203623810Y-107052381D01*
X203528571Y-107052381D01*
X203433333Y-107004762D01*
X203385714Y-106957143D01*
X203338095Y-106861905D01*
X203290476Y-106671429D01*
X203290476Y-106433333D01*
X203338095Y-106242857D01*
X203385714Y-106147619D01*
X203433333Y-106100000D01*
X203528571Y-106052381D01*
X225747619Y-68845238D02*
X225700000Y-68940476D01*
X225604762Y-69035714D01*
X225461905Y-69178571D01*
X225414286Y-69273810D01*
X225414286Y-69369048D01*
X225652381Y-69321429D02*
X225604762Y-69416667D01*
X225509524Y-69511905D01*
X225319048Y-69559524D01*
X224985714Y-69559524D01*
X224795238Y-69511905D01*
X224700000Y-69416667D01*
X224652381Y-69321429D01*
X224652381Y-69130952D01*
X224700000Y-69035714D01*
X224795238Y-68940476D01*
X224985714Y-68892857D01*
X225319048Y-68892857D01*
X225509524Y-68940476D01*
X225604762Y-69035714D01*
X225652381Y-69130952D01*
X225652381Y-69321429D01*
X225652381Y-67940476D02*
X225652381Y-68511905D01*
X225652381Y-68226191D02*
X224652381Y-68226191D01*
X224795238Y-68321429D01*
X224890476Y-68416667D01*
X224938095Y-68511905D01*
X225845619Y-60801238D02*
X225798000Y-60896476D01*
X225702762Y-60991714D01*
X225559905Y-61134571D01*
X225512286Y-61229810D01*
X225512286Y-61325048D01*
X225750381Y-61277429D02*
X225702762Y-61372667D01*
X225607524Y-61467905D01*
X225417048Y-61515524D01*
X225083714Y-61515524D01*
X224893238Y-61467905D01*
X224798000Y-61372667D01*
X224750381Y-61277429D01*
X224750381Y-61086952D01*
X224798000Y-60991714D01*
X224893238Y-60896476D01*
X225083714Y-60848857D01*
X225417048Y-60848857D01*
X225607524Y-60896476D01*
X225702762Y-60991714D01*
X225750381Y-61086952D01*
X225750381Y-61277429D01*
X224750381Y-60515524D02*
X224750381Y-59896476D01*
X225131333Y-60229810D01*
X225131333Y-60086952D01*
X225178952Y-59991714D01*
X225226571Y-59944095D01*
X225321810Y-59896476D01*
X225559905Y-59896476D01*
X225655143Y-59944095D01*
X225702762Y-59991714D01*
X225750381Y-60086952D01*
X225750381Y-60372667D01*
X225702762Y-60467905D01*
X225655143Y-60515524D01*
X225845619Y-77311238D02*
X225798000Y-77406476D01*
X225702762Y-77501714D01*
X225559905Y-77644571D01*
X225512286Y-77739810D01*
X225512286Y-77835048D01*
X225750381Y-77787429D02*
X225702762Y-77882667D01*
X225607524Y-77977905D01*
X225417048Y-78025524D01*
X225083714Y-78025524D01*
X224893238Y-77977905D01*
X224798000Y-77882667D01*
X224750381Y-77787429D01*
X224750381Y-77596952D01*
X224798000Y-77501714D01*
X224893238Y-77406476D01*
X225083714Y-77358857D01*
X225417048Y-77358857D01*
X225607524Y-77406476D01*
X225702762Y-77501714D01*
X225750381Y-77596952D01*
X225750381Y-77787429D01*
X224750381Y-76454095D02*
X224750381Y-76930286D01*
X225226571Y-76977905D01*
X225178952Y-76930286D01*
X225131333Y-76835048D01*
X225131333Y-76596952D01*
X225178952Y-76501714D01*
X225226571Y-76454095D01*
X225321810Y-76406476D01*
X225559905Y-76406476D01*
X225655143Y-76454095D01*
X225702762Y-76501714D01*
X225750381Y-76596952D01*
X225750381Y-76835048D01*
X225702762Y-76930286D01*
X225655143Y-76977905D01*
X225845619Y-94329238D02*
X225798000Y-94424476D01*
X225702762Y-94519714D01*
X225559905Y-94662571D01*
X225512286Y-94757810D01*
X225512286Y-94853048D01*
X225750381Y-94805429D02*
X225702762Y-94900667D01*
X225607524Y-94995905D01*
X225417048Y-95043524D01*
X225083714Y-95043524D01*
X224893238Y-94995905D01*
X224798000Y-94900667D01*
X224750381Y-94805429D01*
X224750381Y-94614952D01*
X224798000Y-94519714D01*
X224893238Y-94424476D01*
X225083714Y-94376857D01*
X225417048Y-94376857D01*
X225607524Y-94424476D01*
X225702762Y-94519714D01*
X225750381Y-94614952D01*
X225750381Y-94805429D01*
X224750381Y-94043524D02*
X224750381Y-93376857D01*
X225750381Y-93805429D01*
X225897619Y-110945238D02*
X225850000Y-111040476D01*
X225754762Y-111135714D01*
X225611905Y-111278571D01*
X225564286Y-111373810D01*
X225564286Y-111469048D01*
X225802381Y-111421429D02*
X225754762Y-111516667D01*
X225659524Y-111611905D01*
X225469048Y-111659524D01*
X225135714Y-111659524D01*
X224945238Y-111611905D01*
X224850000Y-111516667D01*
X224802381Y-111421429D01*
X224802381Y-111230952D01*
X224850000Y-111135714D01*
X224945238Y-111040476D01*
X225135714Y-110992857D01*
X225469048Y-110992857D01*
X225659524Y-111040476D01*
X225754762Y-111135714D01*
X225802381Y-111230952D01*
X225802381Y-111421429D01*
X225802381Y-110516667D02*
X225802381Y-110326191D01*
X225754762Y-110230952D01*
X225707143Y-110183333D01*
X225564286Y-110088095D01*
X225373810Y-110040476D01*
X224992857Y-110040476D01*
X224897619Y-110088095D01*
X224850000Y-110135714D01*
X224802381Y-110230952D01*
X224802381Y-110421429D01*
X224850000Y-110516667D01*
X224897619Y-110564286D01*
X224992857Y-110611905D01*
X225230952Y-110611905D01*
X225326190Y-110564286D01*
X225373810Y-110516667D01*
X225421429Y-110421429D01*
X225421429Y-110230952D01*
X225373810Y-110135714D01*
X225326190Y-110088095D01*
X225230952Y-110040476D01*
X225897619Y-86371428D02*
X225850000Y-86466666D01*
X225754762Y-86561904D01*
X225611905Y-86704761D01*
X225564286Y-86800000D01*
X225564286Y-86895238D01*
X225802381Y-86847619D02*
X225754762Y-86942857D01*
X225659524Y-87038095D01*
X225469048Y-87085714D01*
X225135714Y-87085714D01*
X224945238Y-87038095D01*
X224850000Y-86942857D01*
X224802381Y-86847619D01*
X224802381Y-86657142D01*
X224850000Y-86561904D01*
X224945238Y-86466666D01*
X225135714Y-86419047D01*
X225469048Y-86419047D01*
X225659524Y-86466666D01*
X225754762Y-86561904D01*
X225802381Y-86657142D01*
X225802381Y-86847619D01*
X225802381Y-85466666D02*
X225802381Y-86038095D01*
X225802381Y-85752381D02*
X224802381Y-85752381D01*
X224945238Y-85847619D01*
X225040476Y-85942857D01*
X225088095Y-86038095D01*
X225802381Y-84514285D02*
X225802381Y-85085714D01*
X225802381Y-84800000D02*
X224802381Y-84800000D01*
X224945238Y-84895238D01*
X225040476Y-84990476D01*
X225088095Y-85085714D01*
X225947619Y-103471428D02*
X225900000Y-103566666D01*
X225804762Y-103661904D01*
X225661905Y-103804761D01*
X225614286Y-103900000D01*
X225614286Y-103995238D01*
X225852381Y-103947619D02*
X225804762Y-104042857D01*
X225709524Y-104138095D01*
X225519048Y-104185714D01*
X225185714Y-104185714D01*
X224995238Y-104138095D01*
X224900000Y-104042857D01*
X224852381Y-103947619D01*
X224852381Y-103757142D01*
X224900000Y-103661904D01*
X224995238Y-103566666D01*
X225185714Y-103519047D01*
X225519048Y-103519047D01*
X225709524Y-103566666D01*
X225804762Y-103661904D01*
X225852381Y-103757142D01*
X225852381Y-103947619D01*
X225852381Y-102566666D02*
X225852381Y-103138095D01*
X225852381Y-102852381D02*
X224852381Y-102852381D01*
X224995238Y-102947619D01*
X225090476Y-103042857D01*
X225138095Y-103138095D01*
X224852381Y-102233333D02*
X224852381Y-101614285D01*
X225233333Y-101947619D01*
X225233333Y-101804761D01*
X225280952Y-101709523D01*
X225328571Y-101661904D01*
X225423810Y-101614285D01*
X225661905Y-101614285D01*
X225757143Y-101661904D01*
X225804762Y-101709523D01*
X225852381Y-101804761D01*
X225852381Y-102090476D01*
X225804762Y-102185714D01*
X225757143Y-102233333D01*
X228452381Y-110642857D02*
X227976190Y-110976191D01*
X228452381Y-111214286D02*
X227452381Y-111214286D01*
X227452381Y-110833333D01*
X227500000Y-110738095D01*
X227547619Y-110690476D01*
X227642857Y-110642857D01*
X227785714Y-110642857D01*
X227880952Y-110690476D01*
X227928571Y-110738095D01*
X227976190Y-110833333D01*
X227976190Y-111214286D01*
X228452381Y-109690476D02*
X228452381Y-110261905D01*
X228452381Y-109976191D02*
X227452381Y-109976191D01*
X227595238Y-110071429D01*
X227690476Y-110166667D01*
X227738095Y-110261905D01*
X227547619Y-109309524D02*
X227500000Y-109261905D01*
X227452381Y-109166667D01*
X227452381Y-108928571D01*
X227500000Y-108833333D01*
X227547619Y-108785714D01*
X227642857Y-108738095D01*
X227738095Y-108738095D01*
X227880952Y-108785714D01*
X228452381Y-109357143D01*
X228452381Y-108738095D01*
X204907143Y-110152381D02*
X204573809Y-109676190D01*
X204335714Y-110152381D02*
X204335714Y-109152381D01*
X204716667Y-109152381D01*
X204811905Y-109200000D01*
X204859524Y-109247619D01*
X204907143Y-109342857D01*
X204907143Y-109485714D01*
X204859524Y-109580952D01*
X204811905Y-109628571D01*
X204716667Y-109676190D01*
X204335714Y-109676190D01*
X205859524Y-110152381D02*
X205288095Y-110152381D01*
X205573809Y-110152381D02*
X205573809Y-109152381D01*
X205478571Y-109295238D01*
X205383333Y-109390476D01*
X205288095Y-109438095D01*
X206430952Y-109580952D02*
X206335714Y-109533333D01*
X206288095Y-109485714D01*
X206240476Y-109390476D01*
X206240476Y-109342857D01*
X206288095Y-109247619D01*
X206335714Y-109200000D01*
X206430952Y-109152381D01*
X206621429Y-109152381D01*
X206716667Y-109200000D01*
X206764286Y-109247619D01*
X206811905Y-109342857D01*
X206811905Y-109390476D01*
X206764286Y-109485714D01*
X206716667Y-109533333D01*
X206621429Y-109580952D01*
X206430952Y-109580952D01*
X206335714Y-109628571D01*
X206288095Y-109676190D01*
X206240476Y-109771429D01*
X206240476Y-109961905D01*
X206288095Y-110057143D01*
X206335714Y-110104762D01*
X206430952Y-110152381D01*
X206621429Y-110152381D01*
X206716667Y-110104762D01*
X206764286Y-110057143D01*
X206811905Y-109961905D01*
X206811905Y-109771429D01*
X206764286Y-109676190D01*
X206716667Y-109628571D01*
X206621429Y-109580952D01*
X204907143Y-111952381D02*
X204573809Y-111476190D01*
X204335714Y-111952381D02*
X204335714Y-110952381D01*
X204716667Y-110952381D01*
X204811905Y-111000000D01*
X204859524Y-111047619D01*
X204907143Y-111142857D01*
X204907143Y-111285714D01*
X204859524Y-111380952D01*
X204811905Y-111428571D01*
X204716667Y-111476190D01*
X204335714Y-111476190D01*
X205859524Y-111952381D02*
X205288095Y-111952381D01*
X205573809Y-111952381D02*
X205573809Y-110952381D01*
X205478571Y-111095238D01*
X205383333Y-111190476D01*
X205288095Y-111238095D01*
X206335714Y-111952381D02*
X206526190Y-111952381D01*
X206621429Y-111904762D01*
X206669048Y-111857143D01*
X206764286Y-111714286D01*
X206811905Y-111523810D01*
X206811905Y-111142857D01*
X206764286Y-111047619D01*
X206716667Y-111000000D01*
X206621429Y-110952381D01*
X206430952Y-110952381D01*
X206335714Y-111000000D01*
X206288095Y-111047619D01*
X206240476Y-111142857D01*
X206240476Y-111380952D01*
X206288095Y-111476190D01*
X206335714Y-111523810D01*
X206430952Y-111571429D01*
X206621429Y-111571429D01*
X206716667Y-111523810D01*
X206764286Y-111476190D01*
X206811905Y-111380952D01*
X205097143Y-117800381D02*
X204763809Y-117324190D01*
X204525714Y-117800381D02*
X204525714Y-116800381D01*
X204906667Y-116800381D01*
X205001905Y-116848000D01*
X205049524Y-116895619D01*
X205097143Y-116990857D01*
X205097143Y-117133714D01*
X205049524Y-117228952D01*
X205001905Y-117276571D01*
X204906667Y-117324190D01*
X204525714Y-117324190D01*
X205478095Y-116895619D02*
X205525714Y-116848000D01*
X205620952Y-116800381D01*
X205859048Y-116800381D01*
X205954286Y-116848000D01*
X206001905Y-116895619D01*
X206049524Y-116990857D01*
X206049524Y-117086095D01*
X206001905Y-117228952D01*
X205430476Y-117800381D01*
X206049524Y-117800381D01*
X206668571Y-116800381D02*
X206763810Y-116800381D01*
X206859048Y-116848000D01*
X206906667Y-116895619D01*
X206954286Y-116990857D01*
X207001905Y-117181333D01*
X207001905Y-117419429D01*
X206954286Y-117609905D01*
X206906667Y-117705143D01*
X206859048Y-117752762D01*
X206763810Y-117800381D01*
X206668571Y-117800381D01*
X206573333Y-117752762D01*
X206525714Y-117705143D01*
X206478095Y-117609905D01*
X206430476Y-117419429D01*
X206430476Y-117181333D01*
X206478095Y-116990857D01*
X206525714Y-116895619D01*
X206573333Y-116848000D01*
X206668571Y-116800381D01*
X228452381Y-85392857D02*
X227976190Y-85726191D01*
X228452381Y-85964286D02*
X227452381Y-85964286D01*
X227452381Y-85583333D01*
X227500000Y-85488095D01*
X227547619Y-85440476D01*
X227642857Y-85392857D01*
X227785714Y-85392857D01*
X227880952Y-85440476D01*
X227928571Y-85488095D01*
X227976190Y-85583333D01*
X227976190Y-85964286D01*
X227547619Y-85011905D02*
X227500000Y-84964286D01*
X227452381Y-84869048D01*
X227452381Y-84630952D01*
X227500000Y-84535714D01*
X227547619Y-84488095D01*
X227642857Y-84440476D01*
X227738095Y-84440476D01*
X227880952Y-84488095D01*
X228452381Y-85059524D01*
X228452381Y-84440476D01*
X228452381Y-83488095D02*
X228452381Y-84059524D01*
X228452381Y-83773810D02*
X227452381Y-83773810D01*
X227595238Y-83869048D01*
X227690476Y-83964286D01*
X227738095Y-84059524D01*
X205097143Y-120086381D02*
X204763809Y-119610190D01*
X204525714Y-120086381D02*
X204525714Y-119086381D01*
X204906667Y-119086381D01*
X205001905Y-119134000D01*
X205049524Y-119181619D01*
X205097143Y-119276857D01*
X205097143Y-119419714D01*
X205049524Y-119514952D01*
X205001905Y-119562571D01*
X204906667Y-119610190D01*
X204525714Y-119610190D01*
X205478095Y-119181619D02*
X205525714Y-119134000D01*
X205620952Y-119086381D01*
X205859048Y-119086381D01*
X205954286Y-119134000D01*
X206001905Y-119181619D01*
X206049524Y-119276857D01*
X206049524Y-119372095D01*
X206001905Y-119514952D01*
X205430476Y-120086381D01*
X206049524Y-120086381D01*
X206430476Y-119181619D02*
X206478095Y-119134000D01*
X206573333Y-119086381D01*
X206811429Y-119086381D01*
X206906667Y-119134000D01*
X206954286Y-119181619D01*
X207001905Y-119276857D01*
X207001905Y-119372095D01*
X206954286Y-119514952D01*
X206382857Y-120086381D01*
X207001905Y-120086381D01*
X205351143Y-125928381D02*
X205017809Y-125452190D01*
X204779714Y-125928381D02*
X204779714Y-124928381D01*
X205160667Y-124928381D01*
X205255905Y-124976000D01*
X205303524Y-125023619D01*
X205351143Y-125118857D01*
X205351143Y-125261714D01*
X205303524Y-125356952D01*
X205255905Y-125404571D01*
X205160667Y-125452190D01*
X204779714Y-125452190D01*
X205732095Y-125023619D02*
X205779714Y-124976000D01*
X205874952Y-124928381D01*
X206113048Y-124928381D01*
X206208286Y-124976000D01*
X206255905Y-125023619D01*
X206303524Y-125118857D01*
X206303524Y-125214095D01*
X206255905Y-125356952D01*
X205684476Y-125928381D01*
X206303524Y-125928381D01*
X206636857Y-124928381D02*
X207255905Y-124928381D01*
X206922571Y-125309333D01*
X207065429Y-125309333D01*
X207160667Y-125356952D01*
X207208286Y-125404571D01*
X207255905Y-125499810D01*
X207255905Y-125737905D01*
X207208286Y-125833143D01*
X207160667Y-125880762D01*
X207065429Y-125928381D01*
X206779714Y-125928381D01*
X206684476Y-125880762D01*
X206636857Y-125833143D01*
X205351143Y-127960381D02*
X205017809Y-127484190D01*
X204779714Y-127960381D02*
X204779714Y-126960381D01*
X205160667Y-126960381D01*
X205255905Y-127008000D01*
X205303524Y-127055619D01*
X205351143Y-127150857D01*
X205351143Y-127293714D01*
X205303524Y-127388952D01*
X205255905Y-127436571D01*
X205160667Y-127484190D01*
X204779714Y-127484190D01*
X205732095Y-127055619D02*
X205779714Y-127008000D01*
X205874952Y-126960381D01*
X206113048Y-126960381D01*
X206208286Y-127008000D01*
X206255905Y-127055619D01*
X206303524Y-127150857D01*
X206303524Y-127246095D01*
X206255905Y-127388952D01*
X205684476Y-127960381D01*
X206303524Y-127960381D01*
X207160667Y-127293714D02*
X207160667Y-127960381D01*
X206922571Y-126912762D02*
X206684476Y-127627048D01*
X207303524Y-127627048D01*
X228452381Y-102292857D02*
X227976190Y-102626191D01*
X228452381Y-102864286D02*
X227452381Y-102864286D01*
X227452381Y-102483333D01*
X227500000Y-102388095D01*
X227547619Y-102340476D01*
X227642857Y-102292857D01*
X227785714Y-102292857D01*
X227880952Y-102340476D01*
X227928571Y-102388095D01*
X227976190Y-102483333D01*
X227976190Y-102864286D01*
X227547619Y-101911905D02*
X227500000Y-101864286D01*
X227452381Y-101769048D01*
X227452381Y-101530952D01*
X227500000Y-101435714D01*
X227547619Y-101388095D01*
X227642857Y-101340476D01*
X227738095Y-101340476D01*
X227880952Y-101388095D01*
X228452381Y-101959524D01*
X228452381Y-101340476D01*
X227452381Y-100483333D02*
X227452381Y-100673810D01*
X227500000Y-100769048D01*
X227547619Y-100816667D01*
X227690476Y-100911905D01*
X227880952Y-100959524D01*
X228261905Y-100959524D01*
X228357143Y-100911905D01*
X228404762Y-100864286D01*
X228452381Y-100769048D01*
X228452381Y-100578571D01*
X228404762Y-100483333D01*
X228357143Y-100435714D01*
X228261905Y-100388095D01*
X228023810Y-100388095D01*
X227928571Y-100435714D01*
X227880952Y-100483333D01*
X227833333Y-100578571D01*
X227833333Y-100769048D01*
X227880952Y-100864286D01*
X227928571Y-100911905D01*
X228023810Y-100959524D01*
X222956381Y-102496857D02*
X222480190Y-102830191D01*
X222956381Y-103068286D02*
X221956381Y-103068286D01*
X221956381Y-102687333D01*
X222004000Y-102592095D01*
X222051619Y-102544476D01*
X222146857Y-102496857D01*
X222289714Y-102496857D01*
X222384952Y-102544476D01*
X222432571Y-102592095D01*
X222480190Y-102687333D01*
X222480190Y-103068286D01*
X221956381Y-102163524D02*
X221956381Y-101544476D01*
X222337333Y-101877810D01*
X222337333Y-101734952D01*
X222384952Y-101639714D01*
X222432571Y-101592095D01*
X222527810Y-101544476D01*
X222765905Y-101544476D01*
X222861143Y-101592095D01*
X222908762Y-101639714D01*
X222956381Y-101734952D01*
X222956381Y-102020667D01*
X222908762Y-102115905D01*
X222861143Y-102163524D01*
X221956381Y-100925429D02*
X221956381Y-100830190D01*
X222004000Y-100734952D01*
X222051619Y-100687333D01*
X222146857Y-100639714D01*
X222337333Y-100592095D01*
X222575429Y-100592095D01*
X222765905Y-100639714D01*
X222861143Y-100687333D01*
X222908762Y-100734952D01*
X222956381Y-100830190D01*
X222956381Y-100925429D01*
X222908762Y-101020667D01*
X222861143Y-101068286D01*
X222765905Y-101115905D01*
X222575429Y-101163524D01*
X222337333Y-101163524D01*
X222146857Y-101115905D01*
X222051619Y-101068286D01*
X222004000Y-101020667D01*
X221956381Y-100925429D01*
X184857143Y-112052381D02*
X184523809Y-111576190D01*
X184285714Y-112052381D02*
X184285714Y-111052381D01*
X184666667Y-111052381D01*
X184761905Y-111100000D01*
X184809524Y-111147619D01*
X184857143Y-111242857D01*
X184857143Y-111385714D01*
X184809524Y-111480952D01*
X184761905Y-111528571D01*
X184666667Y-111576190D01*
X184285714Y-111576190D01*
X185190476Y-111052381D02*
X185809524Y-111052381D01*
X185476190Y-111433333D01*
X185619048Y-111433333D01*
X185714286Y-111480952D01*
X185761905Y-111528571D01*
X185809524Y-111623810D01*
X185809524Y-111861905D01*
X185761905Y-111957143D01*
X185714286Y-112004762D01*
X185619048Y-112052381D01*
X185333333Y-112052381D01*
X185238095Y-112004762D01*
X185190476Y-111957143D01*
X186761905Y-112052381D02*
X186190476Y-112052381D01*
X186476190Y-112052381D02*
X186476190Y-111052381D01*
X186380952Y-111195238D01*
X186285714Y-111290476D01*
X186190476Y-111338095D01*
X222956381Y-93860857D02*
X222480190Y-94194191D01*
X222956381Y-94432286D02*
X221956381Y-94432286D01*
X221956381Y-94051333D01*
X222004000Y-93956095D01*
X222051619Y-93908476D01*
X222146857Y-93860857D01*
X222289714Y-93860857D01*
X222384952Y-93908476D01*
X222432571Y-93956095D01*
X222480190Y-94051333D01*
X222480190Y-94432286D01*
X221956381Y-93527524D02*
X221956381Y-92908476D01*
X222337333Y-93241810D01*
X222337333Y-93098952D01*
X222384952Y-93003714D01*
X222432571Y-92956095D01*
X222527810Y-92908476D01*
X222765905Y-92908476D01*
X222861143Y-92956095D01*
X222908762Y-93003714D01*
X222956381Y-93098952D01*
X222956381Y-93384667D01*
X222908762Y-93479905D01*
X222861143Y-93527524D01*
X222051619Y-92527524D02*
X222004000Y-92479905D01*
X221956381Y-92384667D01*
X221956381Y-92146571D01*
X222004000Y-92051333D01*
X222051619Y-92003714D01*
X222146857Y-91956095D01*
X222242095Y-91956095D01*
X222384952Y-92003714D01*
X222956381Y-92575143D01*
X222956381Y-91956095D01*
X184777143Y-118054381D02*
X184443809Y-117578190D01*
X184205714Y-118054381D02*
X184205714Y-117054381D01*
X184586667Y-117054381D01*
X184681905Y-117102000D01*
X184729524Y-117149619D01*
X184777143Y-117244857D01*
X184777143Y-117387714D01*
X184729524Y-117482952D01*
X184681905Y-117530571D01*
X184586667Y-117578190D01*
X184205714Y-117578190D01*
X185110476Y-117054381D02*
X185729524Y-117054381D01*
X185396190Y-117435333D01*
X185539048Y-117435333D01*
X185634286Y-117482952D01*
X185681905Y-117530571D01*
X185729524Y-117625810D01*
X185729524Y-117863905D01*
X185681905Y-117959143D01*
X185634286Y-118006762D01*
X185539048Y-118054381D01*
X185253333Y-118054381D01*
X185158095Y-118006762D01*
X185110476Y-117959143D01*
X186062857Y-117054381D02*
X186681905Y-117054381D01*
X186348571Y-117435333D01*
X186491429Y-117435333D01*
X186586667Y-117482952D01*
X186634286Y-117530571D01*
X186681905Y-117625810D01*
X186681905Y-117863905D01*
X186634286Y-117959143D01*
X186586667Y-118006762D01*
X186491429Y-118054381D01*
X186205714Y-118054381D01*
X186110476Y-118006762D01*
X186062857Y-117959143D01*
X222956381Y-85732857D02*
X222480190Y-86066191D01*
X222956381Y-86304286D02*
X221956381Y-86304286D01*
X221956381Y-85923333D01*
X222004000Y-85828095D01*
X222051619Y-85780476D01*
X222146857Y-85732857D01*
X222289714Y-85732857D01*
X222384952Y-85780476D01*
X222432571Y-85828095D01*
X222480190Y-85923333D01*
X222480190Y-86304286D01*
X221956381Y-85399524D02*
X221956381Y-84780476D01*
X222337333Y-85113810D01*
X222337333Y-84970952D01*
X222384952Y-84875714D01*
X222432571Y-84828095D01*
X222527810Y-84780476D01*
X222765905Y-84780476D01*
X222861143Y-84828095D01*
X222908762Y-84875714D01*
X222956381Y-84970952D01*
X222956381Y-85256667D01*
X222908762Y-85351905D01*
X222861143Y-85399524D01*
X222289714Y-83923333D02*
X222956381Y-83923333D01*
X221908762Y-84161429D02*
X222623048Y-84399524D01*
X222623048Y-83780476D01*
X184777143Y-120086381D02*
X184443809Y-119610190D01*
X184205714Y-120086381D02*
X184205714Y-119086381D01*
X184586667Y-119086381D01*
X184681905Y-119134000D01*
X184729524Y-119181619D01*
X184777143Y-119276857D01*
X184777143Y-119419714D01*
X184729524Y-119514952D01*
X184681905Y-119562571D01*
X184586667Y-119610190D01*
X184205714Y-119610190D01*
X185110476Y-119086381D02*
X185729524Y-119086381D01*
X185396190Y-119467333D01*
X185539048Y-119467333D01*
X185634286Y-119514952D01*
X185681905Y-119562571D01*
X185729524Y-119657810D01*
X185729524Y-119895905D01*
X185681905Y-119991143D01*
X185634286Y-120038762D01*
X185539048Y-120086381D01*
X185253333Y-120086381D01*
X185158095Y-120038762D01*
X185110476Y-119991143D01*
X186634286Y-119086381D02*
X186158095Y-119086381D01*
X186110476Y-119562571D01*
X186158095Y-119514952D01*
X186253333Y-119467333D01*
X186491429Y-119467333D01*
X186586667Y-119514952D01*
X186634286Y-119562571D01*
X186681905Y-119657810D01*
X186681905Y-119895905D01*
X186634286Y-119991143D01*
X186586667Y-120038762D01*
X186491429Y-120086381D01*
X186253333Y-120086381D01*
X186158095Y-120038762D01*
X186110476Y-119991143D01*
X222956381Y-77096857D02*
X222480190Y-77430191D01*
X222956381Y-77668286D02*
X221956381Y-77668286D01*
X221956381Y-77287333D01*
X222004000Y-77192095D01*
X222051619Y-77144476D01*
X222146857Y-77096857D01*
X222289714Y-77096857D01*
X222384952Y-77144476D01*
X222432571Y-77192095D01*
X222480190Y-77287333D01*
X222480190Y-77668286D01*
X221956381Y-76763524D02*
X221956381Y-76144476D01*
X222337333Y-76477810D01*
X222337333Y-76334952D01*
X222384952Y-76239714D01*
X222432571Y-76192095D01*
X222527810Y-76144476D01*
X222765905Y-76144476D01*
X222861143Y-76192095D01*
X222908762Y-76239714D01*
X222956381Y-76334952D01*
X222956381Y-76620667D01*
X222908762Y-76715905D01*
X222861143Y-76763524D01*
X221956381Y-75287333D02*
X221956381Y-75477810D01*
X222004000Y-75573048D01*
X222051619Y-75620667D01*
X222194476Y-75715905D01*
X222384952Y-75763524D01*
X222765905Y-75763524D01*
X222861143Y-75715905D01*
X222908762Y-75668286D01*
X222956381Y-75573048D01*
X222956381Y-75382571D01*
X222908762Y-75287333D01*
X222861143Y-75239714D01*
X222765905Y-75192095D01*
X222527810Y-75192095D01*
X222432571Y-75239714D01*
X222384952Y-75287333D01*
X222337333Y-75382571D01*
X222337333Y-75573048D01*
X222384952Y-75668286D01*
X222432571Y-75715905D01*
X222527810Y-75763524D01*
X184269143Y-126436381D02*
X183935809Y-125960190D01*
X183697714Y-126436381D02*
X183697714Y-125436381D01*
X184078667Y-125436381D01*
X184173905Y-125484000D01*
X184221524Y-125531619D01*
X184269143Y-125626857D01*
X184269143Y-125769714D01*
X184221524Y-125864952D01*
X184173905Y-125912571D01*
X184078667Y-125960190D01*
X183697714Y-125960190D01*
X184602476Y-125436381D02*
X185221524Y-125436381D01*
X184888190Y-125817333D01*
X185031048Y-125817333D01*
X185126286Y-125864952D01*
X185173905Y-125912571D01*
X185221524Y-126007810D01*
X185221524Y-126245905D01*
X185173905Y-126341143D01*
X185126286Y-126388762D01*
X185031048Y-126436381D01*
X184745333Y-126436381D01*
X184650095Y-126388762D01*
X184602476Y-126341143D01*
X185554857Y-125436381D02*
X186221524Y-125436381D01*
X185792952Y-126436381D01*
X222852381Y-68842857D02*
X222376190Y-69176191D01*
X222852381Y-69414286D02*
X221852381Y-69414286D01*
X221852381Y-69033333D01*
X221900000Y-68938095D01*
X221947619Y-68890476D01*
X222042857Y-68842857D01*
X222185714Y-68842857D01*
X222280952Y-68890476D01*
X222328571Y-68938095D01*
X222376190Y-69033333D01*
X222376190Y-69414286D01*
X221852381Y-68509524D02*
X221852381Y-67890476D01*
X222233333Y-68223810D01*
X222233333Y-68080952D01*
X222280952Y-67985714D01*
X222328571Y-67938095D01*
X222423810Y-67890476D01*
X222661905Y-67890476D01*
X222757143Y-67938095D01*
X222804762Y-67985714D01*
X222852381Y-68080952D01*
X222852381Y-68366667D01*
X222804762Y-68461905D01*
X222757143Y-68509524D01*
X222280952Y-67319048D02*
X222233333Y-67414286D01*
X222185714Y-67461905D01*
X222090476Y-67509524D01*
X222042857Y-67509524D01*
X221947619Y-67461905D01*
X221900000Y-67414286D01*
X221852381Y-67319048D01*
X221852381Y-67128571D01*
X221900000Y-67033333D01*
X221947619Y-66985714D01*
X222042857Y-66938095D01*
X222090476Y-66938095D01*
X222185714Y-66985714D01*
X222233333Y-67033333D01*
X222280952Y-67128571D01*
X222280952Y-67319048D01*
X222328571Y-67414286D01*
X222376190Y-67461905D01*
X222471429Y-67509524D01*
X222661905Y-67509524D01*
X222757143Y-67461905D01*
X222804762Y-67414286D01*
X222852381Y-67319048D01*
X222852381Y-67128571D01*
X222804762Y-67033333D01*
X222757143Y-66985714D01*
X222661905Y-66938095D01*
X222471429Y-66938095D01*
X222376190Y-66985714D01*
X222328571Y-67033333D01*
X222280952Y-67128571D01*
X184269143Y-128214381D02*
X183935809Y-127738190D01*
X183697714Y-128214381D02*
X183697714Y-127214381D01*
X184078667Y-127214381D01*
X184173905Y-127262000D01*
X184221524Y-127309619D01*
X184269143Y-127404857D01*
X184269143Y-127547714D01*
X184221524Y-127642952D01*
X184173905Y-127690571D01*
X184078667Y-127738190D01*
X183697714Y-127738190D01*
X184602476Y-127214381D02*
X185221524Y-127214381D01*
X184888190Y-127595333D01*
X185031048Y-127595333D01*
X185126286Y-127642952D01*
X185173905Y-127690571D01*
X185221524Y-127785810D01*
X185221524Y-128023905D01*
X185173905Y-128119143D01*
X185126286Y-128166762D01*
X185031048Y-128214381D01*
X184745333Y-128214381D01*
X184650095Y-128166762D01*
X184602476Y-128119143D01*
X185697714Y-128214381D02*
X185888190Y-128214381D01*
X185983429Y-128166762D01*
X186031048Y-128119143D01*
X186126286Y-127976286D01*
X186173905Y-127785810D01*
X186173905Y-127404857D01*
X186126286Y-127309619D01*
X186078667Y-127262000D01*
X185983429Y-127214381D01*
X185792952Y-127214381D01*
X185697714Y-127262000D01*
X185650095Y-127309619D01*
X185602476Y-127404857D01*
X185602476Y-127642952D01*
X185650095Y-127738190D01*
X185697714Y-127785810D01*
X185792952Y-127833429D01*
X185983429Y-127833429D01*
X186078667Y-127785810D01*
X186126286Y-127738190D01*
X186173905Y-127642952D01*
X223210381Y-111132857D02*
X222734190Y-111466191D01*
X223210381Y-111704286D02*
X222210381Y-111704286D01*
X222210381Y-111323333D01*
X222258000Y-111228095D01*
X222305619Y-111180476D01*
X222400857Y-111132857D01*
X222543714Y-111132857D01*
X222638952Y-111180476D01*
X222686571Y-111228095D01*
X222734190Y-111323333D01*
X222734190Y-111704286D01*
X222543714Y-110275714D02*
X223210381Y-110275714D01*
X222162762Y-110513810D02*
X222877048Y-110751905D01*
X222877048Y-110132857D01*
X222210381Y-109561429D02*
X222210381Y-109466190D01*
X222258000Y-109370952D01*
X222305619Y-109323333D01*
X222400857Y-109275714D01*
X222591333Y-109228095D01*
X222829429Y-109228095D01*
X223019905Y-109275714D01*
X223115143Y-109323333D01*
X223162762Y-109370952D01*
X223210381Y-109466190D01*
X223210381Y-109561429D01*
X223162762Y-109656667D01*
X223115143Y-109704286D01*
X223019905Y-109751905D01*
X222829429Y-109799524D01*
X222591333Y-109799524D01*
X222400857Y-109751905D01*
X222305619Y-109704286D01*
X222258000Y-109656667D01*
X222210381Y-109561429D01*
X196322381Y-119361905D02*
X197131905Y-119361905D01*
X197227143Y-119314286D01*
X197274762Y-119266667D01*
X197322381Y-119171429D01*
X197322381Y-118980952D01*
X197274762Y-118885714D01*
X197227143Y-118838095D01*
X197131905Y-118790476D01*
X196322381Y-118790476D01*
X196417619Y-118361905D02*
X196370000Y-118314286D01*
X196322381Y-118219048D01*
X196322381Y-117980952D01*
X196370000Y-117885714D01*
X196417619Y-117838095D01*
X196512857Y-117790476D01*
X196608095Y-117790476D01*
X196750952Y-117838095D01*
X197322381Y-118409524D01*
X197322381Y-117790476D01*
X196322381Y-127161905D02*
X197131905Y-127161905D01*
X197227143Y-127114286D01*
X197274762Y-127066667D01*
X197322381Y-126971429D01*
X197322381Y-126780952D01*
X197274762Y-126685714D01*
X197227143Y-126638095D01*
X197131905Y-126590476D01*
X196322381Y-126590476D01*
X196655714Y-125685714D02*
X197322381Y-125685714D01*
X196274762Y-125923810D02*
X196989048Y-126161905D01*
X196989048Y-125542857D01*
X196322381Y-111361905D02*
X197131905Y-111361905D01*
X197227143Y-111314286D01*
X197274762Y-111266667D01*
X197322381Y-111171429D01*
X197322381Y-110980952D01*
X197274762Y-110885714D01*
X197227143Y-110838095D01*
X197131905Y-110790476D01*
X196322381Y-110790476D01*
X196322381Y-109838095D02*
X196322381Y-110314286D01*
X196798571Y-110361905D01*
X196750952Y-110314286D01*
X196703333Y-110219048D01*
X196703333Y-109980952D01*
X196750952Y-109885714D01*
X196798571Y-109838095D01*
X196893810Y-109790476D01*
X197131905Y-109790476D01*
X197227143Y-109838095D01*
X197274762Y-109885714D01*
X197322381Y-109980952D01*
X197322381Y-110219048D01*
X197274762Y-110314286D01*
X197227143Y-110361905D01*
X243704762Y-63497619D02*
X243609524Y-63450000D01*
X243514286Y-63354762D01*
X243371429Y-63211905D01*
X243276190Y-63164286D01*
X243180952Y-63164286D01*
X243228571Y-63402381D02*
X243133333Y-63354762D01*
X243038095Y-63259524D01*
X242990476Y-63069048D01*
X242990476Y-62735714D01*
X243038095Y-62545238D01*
X243133333Y-62450000D01*
X243228571Y-62402381D01*
X243419048Y-62402381D01*
X243514286Y-62450000D01*
X243609524Y-62545238D01*
X243657143Y-62735714D01*
X243657143Y-63069048D01*
X243609524Y-63259524D01*
X243514286Y-63354762D01*
X243419048Y-63402381D01*
X243228571Y-63402381D01*
X244038095Y-62497619D02*
X244085714Y-62450000D01*
X244180952Y-62402381D01*
X244419048Y-62402381D01*
X244514286Y-62450000D01*
X244561905Y-62497619D01*
X244609524Y-62592857D01*
X244609524Y-62688095D01*
X244561905Y-62830952D01*
X243990476Y-63402381D01*
X244609524Y-63402381D01*
X243704762Y-55347619D02*
X243609524Y-55300000D01*
X243514286Y-55204762D01*
X243371429Y-55061905D01*
X243276190Y-55014286D01*
X243180952Y-55014286D01*
X243228571Y-55252381D02*
X243133333Y-55204762D01*
X243038095Y-55109524D01*
X242990476Y-54919048D01*
X242990476Y-54585714D01*
X243038095Y-54395238D01*
X243133333Y-54300000D01*
X243228571Y-54252381D01*
X243419048Y-54252381D01*
X243514286Y-54300000D01*
X243609524Y-54395238D01*
X243657143Y-54585714D01*
X243657143Y-54919048D01*
X243609524Y-55109524D01*
X243514286Y-55204762D01*
X243419048Y-55252381D01*
X243228571Y-55252381D01*
X244514286Y-54585714D02*
X244514286Y-55252381D01*
X244276190Y-54204762D02*
X244038095Y-54919048D01*
X244657143Y-54919048D01*
X243754762Y-72352619D02*
X243659524Y-72305000D01*
X243564286Y-72209762D01*
X243421429Y-72066905D01*
X243326190Y-72019286D01*
X243230952Y-72019286D01*
X243278571Y-72257381D02*
X243183333Y-72209762D01*
X243088095Y-72114524D01*
X243040476Y-71924048D01*
X243040476Y-71590714D01*
X243088095Y-71400238D01*
X243183333Y-71305000D01*
X243278571Y-71257381D01*
X243469048Y-71257381D01*
X243564286Y-71305000D01*
X243659524Y-71400238D01*
X243707143Y-71590714D01*
X243707143Y-71924048D01*
X243659524Y-72114524D01*
X243564286Y-72209762D01*
X243469048Y-72257381D01*
X243278571Y-72257381D01*
X244564286Y-71257381D02*
X244373809Y-71257381D01*
X244278571Y-71305000D01*
X244230952Y-71352619D01*
X244135714Y-71495476D01*
X244088095Y-71685952D01*
X244088095Y-72066905D01*
X244135714Y-72162143D01*
X244183333Y-72209762D01*
X244278571Y-72257381D01*
X244469048Y-72257381D01*
X244564286Y-72209762D01*
X244611905Y-72162143D01*
X244659524Y-72066905D01*
X244659524Y-71828810D01*
X244611905Y-71733571D01*
X244564286Y-71685952D01*
X244469048Y-71638333D01*
X244278571Y-71638333D01*
X244183333Y-71685952D01*
X244135714Y-71733571D01*
X244088095Y-71828810D01*
X243744762Y-89193619D02*
X243649524Y-89146000D01*
X243554286Y-89050762D01*
X243411429Y-88907905D01*
X243316190Y-88860286D01*
X243220952Y-88860286D01*
X243268571Y-89098381D02*
X243173333Y-89050762D01*
X243078095Y-88955524D01*
X243030476Y-88765048D01*
X243030476Y-88431714D01*
X243078095Y-88241238D01*
X243173333Y-88146000D01*
X243268571Y-88098381D01*
X243459048Y-88098381D01*
X243554286Y-88146000D01*
X243649524Y-88241238D01*
X243697143Y-88431714D01*
X243697143Y-88765048D01*
X243649524Y-88955524D01*
X243554286Y-89050762D01*
X243459048Y-89098381D01*
X243268571Y-89098381D01*
X244268571Y-88526952D02*
X244173333Y-88479333D01*
X244125714Y-88431714D01*
X244078095Y-88336476D01*
X244078095Y-88288857D01*
X244125714Y-88193619D01*
X244173333Y-88146000D01*
X244268571Y-88098381D01*
X244459048Y-88098381D01*
X244554286Y-88146000D01*
X244601905Y-88193619D01*
X244649524Y-88288857D01*
X244649524Y-88336476D01*
X244601905Y-88431714D01*
X244554286Y-88479333D01*
X244459048Y-88526952D01*
X244268571Y-88526952D01*
X244173333Y-88574571D01*
X244125714Y-88622190D01*
X244078095Y-88717429D01*
X244078095Y-88907905D01*
X244125714Y-89003143D01*
X244173333Y-89050762D01*
X244268571Y-89098381D01*
X244459048Y-89098381D01*
X244554286Y-89050762D01*
X244601905Y-89003143D01*
X244649524Y-88907905D01*
X244649524Y-88717429D01*
X244601905Y-88622190D01*
X244554286Y-88574571D01*
X244459048Y-88526952D01*
X243522572Y-106465619D02*
X243427334Y-106418000D01*
X243332096Y-106322762D01*
X243189239Y-106179905D01*
X243094000Y-106132286D01*
X242998762Y-106132286D01*
X243046381Y-106370381D02*
X242951143Y-106322762D01*
X242855905Y-106227524D01*
X242808286Y-106037048D01*
X242808286Y-105703714D01*
X242855905Y-105513238D01*
X242951143Y-105418000D01*
X243046381Y-105370381D01*
X243236858Y-105370381D01*
X243332096Y-105418000D01*
X243427334Y-105513238D01*
X243474953Y-105703714D01*
X243474953Y-106037048D01*
X243427334Y-106227524D01*
X243332096Y-106322762D01*
X243236858Y-106370381D01*
X243046381Y-106370381D01*
X244427334Y-106370381D02*
X243855905Y-106370381D01*
X244141619Y-106370381D02*
X244141619Y-105370381D01*
X244046381Y-105513238D01*
X243951143Y-105608476D01*
X243855905Y-105656095D01*
X245046381Y-105370381D02*
X245141620Y-105370381D01*
X245236858Y-105418000D01*
X245284477Y-105465619D01*
X245332096Y-105560857D01*
X245379715Y-105751333D01*
X245379715Y-105989429D01*
X245332096Y-106179905D01*
X245284477Y-106275143D01*
X245236858Y-106322762D01*
X245141620Y-106370381D01*
X245046381Y-106370381D01*
X244951143Y-106322762D01*
X244903524Y-106275143D01*
X244855905Y-106179905D01*
X244808286Y-105989429D01*
X244808286Y-105751333D01*
X244855905Y-105560857D01*
X244903524Y-105465619D01*
X244951143Y-105418000D01*
X245046381Y-105370381D01*
X243776572Y-81065619D02*
X243681334Y-81018000D01*
X243586096Y-80922762D01*
X243443239Y-80779905D01*
X243348000Y-80732286D01*
X243252762Y-80732286D01*
X243300381Y-80970381D02*
X243205143Y-80922762D01*
X243109905Y-80827524D01*
X243062286Y-80637048D01*
X243062286Y-80303714D01*
X243109905Y-80113238D01*
X243205143Y-80018000D01*
X243300381Y-79970381D01*
X243490858Y-79970381D01*
X243586096Y-80018000D01*
X243681334Y-80113238D01*
X243728953Y-80303714D01*
X243728953Y-80637048D01*
X243681334Y-80827524D01*
X243586096Y-80922762D01*
X243490858Y-80970381D01*
X243300381Y-80970381D01*
X244681334Y-80970381D02*
X244109905Y-80970381D01*
X244395619Y-80970381D02*
X244395619Y-79970381D01*
X244300381Y-80113238D01*
X244205143Y-80208476D01*
X244109905Y-80256095D01*
X245062286Y-80065619D02*
X245109905Y-80018000D01*
X245205143Y-79970381D01*
X245443239Y-79970381D01*
X245538477Y-80018000D01*
X245586096Y-80065619D01*
X245633715Y-80160857D01*
X245633715Y-80256095D01*
X245586096Y-80398952D01*
X245014667Y-80970381D01*
X245633715Y-80970381D01*
X243522572Y-97829619D02*
X243427334Y-97782000D01*
X243332096Y-97686762D01*
X243189239Y-97543905D01*
X243094000Y-97496286D01*
X242998762Y-97496286D01*
X243046381Y-97734381D02*
X242951143Y-97686762D01*
X242855905Y-97591524D01*
X242808286Y-97401048D01*
X242808286Y-97067714D01*
X242855905Y-96877238D01*
X242951143Y-96782000D01*
X243046381Y-96734381D01*
X243236858Y-96734381D01*
X243332096Y-96782000D01*
X243427334Y-96877238D01*
X243474953Y-97067714D01*
X243474953Y-97401048D01*
X243427334Y-97591524D01*
X243332096Y-97686762D01*
X243236858Y-97734381D01*
X243046381Y-97734381D01*
X244427334Y-97734381D02*
X243855905Y-97734381D01*
X244141619Y-97734381D02*
X244141619Y-96734381D01*
X244046381Y-96877238D01*
X243951143Y-96972476D01*
X243855905Y-97020095D01*
X245284477Y-97067714D02*
X245284477Y-97734381D01*
X245046381Y-96686762D02*
X244808286Y-97401048D01*
X245427334Y-97401048D01*
X222852381Y-59566666D02*
X222376190Y-59900000D01*
X222852381Y-60138095D02*
X221852381Y-60138095D01*
X221852381Y-59757142D01*
X221900000Y-59661904D01*
X221947619Y-59614285D01*
X222042857Y-59566666D01*
X222185714Y-59566666D01*
X222280952Y-59614285D01*
X222328571Y-59661904D01*
X222376190Y-59757142D01*
X222376190Y-60138095D01*
X221947619Y-59185714D02*
X221900000Y-59138095D01*
X221852381Y-59042857D01*
X221852381Y-58804761D01*
X221900000Y-58709523D01*
X221947619Y-58661904D01*
X222042857Y-58614285D01*
X222138095Y-58614285D01*
X222280952Y-58661904D01*
X222852381Y-59233333D01*
X222852381Y-58614285D01*
X213891905Y-70706381D02*
X213891905Y-69706381D01*
X214272858Y-69706381D01*
X214368096Y-69754000D01*
X214415715Y-69801619D01*
X214463334Y-69896857D01*
X214463334Y-70039714D01*
X214415715Y-70134952D01*
X214368096Y-70182571D01*
X214272858Y-70230190D01*
X213891905Y-70230190D01*
X214796667Y-69706381D02*
X215415715Y-69706381D01*
X215082381Y-70087333D01*
X215225239Y-70087333D01*
X215320477Y-70134952D01*
X215368096Y-70182571D01*
X215415715Y-70277810D01*
X215415715Y-70515905D01*
X215368096Y-70611143D01*
X215320477Y-70658762D01*
X215225239Y-70706381D01*
X214939524Y-70706381D01*
X214844286Y-70658762D01*
X214796667Y-70611143D01*
M02*
