G04 #@! TF.FileFunction,Soldermask,Bot*
%FSLAX46Y46*%
G04 Gerber Fmt 4.6, Leading zero omitted, Abs format (unit mm)*
G04 Created by KiCad (PCBNEW 4.0.5) date 03/07/17 20:24:02*
%MOMM*%
%LPD*%
G01*
G04 APERTURE LIST*
%ADD10C,0.100000*%
%ADD11C,6.400000*%
%ADD12C,3.400000*%
%ADD13C,2.300000*%
%ADD14R,2.100000X2.100000*%
%ADD15O,2.100000X2.100000*%
G04 APERTURE END LIST*
D10*
D11*
X180000000Y-153000000D03*
X180000000Y-55500000D03*
X253000000Y-55500000D03*
D12*
X251000000Y-70860000D03*
X251000000Y-74820000D03*
X251000000Y-78780000D03*
X251000000Y-82740000D03*
X251000000Y-86700000D03*
X251000000Y-90660000D03*
X251000000Y-94620000D03*
X251000000Y-98580000D03*
X251000000Y-102540000D03*
X251000000Y-106500000D03*
X251000000Y-110460000D03*
X251000000Y-114420000D03*
X251000000Y-118380000D03*
X251000000Y-122340000D03*
X251000000Y-126300000D03*
X251000000Y-130260000D03*
D13*
X208290000Y-80440000D03*
X208290000Y-77900000D03*
X208290000Y-75360000D03*
X208290000Y-72820000D03*
X208290000Y-70280000D03*
X208290000Y-67740000D03*
X208290000Y-65200000D03*
X208290000Y-62660000D03*
X208290000Y-60120000D03*
X208290000Y-57580000D03*
X208290000Y-55040000D03*
X208290000Y-52500000D03*
X190510000Y-80440000D03*
X190510000Y-77900000D03*
X190510000Y-75360000D03*
X190510000Y-72820000D03*
X190510000Y-70280000D03*
X190510000Y-67740000D03*
X190510000Y-65200000D03*
X190510000Y-62660000D03*
X190510000Y-60120000D03*
X190510000Y-57580000D03*
X190510000Y-55040000D03*
X190510000Y-52500000D03*
D12*
X223860000Y-140200000D03*
X227820000Y-140200000D03*
X231780000Y-140200000D03*
X235740000Y-140200000D03*
D11*
X253000000Y-153000000D03*
D14*
X214630000Y-72644000D03*
D15*
X214630000Y-75184000D03*
X214630000Y-77724000D03*
X214630000Y-80264000D03*
X214630000Y-82804000D03*
X214630000Y-85344000D03*
M02*
