M48
;DRILL file {KiCad 4.0.5} date Tuesday, March 07, 2017 'PMt' 04:19:20 PM
;FORMAT={-:-/ absolute / inch / decimal}
FMAT,2
INCH,TZ
T1C0.016
T2C0.040
T3C0.071
%
G90
G05
M72
T1
X7.4724Y-4.1811
X7.4724Y-4.4882
X7.4803Y-4.8189
X7.5354Y-5.1102
X7.7087Y-4.4488
X7.7087Y-4.7559
X7.8819Y-4.4488
X7.8819Y-4.7559
X7.9291Y-4.1969
X7.937Y-4.5118
X7.937Y-4.8031
X8.2155Y-4.646
X8.2205Y-3.8504
X8.2205Y-4.5197
X8.2205Y-4.5669
X8.2205Y-4.6063
X8.2362Y-4.6772
X8.252Y-4.4724
X8.685Y-2.1654
X8.6929Y-2.4961
X8.6929Y-2.8189
X8.6929Y-3.1575
X8.6929Y-3.4803
X8.6929Y-3.811
X8.6929Y-4.1417
X8.8031Y-2.2874
X8.811Y-2.6142
X8.811Y-2.9528
X8.811Y-3.2835
X8.811Y-3.6063
X8.811Y-3.9449
X8.811Y-4.2677
T2
X7.5004Y-2.0669
X7.5004Y-2.1669
X7.5004Y-2.2669
X7.5004Y-2.3669
X7.5004Y-2.4669
X7.5004Y-2.5669
X7.5004Y-2.6669
X7.5004Y-2.7669
X7.5004Y-2.8669
X7.5004Y-2.9669
X7.5004Y-3.0669
X7.5004Y-3.1669
X8.2004Y-2.0669
X8.2004Y-2.1669
X8.2004Y-2.2669
X8.2004Y-2.3669
X8.2004Y-2.4669
X8.2004Y-2.5669
X8.2004Y-2.6669
X8.2004Y-2.7669
X8.2004Y-2.8669
X8.2004Y-2.9669
X8.2004Y-3.0669
X8.2004Y-3.1669
T3
X8.8134Y-5.5197
X8.9693Y-5.5197
X9.1252Y-5.5197
X9.2811Y-5.5197
X9.8819Y-2.7898
X9.8819Y-2.9457
X9.8819Y-3.1016
X9.8819Y-3.2575
X9.8819Y-3.4134
X9.8819Y-3.5693
X9.8819Y-3.7252
X9.8819Y-3.8811
X9.8819Y-4.037
X9.8819Y-4.1929
X9.8819Y-4.3488
X9.8819Y-4.5047
X9.8819Y-4.6606
X9.8819Y-4.8165
X9.8819Y-4.9724
X9.8819Y-5.1283
T0
M30
