G04 #@! TF.FileFunction,Copper,L2,Bot,Signal*
%FSLAX46Y46*%
G04 Gerber Fmt 4.6, Leading zero omitted, Abs format (unit mm)*
G04 Created by KiCad (PCBNEW 4.0.5) date 03/07/17 20:24:02*
%MOMM*%
%LPD*%
G01*
G04 APERTURE LIST*
%ADD10C,0.100000*%
%ADD11C,3.000000*%
%ADD12C,1.900000*%
%ADD13R,1.700000X1.700000*%
%ADD14O,1.700000X1.700000*%
%ADD15C,0.700000*%
%ADD16C,3.000000*%
%ADD17C,0.250000*%
%ADD18C,0.254000*%
G04 APERTURE END LIST*
D10*
D11*
X251000000Y-70860000D03*
X251000000Y-74820000D03*
X251000000Y-78780000D03*
X251000000Y-82740000D03*
X251000000Y-86700000D03*
X251000000Y-90660000D03*
X251000000Y-94620000D03*
X251000000Y-98580000D03*
X251000000Y-102540000D03*
X251000000Y-106500000D03*
X251000000Y-110460000D03*
X251000000Y-114420000D03*
X251000000Y-118380000D03*
X251000000Y-122340000D03*
X251000000Y-126300000D03*
X251000000Y-130260000D03*
D12*
X208290000Y-80440000D03*
X208290000Y-77900000D03*
X208290000Y-75360000D03*
X208290000Y-72820000D03*
X208290000Y-70280000D03*
X208290000Y-67740000D03*
X208290000Y-65200000D03*
X208290000Y-62660000D03*
X208290000Y-60120000D03*
X208290000Y-57580000D03*
X208290000Y-55040000D03*
X208290000Y-52500000D03*
X190510000Y-80440000D03*
X190510000Y-77900000D03*
X190510000Y-75360000D03*
X190510000Y-72820000D03*
X190510000Y-70280000D03*
X190510000Y-67740000D03*
X190510000Y-65200000D03*
X190510000Y-62660000D03*
X190510000Y-60120000D03*
X190510000Y-57580000D03*
X190510000Y-55040000D03*
X190510000Y-52500000D03*
D11*
X223860000Y-140200000D03*
X227820000Y-140200000D03*
X231780000Y-140200000D03*
X235740000Y-140200000D03*
D13*
X214630000Y-72644000D03*
D14*
X214630000Y-75184000D03*
X214630000Y-77724000D03*
X214630000Y-80264000D03*
X214630000Y-82804000D03*
X214630000Y-85344000D03*
D15*
X223800000Y-91600000D03*
X223800000Y-100200000D03*
X223800000Y-108400000D03*
X223800000Y-83400000D03*
X223800000Y-75000000D03*
X223800000Y-66400000D03*
X223600000Y-58100000D03*
X208800000Y-97800000D03*
X201400000Y-106600000D03*
X201600000Y-114600000D03*
X189800000Y-106200000D03*
X189800000Y-114000000D03*
X191400000Y-129800000D03*
X201600000Y-122000000D03*
X190000000Y-122400000D03*
X220800000Y-63400000D03*
X195800000Y-120800000D03*
X200200000Y-120800000D03*
X195800000Y-113000000D03*
X200200000Y-113000000D03*
X220800000Y-96800000D03*
X220800000Y-80200000D03*
X220800000Y-105200000D03*
X220800000Y-71600000D03*
X220600000Y-55000000D03*
X209600000Y-113600000D03*
X208800000Y-114800000D03*
X208800000Y-116000000D03*
X208800000Y-117000000D03*
X208673029Y-118009543D03*
X209200000Y-118800000D03*
X220800000Y-88400000D03*
D16*
X251000000Y-126300000D02*
X243558680Y-126300000D01*
X243558680Y-126300000D02*
X231780000Y-138078680D01*
X231780000Y-138078680D02*
X231780000Y-140200000D01*
D17*
X220800000Y-63400000D02*
X220800000Y-56400000D01*
X220800000Y-56400000D02*
X219440000Y-55040000D01*
X219440000Y-55040000D02*
X208290000Y-55040000D01*
X200200000Y-120800000D02*
X195800000Y-120800000D01*
X200200000Y-113000000D02*
X195800000Y-113000000D01*
X208290000Y-65200000D02*
X213200000Y-65200000D01*
X213200000Y-65200000D02*
X218800000Y-70800000D01*
X218800000Y-70800000D02*
X218800000Y-94800000D01*
X218800000Y-94800000D02*
X220800000Y-96800000D01*
X220000000Y-70200000D02*
X220000000Y-79400000D01*
X220000000Y-79400000D02*
X220800000Y-80200000D01*
X209920000Y-60120000D02*
X220000000Y-70200000D01*
X208290000Y-60120000D02*
X209920000Y-60120000D01*
X218200000Y-71200000D02*
X218200000Y-102600000D01*
X218200000Y-102600000D02*
X220800000Y-105200000D01*
X214740000Y-67740000D02*
X218200000Y-71200000D01*
X208290000Y-67740000D02*
X214740000Y-67740000D01*
X208290000Y-57580000D02*
X220800000Y-70090000D01*
X220800000Y-70090000D02*
X220800000Y-71600000D01*
X220600000Y-55000000D02*
X220000000Y-54400000D01*
X210190000Y-54400000D02*
X208290000Y-52500000D01*
X220000000Y-54400000D02*
X210190000Y-54400000D01*
X248200000Y-108000000D02*
X248200000Y-101380000D01*
X248200000Y-101380000D02*
X251000000Y-98580000D01*
X241600000Y-114600000D02*
X248200000Y-108000000D01*
X210105026Y-114600000D02*
X241600000Y-114600000D01*
X209600000Y-113600000D02*
X209600000Y-114094974D01*
X209600000Y-114094974D02*
X210105026Y-114600000D01*
X249500001Y-104039999D02*
X251000000Y-102540000D01*
X248800000Y-104740000D02*
X249500001Y-104039999D01*
X248800000Y-108400000D02*
X248800000Y-104740000D01*
X242050001Y-115149999D02*
X248800000Y-108400000D01*
X209149999Y-115149999D02*
X242050001Y-115149999D01*
X208800000Y-114800000D02*
X209149999Y-115149999D01*
X242400000Y-116000000D02*
X249500001Y-108899999D01*
X249500001Y-108899999D02*
X249500001Y-107999999D01*
X249500001Y-107999999D02*
X251000000Y-106500000D01*
X208800000Y-116000000D02*
X242400000Y-116000000D01*
X208800000Y-117000000D02*
X244460000Y-117000000D01*
X244460000Y-117000000D02*
X251000000Y-110460000D01*
X209168003Y-118009543D02*
X208673029Y-118009543D01*
X249500001Y-115919999D02*
X247979910Y-115919999D01*
X247979910Y-115919999D02*
X245890366Y-118009543D01*
X245890366Y-118009543D02*
X209168003Y-118009543D01*
X251000000Y-114420000D02*
X249500001Y-115919999D01*
X209200000Y-118800000D02*
X245939909Y-118800000D01*
X249415010Y-120755010D02*
X251000000Y-122340000D01*
X245939909Y-118800000D02*
X247894919Y-120755010D01*
X247894919Y-120755010D02*
X249415010Y-120755010D01*
X219400000Y-70600000D02*
X219400000Y-87000000D01*
X219400000Y-87000000D02*
X220800000Y-88400000D01*
X211460000Y-62660000D02*
X219400000Y-70600000D01*
X208290000Y-62660000D02*
X211460000Y-62660000D01*
D18*
G36*
X191673000Y-51421545D02*
X191409003Y-51157086D01*
X190826659Y-50915276D01*
X190196107Y-50914725D01*
X189613343Y-51155519D01*
X189167086Y-51600997D01*
X188925276Y-52183341D01*
X188924725Y-52813893D01*
X189165519Y-53396657D01*
X189538471Y-53770261D01*
X189167086Y-54140997D01*
X188925276Y-54723341D01*
X188924725Y-55353893D01*
X189165519Y-55936657D01*
X189538471Y-56310261D01*
X189167086Y-56680997D01*
X188925276Y-57263341D01*
X188924725Y-57893893D01*
X189165519Y-58476657D01*
X189538471Y-58850261D01*
X189167086Y-59220997D01*
X188925276Y-59803341D01*
X188924725Y-60433893D01*
X189165519Y-61016657D01*
X189538471Y-61390261D01*
X189167086Y-61760997D01*
X188925276Y-62343341D01*
X188924725Y-62973893D01*
X189165519Y-63556657D01*
X189538471Y-63930261D01*
X189167086Y-64300997D01*
X188925276Y-64883341D01*
X188924725Y-65513893D01*
X189165519Y-66096657D01*
X189538471Y-66470261D01*
X189167086Y-66840997D01*
X188925276Y-67423341D01*
X188924725Y-68053893D01*
X189165519Y-68636657D01*
X189538471Y-69010261D01*
X189167086Y-69380997D01*
X188925276Y-69963341D01*
X188924725Y-70593893D01*
X189165519Y-71176657D01*
X189604211Y-71616116D01*
X189573255Y-71703650D01*
X190510000Y-72640395D01*
X191446745Y-71703650D01*
X191415593Y-71615561D01*
X191852914Y-71179003D01*
X192094724Y-70596659D01*
X192095275Y-69966107D01*
X191854481Y-69383343D01*
X191481529Y-69009739D01*
X191852914Y-68639003D01*
X192094724Y-68056659D01*
X192095275Y-67426107D01*
X191854481Y-66843343D01*
X191481529Y-66469739D01*
X191852914Y-66099003D01*
X192094724Y-65516659D01*
X192095275Y-64886107D01*
X191854481Y-64303343D01*
X191481529Y-63929739D01*
X191852914Y-63559003D01*
X192094724Y-62976659D01*
X192095275Y-62346107D01*
X191854481Y-61763343D01*
X191481529Y-61389739D01*
X191852914Y-61019003D01*
X192094724Y-60436659D01*
X192095275Y-59806107D01*
X191854481Y-59223343D01*
X191481529Y-58849739D01*
X191852914Y-58479003D01*
X192094724Y-57896659D01*
X192095275Y-57266107D01*
X191854481Y-56683343D01*
X191481529Y-56309739D01*
X191673000Y-56118603D01*
X191673000Y-56400000D01*
X191681685Y-56446159D01*
X191708965Y-56488553D01*
X191750590Y-56516994D01*
X191800000Y-56527000D01*
X207000000Y-56527000D01*
X207046159Y-56518315D01*
X207088553Y-56491035D01*
X207116994Y-56449410D01*
X207127000Y-56400000D01*
X207127000Y-56118455D01*
X207318471Y-56310261D01*
X206947086Y-56680997D01*
X206705276Y-57263341D01*
X206704725Y-57893893D01*
X206945519Y-58476657D01*
X207318471Y-58850261D01*
X206947086Y-59220997D01*
X206705276Y-59803341D01*
X206704725Y-60433893D01*
X206945519Y-61016657D01*
X207318471Y-61390261D01*
X206947086Y-61760997D01*
X206705276Y-62343341D01*
X206704725Y-62973893D01*
X206945519Y-63556657D01*
X207318471Y-63930261D01*
X206947086Y-64300997D01*
X206705276Y-64883341D01*
X206704725Y-65513893D01*
X206945519Y-66096657D01*
X207318471Y-66470261D01*
X206947086Y-66840997D01*
X206705276Y-67423341D01*
X206704725Y-68053893D01*
X206945519Y-68636657D01*
X207318471Y-69010261D01*
X206947086Y-69380997D01*
X206705276Y-69963341D01*
X206704725Y-70593893D01*
X206945519Y-71176657D01*
X207318471Y-71550261D01*
X206947086Y-71920997D01*
X206705276Y-72503341D01*
X206704725Y-73133893D01*
X206945519Y-73716657D01*
X207318471Y-74090261D01*
X206947086Y-74460997D01*
X206705276Y-75043341D01*
X206704725Y-75673893D01*
X206945519Y-76256657D01*
X207384211Y-76696116D01*
X207353255Y-76783650D01*
X208290000Y-77720395D01*
X209226745Y-76783650D01*
X209195593Y-76695561D01*
X209632914Y-76259003D01*
X209874724Y-75676659D01*
X209875154Y-75184000D01*
X213115907Y-75184000D01*
X213228946Y-75752285D01*
X213550853Y-76234054D01*
X213880026Y-76454000D01*
X213550853Y-76673946D01*
X213228946Y-77155715D01*
X213115907Y-77724000D01*
X213228946Y-78292285D01*
X213550853Y-78774054D01*
X213880026Y-78994000D01*
X213550853Y-79213946D01*
X213228946Y-79695715D01*
X213115907Y-80264000D01*
X213228946Y-80832285D01*
X213550853Y-81314054D01*
X213880026Y-81534000D01*
X213550853Y-81753946D01*
X213228946Y-82235715D01*
X213115907Y-82804000D01*
X213228946Y-83372285D01*
X213550853Y-83854054D01*
X213880026Y-84074000D01*
X213550853Y-84293946D01*
X213228946Y-84775715D01*
X213115907Y-85344000D01*
X213228946Y-85912285D01*
X213550853Y-86394054D01*
X214032622Y-86715961D01*
X214600907Y-86829000D01*
X214659093Y-86829000D01*
X215227378Y-86715961D01*
X215709147Y-86394054D01*
X216031054Y-85912285D01*
X216144093Y-85344000D01*
X216031054Y-84775715D01*
X215709147Y-84293946D01*
X215379974Y-84074000D01*
X215709147Y-83854054D01*
X216031054Y-83372285D01*
X216144093Y-82804000D01*
X216031054Y-82235715D01*
X215709147Y-81753946D01*
X215379974Y-81534000D01*
X215709147Y-81314054D01*
X216031054Y-80832285D01*
X216144093Y-80264000D01*
X216031054Y-79695715D01*
X215709147Y-79213946D01*
X215379974Y-78994000D01*
X215709147Y-78774054D01*
X216031054Y-78292285D01*
X216144093Y-77724000D01*
X216031054Y-77155715D01*
X215709147Y-76673946D01*
X215379974Y-76454000D01*
X215709147Y-76234054D01*
X216031054Y-75752285D01*
X216144093Y-75184000D01*
X216031054Y-74615715D01*
X215709147Y-74133946D01*
X215665223Y-74104597D01*
X215839698Y-74032327D01*
X216018327Y-73853699D01*
X216115000Y-73620310D01*
X216115000Y-72929750D01*
X215956250Y-72771000D01*
X214757000Y-72771000D01*
X214757000Y-72791000D01*
X214503000Y-72791000D01*
X214503000Y-72771000D01*
X213303750Y-72771000D01*
X213145000Y-72929750D01*
X213145000Y-73620310D01*
X213241673Y-73853699D01*
X213420302Y-74032327D01*
X213594777Y-74104597D01*
X213550853Y-74133946D01*
X213228946Y-74615715D01*
X213115907Y-75184000D01*
X209875154Y-75184000D01*
X209875275Y-75046107D01*
X209634481Y-74463343D01*
X209261529Y-74089739D01*
X209632914Y-73719003D01*
X209874724Y-73136659D01*
X209875275Y-72506107D01*
X209634481Y-71923343D01*
X209379275Y-71667690D01*
X213145000Y-71667690D01*
X213145000Y-72358250D01*
X213303750Y-72517000D01*
X214503000Y-72517000D01*
X214503000Y-71317750D01*
X214757000Y-71317750D01*
X214757000Y-72517000D01*
X215956250Y-72517000D01*
X216115000Y-72358250D01*
X216115000Y-71667690D01*
X216018327Y-71434301D01*
X215839698Y-71255673D01*
X215606309Y-71159000D01*
X214915750Y-71159000D01*
X214757000Y-71317750D01*
X214503000Y-71317750D01*
X214344250Y-71159000D01*
X213653691Y-71159000D01*
X213420302Y-71255673D01*
X213241673Y-71434301D01*
X213145000Y-71667690D01*
X209379275Y-71667690D01*
X209261529Y-71549739D01*
X209632914Y-71179003D01*
X209874724Y-70596659D01*
X209875275Y-69966107D01*
X209634481Y-69383343D01*
X209261529Y-69009739D01*
X209632914Y-68639003D01*
X209690633Y-68500000D01*
X214425198Y-68500000D01*
X217440000Y-71514802D01*
X217440000Y-102600000D01*
X217497852Y-102890839D01*
X217662599Y-103137401D01*
X219814922Y-105289724D01*
X219814830Y-105395069D01*
X219964471Y-105757229D01*
X220241314Y-106034555D01*
X220603212Y-106184828D01*
X220995069Y-106185170D01*
X221357229Y-106035529D01*
X221634555Y-105758686D01*
X221784828Y-105396788D01*
X221785170Y-105004931D01*
X221635529Y-104642771D01*
X221358686Y-104365445D01*
X220996788Y-104215172D01*
X220889881Y-104215079D01*
X218960000Y-102285198D01*
X218960000Y-96034802D01*
X219814922Y-96889724D01*
X219814830Y-96995069D01*
X219964471Y-97357229D01*
X220241314Y-97634555D01*
X220603212Y-97784828D01*
X220995069Y-97785170D01*
X221357229Y-97635529D01*
X221634555Y-97358686D01*
X221784828Y-96996788D01*
X221785170Y-96604931D01*
X221635529Y-96242771D01*
X221358686Y-95965445D01*
X220996788Y-95815172D01*
X220889881Y-95815079D01*
X219560000Y-94485198D01*
X219560000Y-88234802D01*
X219814922Y-88489724D01*
X219814830Y-88595069D01*
X219964471Y-88957229D01*
X220241314Y-89234555D01*
X220603212Y-89384828D01*
X220995069Y-89385170D01*
X221357229Y-89235529D01*
X221634555Y-88958686D01*
X221784828Y-88596788D01*
X221785170Y-88204931D01*
X221635529Y-87842771D01*
X221358686Y-87565445D01*
X220996788Y-87415172D01*
X220889881Y-87415079D01*
X220160000Y-86685198D01*
X220160000Y-80953099D01*
X220241314Y-81034555D01*
X220603212Y-81184828D01*
X220995069Y-81185170D01*
X221357229Y-81035529D01*
X221634555Y-80758686D01*
X221784828Y-80396788D01*
X221785170Y-80004931D01*
X221635529Y-79642771D01*
X221358686Y-79365445D01*
X220996788Y-79215172D01*
X220889881Y-79215079D01*
X220760000Y-79085198D01*
X220760000Y-72584965D01*
X220995069Y-72585170D01*
X221357229Y-72435529D01*
X221634555Y-72158686D01*
X221784828Y-71796788D01*
X221785170Y-71404931D01*
X221635529Y-71042771D01*
X221560000Y-70967110D01*
X221560000Y-70090000D01*
X221502148Y-69799161D01*
X221337401Y-69552599D01*
X209818020Y-58033218D01*
X209874724Y-57896659D01*
X209875275Y-57266107D01*
X209634481Y-56683343D01*
X209261529Y-56309739D01*
X209632914Y-55939003D01*
X209690633Y-55800000D01*
X219125198Y-55800000D01*
X220040000Y-56714802D01*
X220040000Y-62766889D01*
X219965445Y-62841314D01*
X219815172Y-63203212D01*
X219814830Y-63595069D01*
X219964471Y-63957229D01*
X220241314Y-64234555D01*
X220603212Y-64384828D01*
X220995069Y-64385170D01*
X221357229Y-64235529D01*
X221634555Y-63958686D01*
X221784828Y-63596788D01*
X221785170Y-63204931D01*
X221635529Y-62842771D01*
X221560000Y-62767110D01*
X221560000Y-56400000D01*
X221502148Y-56109161D01*
X221502148Y-56109160D01*
X221337401Y-55862599D01*
X221233847Y-55759045D01*
X221434555Y-55558686D01*
X221584828Y-55196788D01*
X221585170Y-54804931D01*
X221435529Y-54442771D01*
X221158686Y-54165445D01*
X220796788Y-54015172D01*
X220689881Y-54015079D01*
X220537401Y-53862599D01*
X220290839Y-53697852D01*
X220000000Y-53640000D01*
X210504802Y-53640000D01*
X209818020Y-52953218D01*
X209874724Y-52816659D01*
X209875275Y-52186107D01*
X209634481Y-51603343D01*
X209189003Y-51157086D01*
X208606659Y-50915276D01*
X207976107Y-50914725D01*
X207393343Y-51155519D01*
X207127000Y-51421397D01*
X207127000Y-50710000D01*
X246473000Y-50710000D01*
X246473000Y-58000000D01*
X246479865Y-58041189D01*
X246505354Y-58084683D01*
X249905354Y-61884683D01*
X249950590Y-61916994D01*
X250000000Y-61927000D01*
X257290000Y-61927000D01*
X257290000Y-146473000D01*
X246600000Y-146473000D01*
X246553841Y-146481685D01*
X246511447Y-146508965D01*
X246483006Y-146550590D01*
X246473000Y-146600000D01*
X246473000Y-157290000D01*
X186527000Y-157290000D01*
X186527000Y-146600000D01*
X186518315Y-146553841D01*
X186491035Y-146511447D01*
X186449410Y-146483006D01*
X186400000Y-146473000D01*
X175710000Y-146473000D01*
X175710000Y-120995069D01*
X194814830Y-120995069D01*
X194964471Y-121357229D01*
X195241314Y-121634555D01*
X195603212Y-121784828D01*
X195995069Y-121785170D01*
X196357229Y-121635529D01*
X196432890Y-121560000D01*
X199566889Y-121560000D01*
X199641314Y-121634555D01*
X200003212Y-121784828D01*
X200395069Y-121785170D01*
X200757229Y-121635529D01*
X201034555Y-121358686D01*
X201184828Y-120996788D01*
X201185170Y-120604931D01*
X201035529Y-120242771D01*
X200758686Y-119965445D01*
X200396788Y-119815172D01*
X200004931Y-119814830D01*
X199642771Y-119964471D01*
X199567110Y-120040000D01*
X196433111Y-120040000D01*
X196358686Y-119965445D01*
X195996788Y-119815172D01*
X195604931Y-119814830D01*
X195242771Y-119964471D01*
X194965445Y-120241314D01*
X194815172Y-120603212D01*
X194814830Y-120995069D01*
X175710000Y-120995069D01*
X175710000Y-118204612D01*
X207687859Y-118204612D01*
X207837500Y-118566772D01*
X208114343Y-118844098D01*
X208214925Y-118885863D01*
X208214830Y-118995069D01*
X208364471Y-119357229D01*
X208641314Y-119634555D01*
X209003212Y-119784828D01*
X209395069Y-119785170D01*
X209757229Y-119635529D01*
X209832890Y-119560000D01*
X245625107Y-119560000D01*
X247357518Y-121292411D01*
X247604080Y-121457158D01*
X247894919Y-121515010D01*
X249030823Y-121515010D01*
X248865372Y-121913459D01*
X248864630Y-122762815D01*
X249188980Y-123547800D01*
X249789041Y-124148909D01*
X249827792Y-124165000D01*
X243558680Y-124165000D01*
X242741651Y-124327517D01*
X242049007Y-124790327D01*
X230270327Y-136569007D01*
X229807517Y-137261651D01*
X229645000Y-138078680D01*
X229645000Y-139026034D01*
X229631020Y-138992200D01*
X229030959Y-138391091D01*
X228246541Y-138065372D01*
X227397185Y-138064630D01*
X226612200Y-138388980D01*
X226011091Y-138989041D01*
X225839982Y-139401118D01*
X225671020Y-138992200D01*
X225070959Y-138391091D01*
X224286541Y-138065372D01*
X223437185Y-138064630D01*
X222652200Y-138388980D01*
X222051091Y-138989041D01*
X221725372Y-139773459D01*
X221724630Y-140622815D01*
X222048980Y-141407800D01*
X222649041Y-142008909D01*
X223433459Y-142334628D01*
X224282815Y-142335370D01*
X225067800Y-142011020D01*
X225668909Y-141410959D01*
X225840018Y-140998882D01*
X226008980Y-141407800D01*
X226609041Y-142008909D01*
X227393459Y-142334628D01*
X228242815Y-142335370D01*
X229027800Y-142011020D01*
X229628909Y-141410959D01*
X229800018Y-140998882D01*
X229968980Y-141407800D01*
X230569041Y-142008909D01*
X231353459Y-142334628D01*
X232202815Y-142335370D01*
X232987800Y-142011020D01*
X233285368Y-141713970D01*
X234405635Y-141713970D01*
X234565418Y-142032739D01*
X235356187Y-142342723D01*
X236205387Y-142326497D01*
X236914582Y-142032739D01*
X237074365Y-141713970D01*
X235740000Y-140379605D01*
X234405635Y-141713970D01*
X233285368Y-141713970D01*
X233588909Y-141410959D01*
X233755825Y-141008982D01*
X233907261Y-141374582D01*
X234226030Y-141534365D01*
X235560395Y-140200000D01*
X235919605Y-140200000D01*
X237253970Y-141534365D01*
X237572739Y-141374582D01*
X237882723Y-140583813D01*
X237866497Y-139734613D01*
X237572739Y-139025418D01*
X237253970Y-138865635D01*
X235919605Y-140200000D01*
X235560395Y-140200000D01*
X235546253Y-140185858D01*
X235725858Y-140006253D01*
X235740000Y-140020395D01*
X237074365Y-138686030D01*
X236914582Y-138367261D01*
X236123813Y-138057277D01*
X235274613Y-138073503D01*
X234565418Y-138367261D01*
X234405636Y-138686028D01*
X234298817Y-138579209D01*
X241104056Y-131773970D01*
X249665635Y-131773970D01*
X249825418Y-132092739D01*
X250616187Y-132402723D01*
X251465387Y-132386497D01*
X252174582Y-132092739D01*
X252334365Y-131773970D01*
X251000000Y-130439605D01*
X249665635Y-131773970D01*
X241104056Y-131773970D01*
X243001839Y-129876187D01*
X248857277Y-129876187D01*
X248873503Y-130725387D01*
X249167261Y-131434582D01*
X249486030Y-131594365D01*
X250820395Y-130260000D01*
X251179605Y-130260000D01*
X252513970Y-131594365D01*
X252832739Y-131434582D01*
X253142723Y-130643813D01*
X253126497Y-129794613D01*
X252832739Y-129085418D01*
X252513970Y-128925635D01*
X251179605Y-130260000D01*
X250820395Y-130260000D01*
X249486030Y-128925635D01*
X249167261Y-129085418D01*
X248857277Y-129876187D01*
X243001839Y-129876187D01*
X244443026Y-128435000D01*
X249821539Y-128435000D01*
X249665635Y-128746030D01*
X251000000Y-130080395D01*
X252334365Y-128746030D01*
X252174582Y-128427261D01*
X251798878Y-128279984D01*
X252207800Y-128111020D01*
X252808909Y-127510959D01*
X253134628Y-126726541D01*
X253135370Y-125877185D01*
X252811020Y-125092200D01*
X252210959Y-124491091D01*
X251798882Y-124319982D01*
X252207800Y-124151020D01*
X252808909Y-123550959D01*
X253134628Y-122766541D01*
X253135370Y-121917185D01*
X252811020Y-121132200D01*
X252210959Y-120531091D01*
X251798882Y-120359982D01*
X252207800Y-120191020D01*
X252808909Y-119590959D01*
X253134628Y-118806541D01*
X253135370Y-117957185D01*
X252811020Y-117172200D01*
X252210959Y-116571091D01*
X251798882Y-116399982D01*
X252207800Y-116231020D01*
X252808909Y-115630959D01*
X253134628Y-114846541D01*
X253135370Y-113997185D01*
X252811020Y-113212200D01*
X252210959Y-112611091D01*
X251798882Y-112439982D01*
X252207800Y-112271020D01*
X252808909Y-111670959D01*
X253134628Y-110886541D01*
X253135370Y-110037185D01*
X252811020Y-109252200D01*
X252210959Y-108651091D01*
X251798882Y-108479982D01*
X252207800Y-108311020D01*
X252808909Y-107710959D01*
X253134628Y-106926541D01*
X253135370Y-106077185D01*
X252811020Y-105292200D01*
X252210959Y-104691091D01*
X251798882Y-104519982D01*
X252207800Y-104351020D01*
X252808909Y-103750959D01*
X253134628Y-102966541D01*
X253135370Y-102117185D01*
X252811020Y-101332200D01*
X252210959Y-100731091D01*
X251798882Y-100559982D01*
X252207800Y-100391020D01*
X252808909Y-99790959D01*
X253134628Y-99006541D01*
X253135370Y-98157185D01*
X252811020Y-97372200D01*
X252210959Y-96771091D01*
X251798882Y-96599982D01*
X252207800Y-96431020D01*
X252808909Y-95830959D01*
X253134628Y-95046541D01*
X253135370Y-94197185D01*
X252811020Y-93412200D01*
X252210959Y-92811091D01*
X251798882Y-92639982D01*
X252207800Y-92471020D01*
X252808909Y-91870959D01*
X253134628Y-91086541D01*
X253135370Y-90237185D01*
X252811020Y-89452200D01*
X252210959Y-88851091D01*
X251798882Y-88679982D01*
X252207800Y-88511020D01*
X252808909Y-87910959D01*
X253134628Y-87126541D01*
X253135370Y-86277185D01*
X252811020Y-85492200D01*
X252210959Y-84891091D01*
X251798882Y-84719982D01*
X252207800Y-84551020D01*
X252808909Y-83950959D01*
X253134628Y-83166541D01*
X253135370Y-82317185D01*
X252811020Y-81532200D01*
X252210959Y-80931091D01*
X251798882Y-80759982D01*
X252207800Y-80591020D01*
X252808909Y-79990959D01*
X253134628Y-79206541D01*
X253135370Y-78357185D01*
X252811020Y-77572200D01*
X252210959Y-76971091D01*
X251798882Y-76799982D01*
X252207800Y-76631020D01*
X252808909Y-76030959D01*
X253134628Y-75246541D01*
X253135370Y-74397185D01*
X252811020Y-73612200D01*
X252210959Y-73011091D01*
X251798882Y-72839982D01*
X252207800Y-72671020D01*
X252808909Y-72070959D01*
X253134628Y-71286541D01*
X253135370Y-70437185D01*
X252811020Y-69652200D01*
X252210959Y-69051091D01*
X251426541Y-68725372D01*
X250577185Y-68724630D01*
X249792200Y-69048980D01*
X249191091Y-69649041D01*
X248865372Y-70433459D01*
X248864630Y-71282815D01*
X249188980Y-72067800D01*
X249789041Y-72668909D01*
X250201118Y-72840018D01*
X249792200Y-73008980D01*
X249191091Y-73609041D01*
X248865372Y-74393459D01*
X248864630Y-75242815D01*
X249188980Y-76027800D01*
X249789041Y-76628909D01*
X250201118Y-76800018D01*
X249792200Y-76968980D01*
X249191091Y-77569041D01*
X248865372Y-78353459D01*
X248864630Y-79202815D01*
X249188980Y-79987800D01*
X249789041Y-80588909D01*
X250201118Y-80760018D01*
X249792200Y-80928980D01*
X249191091Y-81529041D01*
X248865372Y-82313459D01*
X248864630Y-83162815D01*
X249188980Y-83947800D01*
X249789041Y-84548909D01*
X250201118Y-84720018D01*
X249792200Y-84888980D01*
X249191091Y-85489041D01*
X248865372Y-86273459D01*
X248864630Y-87122815D01*
X249188980Y-87907800D01*
X249789041Y-88508909D01*
X250201118Y-88680018D01*
X249792200Y-88848980D01*
X249191091Y-89449041D01*
X248865372Y-90233459D01*
X248864630Y-91082815D01*
X249188980Y-91867800D01*
X249789041Y-92468909D01*
X250201118Y-92640018D01*
X249792200Y-92808980D01*
X249191091Y-93409041D01*
X248865372Y-94193459D01*
X248864630Y-95042815D01*
X249188980Y-95827800D01*
X249789041Y-96428909D01*
X250201118Y-96600018D01*
X249792200Y-96768980D01*
X249191091Y-97369041D01*
X248865372Y-98153459D01*
X248864630Y-99002815D01*
X249051098Y-99454100D01*
X247662599Y-100842599D01*
X247497852Y-101089161D01*
X247440000Y-101380000D01*
X247440000Y-107685198D01*
X241285198Y-113840000D01*
X210566885Y-113840000D01*
X210584828Y-113796788D01*
X210585170Y-113404931D01*
X210435529Y-113042771D01*
X210158686Y-112765445D01*
X209796788Y-112615172D01*
X209404931Y-112614830D01*
X209042771Y-112764471D01*
X208765445Y-113041314D01*
X208615172Y-113403212D01*
X208614830Y-113795069D01*
X208623002Y-113814846D01*
X208604931Y-113814830D01*
X208242771Y-113964471D01*
X207965445Y-114241314D01*
X207815172Y-114603212D01*
X207814830Y-114995069D01*
X207964471Y-115357229D01*
X208007000Y-115399832D01*
X207965445Y-115441314D01*
X207815172Y-115803212D01*
X207814830Y-116195069D01*
X207940950Y-116500304D01*
X207815172Y-116803212D01*
X207814830Y-117195069D01*
X207896560Y-117392872D01*
X207838474Y-117450857D01*
X207688201Y-117812755D01*
X207687859Y-118204612D01*
X175710000Y-118204612D01*
X175710000Y-113195069D01*
X194814830Y-113195069D01*
X194964471Y-113557229D01*
X195241314Y-113834555D01*
X195603212Y-113984828D01*
X195995069Y-113985170D01*
X196357229Y-113835529D01*
X196432890Y-113760000D01*
X199566889Y-113760000D01*
X199641314Y-113834555D01*
X200003212Y-113984828D01*
X200395069Y-113985170D01*
X200757229Y-113835529D01*
X201034555Y-113558686D01*
X201184828Y-113196788D01*
X201185170Y-112804931D01*
X201035529Y-112442771D01*
X200758686Y-112165445D01*
X200396788Y-112015172D01*
X200004931Y-112014830D01*
X199642771Y-112164471D01*
X199567110Y-112240000D01*
X196433111Y-112240000D01*
X196358686Y-112165445D01*
X195996788Y-112015172D01*
X195604931Y-112014830D01*
X195242771Y-112164471D01*
X194965445Y-112441314D01*
X194815172Y-112803212D01*
X194814830Y-113195069D01*
X175710000Y-113195069D01*
X175710000Y-75673893D01*
X188924725Y-75673893D01*
X189165519Y-76256657D01*
X189538471Y-76630261D01*
X189167086Y-77000997D01*
X188925276Y-77583341D01*
X188924725Y-78213893D01*
X189165519Y-78796657D01*
X189538471Y-79170261D01*
X189167086Y-79540997D01*
X188925276Y-80123341D01*
X188924725Y-80753893D01*
X189165519Y-81336657D01*
X189610997Y-81782914D01*
X190193341Y-82024724D01*
X190823893Y-82025275D01*
X191406657Y-81784481D01*
X191852914Y-81339003D01*
X192094724Y-80756659D01*
X192094726Y-80753893D01*
X206704725Y-80753893D01*
X206945519Y-81336657D01*
X207390997Y-81782914D01*
X207973341Y-82024724D01*
X208603893Y-82025275D01*
X209186657Y-81784481D01*
X209632914Y-81339003D01*
X209874724Y-80756659D01*
X209875275Y-80126107D01*
X209634481Y-79543343D01*
X209195789Y-79103884D01*
X209226745Y-79016350D01*
X208290000Y-78079605D01*
X207353255Y-79016350D01*
X207384407Y-79104439D01*
X206947086Y-79540997D01*
X206705276Y-80123341D01*
X206704725Y-80753893D01*
X192094726Y-80753893D01*
X192095275Y-80126107D01*
X191854481Y-79543343D01*
X191481529Y-79169739D01*
X191852914Y-78799003D01*
X192094724Y-78216659D01*
X192095221Y-77647398D01*
X206693812Y-77647398D01*
X206718648Y-78277461D01*
X206911981Y-78744208D01*
X207173650Y-78836745D01*
X208110395Y-77900000D01*
X208469605Y-77900000D01*
X209406350Y-78836745D01*
X209668019Y-78744208D01*
X209886188Y-78152602D01*
X209861352Y-77522539D01*
X209668019Y-77055792D01*
X209406350Y-76963255D01*
X208469605Y-77900000D01*
X208110395Y-77900000D01*
X207173650Y-76963255D01*
X206911981Y-77055792D01*
X206693812Y-77647398D01*
X192095221Y-77647398D01*
X192095275Y-77586107D01*
X191854481Y-77003343D01*
X191481529Y-76629739D01*
X191852914Y-76259003D01*
X192094724Y-75676659D01*
X192095275Y-75046107D01*
X191854481Y-74463343D01*
X191415789Y-74023884D01*
X191446745Y-73936350D01*
X190510000Y-72999605D01*
X189573255Y-73936350D01*
X189604407Y-74024439D01*
X189167086Y-74460997D01*
X188925276Y-75043341D01*
X188924725Y-75673893D01*
X175710000Y-75673893D01*
X175710000Y-72567398D01*
X188913812Y-72567398D01*
X188938648Y-73197461D01*
X189131981Y-73664208D01*
X189393650Y-73756745D01*
X190330395Y-72820000D01*
X190689605Y-72820000D01*
X191626350Y-73756745D01*
X191888019Y-73664208D01*
X192106188Y-73072602D01*
X192081352Y-72442539D01*
X191888019Y-71975792D01*
X191626350Y-71883255D01*
X190689605Y-72820000D01*
X190330395Y-72820000D01*
X189393650Y-71883255D01*
X189131981Y-71975792D01*
X188913812Y-72567398D01*
X175710000Y-72567398D01*
X175710000Y-62327000D01*
X181600000Y-62327000D01*
X181627305Y-62324030D01*
X181673408Y-62303635D01*
X186473408Y-58903635D01*
X186516994Y-58849410D01*
X186527000Y-58800000D01*
X186527000Y-50710000D01*
X191673000Y-50710000D01*
X191673000Y-51421545D01*
X191673000Y-51421545D01*
G37*
X191673000Y-51421545D02*
X191409003Y-51157086D01*
X190826659Y-50915276D01*
X190196107Y-50914725D01*
X189613343Y-51155519D01*
X189167086Y-51600997D01*
X188925276Y-52183341D01*
X188924725Y-52813893D01*
X189165519Y-53396657D01*
X189538471Y-53770261D01*
X189167086Y-54140997D01*
X188925276Y-54723341D01*
X188924725Y-55353893D01*
X189165519Y-55936657D01*
X189538471Y-56310261D01*
X189167086Y-56680997D01*
X188925276Y-57263341D01*
X188924725Y-57893893D01*
X189165519Y-58476657D01*
X189538471Y-58850261D01*
X189167086Y-59220997D01*
X188925276Y-59803341D01*
X188924725Y-60433893D01*
X189165519Y-61016657D01*
X189538471Y-61390261D01*
X189167086Y-61760997D01*
X188925276Y-62343341D01*
X188924725Y-62973893D01*
X189165519Y-63556657D01*
X189538471Y-63930261D01*
X189167086Y-64300997D01*
X188925276Y-64883341D01*
X188924725Y-65513893D01*
X189165519Y-66096657D01*
X189538471Y-66470261D01*
X189167086Y-66840997D01*
X188925276Y-67423341D01*
X188924725Y-68053893D01*
X189165519Y-68636657D01*
X189538471Y-69010261D01*
X189167086Y-69380997D01*
X188925276Y-69963341D01*
X188924725Y-70593893D01*
X189165519Y-71176657D01*
X189604211Y-71616116D01*
X189573255Y-71703650D01*
X190510000Y-72640395D01*
X191446745Y-71703650D01*
X191415593Y-71615561D01*
X191852914Y-71179003D01*
X192094724Y-70596659D01*
X192095275Y-69966107D01*
X191854481Y-69383343D01*
X191481529Y-69009739D01*
X191852914Y-68639003D01*
X192094724Y-68056659D01*
X192095275Y-67426107D01*
X191854481Y-66843343D01*
X191481529Y-66469739D01*
X191852914Y-66099003D01*
X192094724Y-65516659D01*
X192095275Y-64886107D01*
X191854481Y-64303343D01*
X191481529Y-63929739D01*
X191852914Y-63559003D01*
X192094724Y-62976659D01*
X192095275Y-62346107D01*
X191854481Y-61763343D01*
X191481529Y-61389739D01*
X191852914Y-61019003D01*
X192094724Y-60436659D01*
X192095275Y-59806107D01*
X191854481Y-59223343D01*
X191481529Y-58849739D01*
X191852914Y-58479003D01*
X192094724Y-57896659D01*
X192095275Y-57266107D01*
X191854481Y-56683343D01*
X191481529Y-56309739D01*
X191673000Y-56118603D01*
X191673000Y-56400000D01*
X191681685Y-56446159D01*
X191708965Y-56488553D01*
X191750590Y-56516994D01*
X191800000Y-56527000D01*
X207000000Y-56527000D01*
X207046159Y-56518315D01*
X207088553Y-56491035D01*
X207116994Y-56449410D01*
X207127000Y-56400000D01*
X207127000Y-56118455D01*
X207318471Y-56310261D01*
X206947086Y-56680997D01*
X206705276Y-57263341D01*
X206704725Y-57893893D01*
X206945519Y-58476657D01*
X207318471Y-58850261D01*
X206947086Y-59220997D01*
X206705276Y-59803341D01*
X206704725Y-60433893D01*
X206945519Y-61016657D01*
X207318471Y-61390261D01*
X206947086Y-61760997D01*
X206705276Y-62343341D01*
X206704725Y-62973893D01*
X206945519Y-63556657D01*
X207318471Y-63930261D01*
X206947086Y-64300997D01*
X206705276Y-64883341D01*
X206704725Y-65513893D01*
X206945519Y-66096657D01*
X207318471Y-66470261D01*
X206947086Y-66840997D01*
X206705276Y-67423341D01*
X206704725Y-68053893D01*
X206945519Y-68636657D01*
X207318471Y-69010261D01*
X206947086Y-69380997D01*
X206705276Y-69963341D01*
X206704725Y-70593893D01*
X206945519Y-71176657D01*
X207318471Y-71550261D01*
X206947086Y-71920997D01*
X206705276Y-72503341D01*
X206704725Y-73133893D01*
X206945519Y-73716657D01*
X207318471Y-74090261D01*
X206947086Y-74460997D01*
X206705276Y-75043341D01*
X206704725Y-75673893D01*
X206945519Y-76256657D01*
X207384211Y-76696116D01*
X207353255Y-76783650D01*
X208290000Y-77720395D01*
X209226745Y-76783650D01*
X209195593Y-76695561D01*
X209632914Y-76259003D01*
X209874724Y-75676659D01*
X209875154Y-75184000D01*
X213115907Y-75184000D01*
X213228946Y-75752285D01*
X213550853Y-76234054D01*
X213880026Y-76454000D01*
X213550853Y-76673946D01*
X213228946Y-77155715D01*
X213115907Y-77724000D01*
X213228946Y-78292285D01*
X213550853Y-78774054D01*
X213880026Y-78994000D01*
X213550853Y-79213946D01*
X213228946Y-79695715D01*
X213115907Y-80264000D01*
X213228946Y-80832285D01*
X213550853Y-81314054D01*
X213880026Y-81534000D01*
X213550853Y-81753946D01*
X213228946Y-82235715D01*
X213115907Y-82804000D01*
X213228946Y-83372285D01*
X213550853Y-83854054D01*
X213880026Y-84074000D01*
X213550853Y-84293946D01*
X213228946Y-84775715D01*
X213115907Y-85344000D01*
X213228946Y-85912285D01*
X213550853Y-86394054D01*
X214032622Y-86715961D01*
X214600907Y-86829000D01*
X214659093Y-86829000D01*
X215227378Y-86715961D01*
X215709147Y-86394054D01*
X216031054Y-85912285D01*
X216144093Y-85344000D01*
X216031054Y-84775715D01*
X215709147Y-84293946D01*
X215379974Y-84074000D01*
X215709147Y-83854054D01*
X216031054Y-83372285D01*
X216144093Y-82804000D01*
X216031054Y-82235715D01*
X215709147Y-81753946D01*
X215379974Y-81534000D01*
X215709147Y-81314054D01*
X216031054Y-80832285D01*
X216144093Y-80264000D01*
X216031054Y-79695715D01*
X215709147Y-79213946D01*
X215379974Y-78994000D01*
X215709147Y-78774054D01*
X216031054Y-78292285D01*
X216144093Y-77724000D01*
X216031054Y-77155715D01*
X215709147Y-76673946D01*
X215379974Y-76454000D01*
X215709147Y-76234054D01*
X216031054Y-75752285D01*
X216144093Y-75184000D01*
X216031054Y-74615715D01*
X215709147Y-74133946D01*
X215665223Y-74104597D01*
X215839698Y-74032327D01*
X216018327Y-73853699D01*
X216115000Y-73620310D01*
X216115000Y-72929750D01*
X215956250Y-72771000D01*
X214757000Y-72771000D01*
X214757000Y-72791000D01*
X214503000Y-72791000D01*
X214503000Y-72771000D01*
X213303750Y-72771000D01*
X213145000Y-72929750D01*
X213145000Y-73620310D01*
X213241673Y-73853699D01*
X213420302Y-74032327D01*
X213594777Y-74104597D01*
X213550853Y-74133946D01*
X213228946Y-74615715D01*
X213115907Y-75184000D01*
X209875154Y-75184000D01*
X209875275Y-75046107D01*
X209634481Y-74463343D01*
X209261529Y-74089739D01*
X209632914Y-73719003D01*
X209874724Y-73136659D01*
X209875275Y-72506107D01*
X209634481Y-71923343D01*
X209379275Y-71667690D01*
X213145000Y-71667690D01*
X213145000Y-72358250D01*
X213303750Y-72517000D01*
X214503000Y-72517000D01*
X214503000Y-71317750D01*
X214757000Y-71317750D01*
X214757000Y-72517000D01*
X215956250Y-72517000D01*
X216115000Y-72358250D01*
X216115000Y-71667690D01*
X216018327Y-71434301D01*
X215839698Y-71255673D01*
X215606309Y-71159000D01*
X214915750Y-71159000D01*
X214757000Y-71317750D01*
X214503000Y-71317750D01*
X214344250Y-71159000D01*
X213653691Y-71159000D01*
X213420302Y-71255673D01*
X213241673Y-71434301D01*
X213145000Y-71667690D01*
X209379275Y-71667690D01*
X209261529Y-71549739D01*
X209632914Y-71179003D01*
X209874724Y-70596659D01*
X209875275Y-69966107D01*
X209634481Y-69383343D01*
X209261529Y-69009739D01*
X209632914Y-68639003D01*
X209690633Y-68500000D01*
X214425198Y-68500000D01*
X217440000Y-71514802D01*
X217440000Y-102600000D01*
X217497852Y-102890839D01*
X217662599Y-103137401D01*
X219814922Y-105289724D01*
X219814830Y-105395069D01*
X219964471Y-105757229D01*
X220241314Y-106034555D01*
X220603212Y-106184828D01*
X220995069Y-106185170D01*
X221357229Y-106035529D01*
X221634555Y-105758686D01*
X221784828Y-105396788D01*
X221785170Y-105004931D01*
X221635529Y-104642771D01*
X221358686Y-104365445D01*
X220996788Y-104215172D01*
X220889881Y-104215079D01*
X218960000Y-102285198D01*
X218960000Y-96034802D01*
X219814922Y-96889724D01*
X219814830Y-96995069D01*
X219964471Y-97357229D01*
X220241314Y-97634555D01*
X220603212Y-97784828D01*
X220995069Y-97785170D01*
X221357229Y-97635529D01*
X221634555Y-97358686D01*
X221784828Y-96996788D01*
X221785170Y-96604931D01*
X221635529Y-96242771D01*
X221358686Y-95965445D01*
X220996788Y-95815172D01*
X220889881Y-95815079D01*
X219560000Y-94485198D01*
X219560000Y-88234802D01*
X219814922Y-88489724D01*
X219814830Y-88595069D01*
X219964471Y-88957229D01*
X220241314Y-89234555D01*
X220603212Y-89384828D01*
X220995069Y-89385170D01*
X221357229Y-89235529D01*
X221634555Y-88958686D01*
X221784828Y-88596788D01*
X221785170Y-88204931D01*
X221635529Y-87842771D01*
X221358686Y-87565445D01*
X220996788Y-87415172D01*
X220889881Y-87415079D01*
X220160000Y-86685198D01*
X220160000Y-80953099D01*
X220241314Y-81034555D01*
X220603212Y-81184828D01*
X220995069Y-81185170D01*
X221357229Y-81035529D01*
X221634555Y-80758686D01*
X221784828Y-80396788D01*
X221785170Y-80004931D01*
X221635529Y-79642771D01*
X221358686Y-79365445D01*
X220996788Y-79215172D01*
X220889881Y-79215079D01*
X220760000Y-79085198D01*
X220760000Y-72584965D01*
X220995069Y-72585170D01*
X221357229Y-72435529D01*
X221634555Y-72158686D01*
X221784828Y-71796788D01*
X221785170Y-71404931D01*
X221635529Y-71042771D01*
X221560000Y-70967110D01*
X221560000Y-70090000D01*
X221502148Y-69799161D01*
X221337401Y-69552599D01*
X209818020Y-58033218D01*
X209874724Y-57896659D01*
X209875275Y-57266107D01*
X209634481Y-56683343D01*
X209261529Y-56309739D01*
X209632914Y-55939003D01*
X209690633Y-55800000D01*
X219125198Y-55800000D01*
X220040000Y-56714802D01*
X220040000Y-62766889D01*
X219965445Y-62841314D01*
X219815172Y-63203212D01*
X219814830Y-63595069D01*
X219964471Y-63957229D01*
X220241314Y-64234555D01*
X220603212Y-64384828D01*
X220995069Y-64385170D01*
X221357229Y-64235529D01*
X221634555Y-63958686D01*
X221784828Y-63596788D01*
X221785170Y-63204931D01*
X221635529Y-62842771D01*
X221560000Y-62767110D01*
X221560000Y-56400000D01*
X221502148Y-56109161D01*
X221502148Y-56109160D01*
X221337401Y-55862599D01*
X221233847Y-55759045D01*
X221434555Y-55558686D01*
X221584828Y-55196788D01*
X221585170Y-54804931D01*
X221435529Y-54442771D01*
X221158686Y-54165445D01*
X220796788Y-54015172D01*
X220689881Y-54015079D01*
X220537401Y-53862599D01*
X220290839Y-53697852D01*
X220000000Y-53640000D01*
X210504802Y-53640000D01*
X209818020Y-52953218D01*
X209874724Y-52816659D01*
X209875275Y-52186107D01*
X209634481Y-51603343D01*
X209189003Y-51157086D01*
X208606659Y-50915276D01*
X207976107Y-50914725D01*
X207393343Y-51155519D01*
X207127000Y-51421397D01*
X207127000Y-50710000D01*
X246473000Y-50710000D01*
X246473000Y-58000000D01*
X246479865Y-58041189D01*
X246505354Y-58084683D01*
X249905354Y-61884683D01*
X249950590Y-61916994D01*
X250000000Y-61927000D01*
X257290000Y-61927000D01*
X257290000Y-146473000D01*
X246600000Y-146473000D01*
X246553841Y-146481685D01*
X246511447Y-146508965D01*
X246483006Y-146550590D01*
X246473000Y-146600000D01*
X246473000Y-157290000D01*
X186527000Y-157290000D01*
X186527000Y-146600000D01*
X186518315Y-146553841D01*
X186491035Y-146511447D01*
X186449410Y-146483006D01*
X186400000Y-146473000D01*
X175710000Y-146473000D01*
X175710000Y-120995069D01*
X194814830Y-120995069D01*
X194964471Y-121357229D01*
X195241314Y-121634555D01*
X195603212Y-121784828D01*
X195995069Y-121785170D01*
X196357229Y-121635529D01*
X196432890Y-121560000D01*
X199566889Y-121560000D01*
X199641314Y-121634555D01*
X200003212Y-121784828D01*
X200395069Y-121785170D01*
X200757229Y-121635529D01*
X201034555Y-121358686D01*
X201184828Y-120996788D01*
X201185170Y-120604931D01*
X201035529Y-120242771D01*
X200758686Y-119965445D01*
X200396788Y-119815172D01*
X200004931Y-119814830D01*
X199642771Y-119964471D01*
X199567110Y-120040000D01*
X196433111Y-120040000D01*
X196358686Y-119965445D01*
X195996788Y-119815172D01*
X195604931Y-119814830D01*
X195242771Y-119964471D01*
X194965445Y-120241314D01*
X194815172Y-120603212D01*
X194814830Y-120995069D01*
X175710000Y-120995069D01*
X175710000Y-118204612D01*
X207687859Y-118204612D01*
X207837500Y-118566772D01*
X208114343Y-118844098D01*
X208214925Y-118885863D01*
X208214830Y-118995069D01*
X208364471Y-119357229D01*
X208641314Y-119634555D01*
X209003212Y-119784828D01*
X209395069Y-119785170D01*
X209757229Y-119635529D01*
X209832890Y-119560000D01*
X245625107Y-119560000D01*
X247357518Y-121292411D01*
X247604080Y-121457158D01*
X247894919Y-121515010D01*
X249030823Y-121515010D01*
X248865372Y-121913459D01*
X248864630Y-122762815D01*
X249188980Y-123547800D01*
X249789041Y-124148909D01*
X249827792Y-124165000D01*
X243558680Y-124165000D01*
X242741651Y-124327517D01*
X242049007Y-124790327D01*
X230270327Y-136569007D01*
X229807517Y-137261651D01*
X229645000Y-138078680D01*
X229645000Y-139026034D01*
X229631020Y-138992200D01*
X229030959Y-138391091D01*
X228246541Y-138065372D01*
X227397185Y-138064630D01*
X226612200Y-138388980D01*
X226011091Y-138989041D01*
X225839982Y-139401118D01*
X225671020Y-138992200D01*
X225070959Y-138391091D01*
X224286541Y-138065372D01*
X223437185Y-138064630D01*
X222652200Y-138388980D01*
X222051091Y-138989041D01*
X221725372Y-139773459D01*
X221724630Y-140622815D01*
X222048980Y-141407800D01*
X222649041Y-142008909D01*
X223433459Y-142334628D01*
X224282815Y-142335370D01*
X225067800Y-142011020D01*
X225668909Y-141410959D01*
X225840018Y-140998882D01*
X226008980Y-141407800D01*
X226609041Y-142008909D01*
X227393459Y-142334628D01*
X228242815Y-142335370D01*
X229027800Y-142011020D01*
X229628909Y-141410959D01*
X229800018Y-140998882D01*
X229968980Y-141407800D01*
X230569041Y-142008909D01*
X231353459Y-142334628D01*
X232202815Y-142335370D01*
X232987800Y-142011020D01*
X233285368Y-141713970D01*
X234405635Y-141713970D01*
X234565418Y-142032739D01*
X235356187Y-142342723D01*
X236205387Y-142326497D01*
X236914582Y-142032739D01*
X237074365Y-141713970D01*
X235740000Y-140379605D01*
X234405635Y-141713970D01*
X233285368Y-141713970D01*
X233588909Y-141410959D01*
X233755825Y-141008982D01*
X233907261Y-141374582D01*
X234226030Y-141534365D01*
X235560395Y-140200000D01*
X235919605Y-140200000D01*
X237253970Y-141534365D01*
X237572739Y-141374582D01*
X237882723Y-140583813D01*
X237866497Y-139734613D01*
X237572739Y-139025418D01*
X237253970Y-138865635D01*
X235919605Y-140200000D01*
X235560395Y-140200000D01*
X235546253Y-140185858D01*
X235725858Y-140006253D01*
X235740000Y-140020395D01*
X237074365Y-138686030D01*
X236914582Y-138367261D01*
X236123813Y-138057277D01*
X235274613Y-138073503D01*
X234565418Y-138367261D01*
X234405636Y-138686028D01*
X234298817Y-138579209D01*
X241104056Y-131773970D01*
X249665635Y-131773970D01*
X249825418Y-132092739D01*
X250616187Y-132402723D01*
X251465387Y-132386497D01*
X252174582Y-132092739D01*
X252334365Y-131773970D01*
X251000000Y-130439605D01*
X249665635Y-131773970D01*
X241104056Y-131773970D01*
X243001839Y-129876187D01*
X248857277Y-129876187D01*
X248873503Y-130725387D01*
X249167261Y-131434582D01*
X249486030Y-131594365D01*
X250820395Y-130260000D01*
X251179605Y-130260000D01*
X252513970Y-131594365D01*
X252832739Y-131434582D01*
X253142723Y-130643813D01*
X253126497Y-129794613D01*
X252832739Y-129085418D01*
X252513970Y-128925635D01*
X251179605Y-130260000D01*
X250820395Y-130260000D01*
X249486030Y-128925635D01*
X249167261Y-129085418D01*
X248857277Y-129876187D01*
X243001839Y-129876187D01*
X244443026Y-128435000D01*
X249821539Y-128435000D01*
X249665635Y-128746030D01*
X251000000Y-130080395D01*
X252334365Y-128746030D01*
X252174582Y-128427261D01*
X251798878Y-128279984D01*
X252207800Y-128111020D01*
X252808909Y-127510959D01*
X253134628Y-126726541D01*
X253135370Y-125877185D01*
X252811020Y-125092200D01*
X252210959Y-124491091D01*
X251798882Y-124319982D01*
X252207800Y-124151020D01*
X252808909Y-123550959D01*
X253134628Y-122766541D01*
X253135370Y-121917185D01*
X252811020Y-121132200D01*
X252210959Y-120531091D01*
X251798882Y-120359982D01*
X252207800Y-120191020D01*
X252808909Y-119590959D01*
X253134628Y-118806541D01*
X253135370Y-117957185D01*
X252811020Y-117172200D01*
X252210959Y-116571091D01*
X251798882Y-116399982D01*
X252207800Y-116231020D01*
X252808909Y-115630959D01*
X253134628Y-114846541D01*
X253135370Y-113997185D01*
X252811020Y-113212200D01*
X252210959Y-112611091D01*
X251798882Y-112439982D01*
X252207800Y-112271020D01*
X252808909Y-111670959D01*
X253134628Y-110886541D01*
X253135370Y-110037185D01*
X252811020Y-109252200D01*
X252210959Y-108651091D01*
X251798882Y-108479982D01*
X252207800Y-108311020D01*
X252808909Y-107710959D01*
X253134628Y-106926541D01*
X253135370Y-106077185D01*
X252811020Y-105292200D01*
X252210959Y-104691091D01*
X251798882Y-104519982D01*
X252207800Y-104351020D01*
X252808909Y-103750959D01*
X253134628Y-102966541D01*
X253135370Y-102117185D01*
X252811020Y-101332200D01*
X252210959Y-100731091D01*
X251798882Y-100559982D01*
X252207800Y-100391020D01*
X252808909Y-99790959D01*
X253134628Y-99006541D01*
X253135370Y-98157185D01*
X252811020Y-97372200D01*
X252210959Y-96771091D01*
X251798882Y-96599982D01*
X252207800Y-96431020D01*
X252808909Y-95830959D01*
X253134628Y-95046541D01*
X253135370Y-94197185D01*
X252811020Y-93412200D01*
X252210959Y-92811091D01*
X251798882Y-92639982D01*
X252207800Y-92471020D01*
X252808909Y-91870959D01*
X253134628Y-91086541D01*
X253135370Y-90237185D01*
X252811020Y-89452200D01*
X252210959Y-88851091D01*
X251798882Y-88679982D01*
X252207800Y-88511020D01*
X252808909Y-87910959D01*
X253134628Y-87126541D01*
X253135370Y-86277185D01*
X252811020Y-85492200D01*
X252210959Y-84891091D01*
X251798882Y-84719982D01*
X252207800Y-84551020D01*
X252808909Y-83950959D01*
X253134628Y-83166541D01*
X253135370Y-82317185D01*
X252811020Y-81532200D01*
X252210959Y-80931091D01*
X251798882Y-80759982D01*
X252207800Y-80591020D01*
X252808909Y-79990959D01*
X253134628Y-79206541D01*
X253135370Y-78357185D01*
X252811020Y-77572200D01*
X252210959Y-76971091D01*
X251798882Y-76799982D01*
X252207800Y-76631020D01*
X252808909Y-76030959D01*
X253134628Y-75246541D01*
X253135370Y-74397185D01*
X252811020Y-73612200D01*
X252210959Y-73011091D01*
X251798882Y-72839982D01*
X252207800Y-72671020D01*
X252808909Y-72070959D01*
X253134628Y-71286541D01*
X253135370Y-70437185D01*
X252811020Y-69652200D01*
X252210959Y-69051091D01*
X251426541Y-68725372D01*
X250577185Y-68724630D01*
X249792200Y-69048980D01*
X249191091Y-69649041D01*
X248865372Y-70433459D01*
X248864630Y-71282815D01*
X249188980Y-72067800D01*
X249789041Y-72668909D01*
X250201118Y-72840018D01*
X249792200Y-73008980D01*
X249191091Y-73609041D01*
X248865372Y-74393459D01*
X248864630Y-75242815D01*
X249188980Y-76027800D01*
X249789041Y-76628909D01*
X250201118Y-76800018D01*
X249792200Y-76968980D01*
X249191091Y-77569041D01*
X248865372Y-78353459D01*
X248864630Y-79202815D01*
X249188980Y-79987800D01*
X249789041Y-80588909D01*
X250201118Y-80760018D01*
X249792200Y-80928980D01*
X249191091Y-81529041D01*
X248865372Y-82313459D01*
X248864630Y-83162815D01*
X249188980Y-83947800D01*
X249789041Y-84548909D01*
X250201118Y-84720018D01*
X249792200Y-84888980D01*
X249191091Y-85489041D01*
X248865372Y-86273459D01*
X248864630Y-87122815D01*
X249188980Y-87907800D01*
X249789041Y-88508909D01*
X250201118Y-88680018D01*
X249792200Y-88848980D01*
X249191091Y-89449041D01*
X248865372Y-90233459D01*
X248864630Y-91082815D01*
X249188980Y-91867800D01*
X249789041Y-92468909D01*
X250201118Y-92640018D01*
X249792200Y-92808980D01*
X249191091Y-93409041D01*
X248865372Y-94193459D01*
X248864630Y-95042815D01*
X249188980Y-95827800D01*
X249789041Y-96428909D01*
X250201118Y-96600018D01*
X249792200Y-96768980D01*
X249191091Y-97369041D01*
X248865372Y-98153459D01*
X248864630Y-99002815D01*
X249051098Y-99454100D01*
X247662599Y-100842599D01*
X247497852Y-101089161D01*
X247440000Y-101380000D01*
X247440000Y-107685198D01*
X241285198Y-113840000D01*
X210566885Y-113840000D01*
X210584828Y-113796788D01*
X210585170Y-113404931D01*
X210435529Y-113042771D01*
X210158686Y-112765445D01*
X209796788Y-112615172D01*
X209404931Y-112614830D01*
X209042771Y-112764471D01*
X208765445Y-113041314D01*
X208615172Y-113403212D01*
X208614830Y-113795069D01*
X208623002Y-113814846D01*
X208604931Y-113814830D01*
X208242771Y-113964471D01*
X207965445Y-114241314D01*
X207815172Y-114603212D01*
X207814830Y-114995069D01*
X207964471Y-115357229D01*
X208007000Y-115399832D01*
X207965445Y-115441314D01*
X207815172Y-115803212D01*
X207814830Y-116195069D01*
X207940950Y-116500304D01*
X207815172Y-116803212D01*
X207814830Y-117195069D01*
X207896560Y-117392872D01*
X207838474Y-117450857D01*
X207688201Y-117812755D01*
X207687859Y-118204612D01*
X175710000Y-118204612D01*
X175710000Y-113195069D01*
X194814830Y-113195069D01*
X194964471Y-113557229D01*
X195241314Y-113834555D01*
X195603212Y-113984828D01*
X195995069Y-113985170D01*
X196357229Y-113835529D01*
X196432890Y-113760000D01*
X199566889Y-113760000D01*
X199641314Y-113834555D01*
X200003212Y-113984828D01*
X200395069Y-113985170D01*
X200757229Y-113835529D01*
X201034555Y-113558686D01*
X201184828Y-113196788D01*
X201185170Y-112804931D01*
X201035529Y-112442771D01*
X200758686Y-112165445D01*
X200396788Y-112015172D01*
X200004931Y-112014830D01*
X199642771Y-112164471D01*
X199567110Y-112240000D01*
X196433111Y-112240000D01*
X196358686Y-112165445D01*
X195996788Y-112015172D01*
X195604931Y-112014830D01*
X195242771Y-112164471D01*
X194965445Y-112441314D01*
X194815172Y-112803212D01*
X194814830Y-113195069D01*
X175710000Y-113195069D01*
X175710000Y-75673893D01*
X188924725Y-75673893D01*
X189165519Y-76256657D01*
X189538471Y-76630261D01*
X189167086Y-77000997D01*
X188925276Y-77583341D01*
X188924725Y-78213893D01*
X189165519Y-78796657D01*
X189538471Y-79170261D01*
X189167086Y-79540997D01*
X188925276Y-80123341D01*
X188924725Y-80753893D01*
X189165519Y-81336657D01*
X189610997Y-81782914D01*
X190193341Y-82024724D01*
X190823893Y-82025275D01*
X191406657Y-81784481D01*
X191852914Y-81339003D01*
X192094724Y-80756659D01*
X192094726Y-80753893D01*
X206704725Y-80753893D01*
X206945519Y-81336657D01*
X207390997Y-81782914D01*
X207973341Y-82024724D01*
X208603893Y-82025275D01*
X209186657Y-81784481D01*
X209632914Y-81339003D01*
X209874724Y-80756659D01*
X209875275Y-80126107D01*
X209634481Y-79543343D01*
X209195789Y-79103884D01*
X209226745Y-79016350D01*
X208290000Y-78079605D01*
X207353255Y-79016350D01*
X207384407Y-79104439D01*
X206947086Y-79540997D01*
X206705276Y-80123341D01*
X206704725Y-80753893D01*
X192094726Y-80753893D01*
X192095275Y-80126107D01*
X191854481Y-79543343D01*
X191481529Y-79169739D01*
X191852914Y-78799003D01*
X192094724Y-78216659D01*
X192095221Y-77647398D01*
X206693812Y-77647398D01*
X206718648Y-78277461D01*
X206911981Y-78744208D01*
X207173650Y-78836745D01*
X208110395Y-77900000D01*
X208469605Y-77900000D01*
X209406350Y-78836745D01*
X209668019Y-78744208D01*
X209886188Y-78152602D01*
X209861352Y-77522539D01*
X209668019Y-77055792D01*
X209406350Y-76963255D01*
X208469605Y-77900000D01*
X208110395Y-77900000D01*
X207173650Y-76963255D01*
X206911981Y-77055792D01*
X206693812Y-77647398D01*
X192095221Y-77647398D01*
X192095275Y-77586107D01*
X191854481Y-77003343D01*
X191481529Y-76629739D01*
X191852914Y-76259003D01*
X192094724Y-75676659D01*
X192095275Y-75046107D01*
X191854481Y-74463343D01*
X191415789Y-74023884D01*
X191446745Y-73936350D01*
X190510000Y-72999605D01*
X189573255Y-73936350D01*
X189604407Y-74024439D01*
X189167086Y-74460997D01*
X188925276Y-75043341D01*
X188924725Y-75673893D01*
X175710000Y-75673893D01*
X175710000Y-72567398D01*
X188913812Y-72567398D01*
X188938648Y-73197461D01*
X189131981Y-73664208D01*
X189393650Y-73756745D01*
X190330395Y-72820000D01*
X190689605Y-72820000D01*
X191626350Y-73756745D01*
X191888019Y-73664208D01*
X192106188Y-73072602D01*
X192081352Y-72442539D01*
X191888019Y-71975792D01*
X191626350Y-71883255D01*
X190689605Y-72820000D01*
X190330395Y-72820000D01*
X189393650Y-71883255D01*
X189131981Y-71975792D01*
X188913812Y-72567398D01*
X175710000Y-72567398D01*
X175710000Y-62327000D01*
X181600000Y-62327000D01*
X181627305Y-62324030D01*
X181673408Y-62303635D01*
X186473408Y-58903635D01*
X186516994Y-58849410D01*
X186527000Y-58800000D01*
X186527000Y-50710000D01*
X191673000Y-50710000D01*
X191673000Y-51421545D01*
M02*
