G04 #@! TF.FileFunction,Copper,L1,Top,Signal*
%FSLAX46Y46*%
G04 Gerber Fmt 4.6, Leading zero omitted, Abs format (unit mm)*
G04 Created by KiCad (PCBNEW 4.0.5) date Tuesday, March 07, 2017 'PMt' 04:16:58 PM*
%MOMM*%
%LPD*%
G01*
G04 APERTURE LIST*
%ADD10C,0.100000*%
%ADD11R,2.000000X3.800000*%
%ADD12R,2.000000X1.500000*%
%ADD13R,1.200000X0.900000*%
%ADD14C,3.000000*%
%ADD15C,1.900000*%
%ADD16R,0.900000X1.200000*%
%ADD17R,1.500000X1.250000*%
%ADD18R,2.500000X2.000000*%
%ADD19R,2.000000X2.500000*%
%ADD20R,0.800000X1.900000*%
%ADD21R,1.143000X0.508000*%
%ADD22R,3.500000X2.000000*%
%ADD23R,7.000000X7.000000*%
%ADD24C,0.700000*%
%ADD25C,0.250000*%
%ADD26C,1.000000*%
%ADD27C,0.500000*%
%ADD28C,3.000000*%
%ADD29C,2.500000*%
%ADD30C,2.000000*%
%ADD31C,0.254000*%
G04 APERTURE END LIST*
D10*
D11*
X199250000Y-92800000D03*
D12*
X205550000Y-92800000D03*
X205550000Y-90500000D03*
X205550000Y-95100000D03*
D13*
X187900000Y-109600000D03*
X190100000Y-109600000D03*
D14*
X251000000Y-70860000D03*
X251000000Y-74820000D03*
X251000000Y-78780000D03*
X251000000Y-82740000D03*
X251000000Y-86700000D03*
X251000000Y-90660000D03*
X251000000Y-94620000D03*
X251000000Y-98580000D03*
X251000000Y-102540000D03*
X251000000Y-106500000D03*
X251000000Y-110460000D03*
X251000000Y-114420000D03*
X251000000Y-118380000D03*
X251000000Y-122340000D03*
X251000000Y-126300000D03*
X251000000Y-130260000D03*
D15*
X208290000Y-80440000D03*
X208290000Y-77900000D03*
X208290000Y-75360000D03*
X208290000Y-72820000D03*
X208290000Y-70280000D03*
X208290000Y-67740000D03*
X208290000Y-65200000D03*
X208290000Y-62660000D03*
X208290000Y-60120000D03*
X208290000Y-57580000D03*
X208290000Y-55040000D03*
X208290000Y-52500000D03*
X190510000Y-80440000D03*
X190510000Y-77900000D03*
X190510000Y-75360000D03*
X190510000Y-72820000D03*
X190510000Y-70280000D03*
X190510000Y-67740000D03*
X190510000Y-65200000D03*
X190510000Y-62660000D03*
X190510000Y-60120000D03*
X190510000Y-57580000D03*
X190510000Y-55040000D03*
X190510000Y-52500000D03*
D14*
X223860000Y-140200000D03*
X227820000Y-140200000D03*
X231780000Y-140200000D03*
X235740000Y-140200000D03*
D16*
X228000000Y-65500000D03*
X228000000Y-63300000D03*
X228000000Y-57100000D03*
X228000000Y-54900000D03*
X228000000Y-73900000D03*
X228000000Y-71700000D03*
X228000000Y-90700000D03*
X228000000Y-88500000D03*
D17*
X191750000Y-114600000D03*
X194250000Y-114600000D03*
X197150000Y-114600000D03*
X199650000Y-114600000D03*
D18*
X208800000Y-90800000D03*
X208800000Y-94800000D03*
D19*
X201800000Y-98200000D03*
X205800000Y-98200000D03*
D17*
X191750000Y-122400000D03*
X194250000Y-122400000D03*
X197150000Y-122400000D03*
X199650000Y-122400000D03*
X191750000Y-106600000D03*
X194250000Y-106600000D03*
X197150000Y-106600000D03*
X199650000Y-106600000D03*
D20*
X226150000Y-63500000D03*
X224250000Y-63500000D03*
X225200000Y-66500000D03*
X226150000Y-55100000D03*
X224250000Y-55100000D03*
X225200000Y-58100000D03*
X226150000Y-71900000D03*
X224250000Y-71900000D03*
X225200000Y-74900000D03*
X226150000Y-88700000D03*
X224250000Y-88700000D03*
X225200000Y-91700000D03*
X226150000Y-105500000D03*
X224250000Y-105500000D03*
X225200000Y-108500000D03*
X226150000Y-80300000D03*
X224250000Y-80300000D03*
X225200000Y-83300000D03*
X226200000Y-97100000D03*
X224300000Y-97100000D03*
X225250000Y-100100000D03*
D16*
X228000000Y-107500000D03*
X228000000Y-105300000D03*
D13*
X200900000Y-109600000D03*
X203100000Y-109600000D03*
X200900000Y-111600000D03*
X203100000Y-111600000D03*
X201150000Y-117400000D03*
X203350000Y-117400000D03*
D16*
X228000000Y-82300000D03*
X228000000Y-80100000D03*
D13*
X201150000Y-119400000D03*
X203350000Y-119400000D03*
X201150000Y-125400000D03*
X203350000Y-125400000D03*
X201150000Y-127400000D03*
X203350000Y-127400000D03*
D16*
X228000000Y-99100000D03*
X228000000Y-96900000D03*
X222400000Y-96900000D03*
X222400000Y-99100000D03*
D13*
X187900000Y-111600000D03*
X190100000Y-111600000D03*
D16*
X222400000Y-88500000D03*
X222400000Y-90700000D03*
D13*
X187900000Y-117600000D03*
X190100000Y-117600000D03*
D16*
X222400000Y-80100000D03*
X222400000Y-82300000D03*
D13*
X187900000Y-119600000D03*
X190100000Y-119600000D03*
D16*
X222400000Y-71700000D03*
X222400000Y-73900000D03*
D13*
X187900000Y-125600000D03*
X190100000Y-125600000D03*
D16*
X222400000Y-63300000D03*
X222400000Y-65500000D03*
D13*
X187900000Y-127600000D03*
X190100000Y-127600000D03*
D16*
X222400000Y-105300000D03*
X222400000Y-107500000D03*
D21*
X198775000Y-116695000D03*
X198775000Y-117965000D03*
X198775000Y-119235000D03*
X198775000Y-120505000D03*
X192425000Y-120505000D03*
X192425000Y-119235000D03*
X192425000Y-117965000D03*
X192425000Y-116695000D03*
X198775000Y-124495000D03*
X198775000Y-125765000D03*
X198775000Y-127035000D03*
X198775000Y-128305000D03*
X192425000Y-128305000D03*
X192425000Y-127035000D03*
X192425000Y-125765000D03*
X192425000Y-124495000D03*
X198775000Y-108695000D03*
X198775000Y-109965000D03*
X198775000Y-111235000D03*
X198775000Y-112505000D03*
X192425000Y-112505000D03*
X192425000Y-111235000D03*
X192425000Y-109965000D03*
X192425000Y-108695000D03*
D22*
X231100000Y-63910000D03*
X231100000Y-68490000D03*
D23*
X238500000Y-66210000D03*
D22*
X231100000Y-55510000D03*
X231100000Y-60090000D03*
D23*
X238500000Y-57810000D03*
D22*
X231100000Y-72310000D03*
X231100000Y-76890000D03*
D23*
X238500000Y-74610000D03*
D22*
X231100000Y-89110000D03*
X231100000Y-93690000D03*
D23*
X238500000Y-91410000D03*
D22*
X231100000Y-105910000D03*
X231100000Y-110490000D03*
D23*
X238500000Y-108210000D03*
D22*
X231100000Y-80710000D03*
X231100000Y-85290000D03*
D23*
X238500000Y-83010000D03*
D22*
X231100000Y-97510000D03*
X231100000Y-102090000D03*
D23*
X238500000Y-99810000D03*
D16*
X222400000Y-54900000D03*
X222400000Y-57100000D03*
D24*
X223800000Y-91600000D03*
X223800000Y-100200000D03*
X223800000Y-108400000D03*
X223800000Y-83400000D03*
X223800000Y-75000000D03*
X223800000Y-66400000D03*
X223600000Y-58100000D03*
X208800000Y-97800000D03*
X201400000Y-106600000D03*
X201600000Y-114600000D03*
X189800000Y-106200000D03*
X189800000Y-114000000D03*
X191400000Y-129800000D03*
X201600000Y-122000000D03*
X190000000Y-122400000D03*
X220800000Y-63400000D03*
X195800000Y-120800000D03*
X200200000Y-120800000D03*
X195800000Y-113000000D03*
X200200000Y-113000000D03*
X220800000Y-96800000D03*
X220800000Y-80200000D03*
X220800000Y-105200000D03*
X220800000Y-71600000D03*
X220600000Y-55000000D03*
X209600000Y-113600000D03*
X208800000Y-114800000D03*
X208800000Y-116000000D03*
X208800000Y-117000000D03*
X208673029Y-118009543D03*
X209200000Y-118800000D03*
X220800000Y-88400000D03*
D25*
X223800000Y-91600000D02*
X223300000Y-91600000D01*
X223300000Y-91600000D02*
X222400000Y-90700000D01*
X225200000Y-91700000D02*
X223900000Y-91700000D01*
X223900000Y-91700000D02*
X223800000Y-91600000D01*
X223800000Y-100200000D02*
X223500000Y-100200000D01*
X223500000Y-100200000D02*
X222400000Y-99100000D01*
X225250000Y-100100000D02*
X223900000Y-100100000D01*
X223900000Y-100100000D02*
X223800000Y-100200000D01*
X223800000Y-108400000D02*
X223300000Y-108400000D01*
X223300000Y-108400000D02*
X222400000Y-107500000D01*
X225200000Y-108500000D02*
X223900000Y-108500000D01*
X223900000Y-108500000D02*
X223800000Y-108400000D01*
X223800000Y-83400000D02*
X223500000Y-83400000D01*
X223500000Y-83400000D02*
X222400000Y-82300000D01*
X225200000Y-83300000D02*
X223900000Y-83300000D01*
X223900000Y-83300000D02*
X223800000Y-83400000D01*
X223800000Y-75000000D02*
X223500000Y-75000000D01*
X223500000Y-75000000D02*
X222400000Y-73900000D01*
X225200000Y-74900000D02*
X223900000Y-74900000D01*
X223900000Y-74900000D02*
X223800000Y-75000000D01*
X223800000Y-66400000D02*
X223300000Y-66400000D01*
X223300000Y-66400000D02*
X222400000Y-65500000D01*
X225200000Y-66500000D02*
X223900000Y-66500000D01*
X223900000Y-66500000D02*
X223800000Y-66400000D01*
X223600000Y-58100000D02*
X223250000Y-58100000D01*
X225200000Y-58100000D02*
X223600000Y-58100000D01*
X223250000Y-58100000D02*
X222400000Y-57250000D01*
X222400000Y-57250000D02*
X222400000Y-57100000D01*
D26*
X208800000Y-97800000D02*
X206200000Y-97800000D01*
X206200000Y-97800000D02*
X205800000Y-98200000D01*
X208800000Y-94800000D02*
X208800000Y-97800000D01*
X208800000Y-94800000D02*
X205850000Y-94800000D01*
D25*
X205850000Y-94800000D02*
X205550000Y-95100000D01*
X199650000Y-106600000D02*
X201400000Y-106600000D01*
X203100000Y-111600000D02*
X203100000Y-109600000D01*
X201600000Y-114600000D02*
X203100000Y-113100000D01*
X203100000Y-113100000D02*
X203100000Y-111600000D01*
X199650000Y-114600000D02*
X201600000Y-114600000D01*
X191750000Y-106600000D02*
X190200000Y-106600000D01*
X190200000Y-106600000D02*
X189800000Y-106200000D01*
X187900000Y-109600000D02*
X187900000Y-111600000D01*
X188600000Y-112800000D02*
X188400000Y-112800000D01*
X188400000Y-112800000D02*
X187900000Y-112300000D01*
X187900000Y-112300000D02*
X187900000Y-111600000D01*
X189800000Y-114000000D02*
X188600000Y-112800000D01*
X191800000Y-114600000D02*
X192425000Y-113975000D01*
X192425000Y-113975000D02*
X192425000Y-112505000D01*
X191750000Y-114600000D02*
X191800000Y-114600000D01*
X191750000Y-114600000D02*
X190400000Y-114600000D01*
X190400000Y-114600000D02*
X189800000Y-114000000D01*
X203350000Y-127400000D02*
X203350000Y-125400000D01*
X191400000Y-129800000D02*
X201650000Y-129800000D01*
X201650000Y-129800000D02*
X203350000Y-128100000D01*
X203350000Y-128100000D02*
X203350000Y-127400000D01*
X187900000Y-127600000D02*
X187900000Y-125600000D01*
X191400000Y-129800000D02*
X189400000Y-129800000D01*
X189400000Y-129800000D02*
X187900000Y-128300000D01*
X187900000Y-128300000D02*
X187900000Y-127600000D01*
X192425000Y-128305000D02*
X192425000Y-128775000D01*
X192425000Y-128775000D02*
X191400000Y-129800000D01*
X203350000Y-119400000D02*
X203350000Y-117400000D01*
X201600000Y-122000000D02*
X203350000Y-120250000D01*
X203350000Y-120250000D02*
X203350000Y-119400000D01*
X199650000Y-122400000D02*
X201200000Y-122400000D01*
X201200000Y-122400000D02*
X201600000Y-122000000D01*
X187900000Y-119600000D02*
X187900000Y-117600000D01*
X191750000Y-122400000D02*
X190000000Y-122400000D01*
X190000000Y-122400000D02*
X187900000Y-120300000D01*
X187900000Y-120300000D02*
X187900000Y-119600000D01*
D27*
X192000000Y-122400000D02*
X192425000Y-121975000D01*
X192425000Y-121975000D02*
X192425000Y-120505000D01*
D26*
X205550000Y-90500000D02*
X208500000Y-90500000D01*
D25*
X208500000Y-90500000D02*
X208800000Y-90800000D01*
D28*
X231780000Y-140200000D02*
X231780000Y-145220000D01*
X231780000Y-145220000D02*
X226800000Y-150200000D01*
X226800000Y-150200000D02*
X219200000Y-150200000D01*
X219200000Y-150200000D02*
X213000000Y-144000000D01*
X213000000Y-144000000D02*
X213000000Y-93599998D01*
D29*
X213000000Y-93599998D02*
X210200002Y-90800000D01*
D30*
X210200002Y-90800000D02*
X208800000Y-90800000D01*
D29*
X251000000Y-74820000D02*
X248878680Y-74820000D01*
X248878680Y-74820000D02*
X240268680Y-66210000D01*
X240268680Y-66210000D02*
X238500000Y-66210000D01*
X251000000Y-70860000D02*
X249860000Y-70860000D01*
X245400000Y-66400000D02*
X245400000Y-62600000D01*
X249860000Y-70860000D02*
X245400000Y-66400000D01*
X245400000Y-62600000D02*
X240610000Y-57810000D01*
X240610000Y-57810000D02*
X238500000Y-57810000D01*
X251000000Y-78780000D02*
X244420002Y-78780000D01*
X244420002Y-78780000D02*
X240250002Y-74610000D01*
X240250002Y-74610000D02*
X238500000Y-74610000D01*
X251000000Y-86700000D02*
X244960002Y-86700000D01*
X244960002Y-86700000D02*
X240250002Y-91410000D01*
X240250002Y-91410000D02*
X238500000Y-91410000D01*
X251000000Y-94620000D02*
X250149998Y-94620000D01*
X250149998Y-94620000D02*
X245600000Y-99169998D01*
X245600000Y-99169998D02*
X245600000Y-104000000D01*
X245600000Y-104000000D02*
X241390000Y-108210000D01*
X241390000Y-108210000D02*
X238500000Y-108210000D01*
X238500000Y-83010000D02*
X250730000Y-83010000D01*
X250730000Y-83010000D02*
X251000000Y-82740000D01*
X251000000Y-90660000D02*
X248878680Y-90660000D01*
X248878680Y-90660000D02*
X239728680Y-99810000D01*
X239728680Y-99810000D02*
X238500000Y-99810000D01*
D25*
X222400000Y-63300000D02*
X220900000Y-63300000D01*
X220900000Y-63300000D02*
X220800000Y-63400000D01*
X222400000Y-63300000D02*
X224050000Y-63300000D01*
X224050000Y-63300000D02*
X224250000Y-63500000D01*
D26*
X197150000Y-92800000D02*
X197150000Y-87580000D01*
X197150000Y-87580000D02*
X204290000Y-80440000D01*
X204290000Y-80440000D02*
X208290000Y-80440000D01*
X197150000Y-106600000D02*
X197150000Y-92800000D01*
X199250000Y-92800000D02*
X197150000Y-92800000D01*
X197495000Y-124495000D02*
X197150000Y-124150000D01*
X197150000Y-124150000D02*
X197150000Y-122400000D01*
X198775000Y-124495000D02*
X197495000Y-124495000D01*
X197150000Y-114600000D02*
X197150000Y-116800000D01*
X197150000Y-116800000D02*
X197150000Y-122400000D01*
X198775000Y-116695000D02*
X197203500Y-116695000D01*
X197203500Y-116695000D02*
X197150000Y-116748500D01*
X197150000Y-116748500D02*
X197150000Y-116800000D01*
X197150000Y-106600000D02*
X197150000Y-108800000D01*
X197150000Y-108800000D02*
X197150000Y-114600000D01*
X198775000Y-108695000D02*
X197203500Y-108695000D01*
X197203500Y-108695000D02*
X197150000Y-108748500D01*
X197150000Y-108748500D02*
X197150000Y-108800000D01*
X194250000Y-106600000D02*
X194250000Y-84180000D01*
X194250000Y-84180000D02*
X190510000Y-80440000D01*
X194250000Y-116600000D02*
X194250000Y-120800000D01*
X194250000Y-120800000D02*
X194250000Y-122400000D01*
D25*
X195800000Y-120800000D02*
X194250000Y-120800000D01*
X199895000Y-120505000D02*
X199905000Y-120505000D01*
X199905000Y-120505000D02*
X200200000Y-120800000D01*
X198775000Y-120505000D02*
X199895000Y-120505000D01*
D26*
X194250000Y-108400000D02*
X194250000Y-113000000D01*
X194250000Y-113000000D02*
X194250000Y-114600000D01*
D25*
X195800000Y-113000000D02*
X194250000Y-113000000D01*
X199495000Y-112505000D02*
X199705000Y-112505000D01*
X199705000Y-112505000D02*
X200200000Y-113000000D01*
X198775000Y-112505000D02*
X199495000Y-112505000D01*
X196505000Y-128305000D02*
X196505000Y-128257500D01*
X196505000Y-128257500D02*
X192742500Y-124495000D01*
X192742500Y-124495000D02*
X192425000Y-124495000D01*
X198775000Y-128305000D02*
X196505000Y-128305000D01*
D26*
X194250000Y-106600000D02*
X194250000Y-108400000D01*
X192425000Y-108695000D02*
X193996500Y-108695000D01*
X193996500Y-108695000D02*
X194250000Y-108441500D01*
X194250000Y-108441500D02*
X194250000Y-108400000D01*
X194250000Y-114600000D02*
X194250000Y-116600000D01*
X192425000Y-116695000D02*
X193996500Y-116695000D01*
X193996500Y-116695000D02*
X194091500Y-116600000D01*
X194091500Y-116600000D02*
X194250000Y-116600000D01*
X192425000Y-124495000D02*
X193780000Y-124495000D01*
X193780000Y-124495000D02*
X194250000Y-124025000D01*
X194250000Y-124025000D02*
X194250000Y-122400000D01*
D25*
X190100000Y-117600000D02*
X190100000Y-116700000D01*
X190100000Y-116700000D02*
X184800000Y-111400000D01*
X184800000Y-111400000D02*
X184800000Y-69800000D01*
X184800000Y-69800000D02*
X188400000Y-66200000D01*
X188400000Y-66200000D02*
X188400000Y-64770000D01*
X188400000Y-64770000D02*
X190510000Y-62660000D01*
X192425000Y-117965000D02*
X190465000Y-117965000D01*
X190465000Y-117965000D02*
X190100000Y-117600000D01*
X184299989Y-111607111D02*
X184299989Y-69400000D01*
X187800000Y-62830000D02*
X187800000Y-65899989D01*
X187800000Y-65899989D02*
X184299989Y-69400000D01*
X190510000Y-60120000D02*
X187800000Y-62830000D01*
X189000000Y-116307122D02*
X184299989Y-111607111D01*
X189950000Y-119600000D02*
X189000000Y-118650000D01*
X190100000Y-119600000D02*
X189950000Y-119600000D01*
X189000000Y-118650000D02*
X189000000Y-116307122D01*
X192425000Y-119235000D02*
X190465000Y-119235000D01*
X190465000Y-119235000D02*
X190100000Y-119600000D01*
X190100000Y-109600000D02*
X190100000Y-108500000D01*
X190100000Y-108500000D02*
X186000022Y-104400022D01*
X186000022Y-104400022D02*
X186000022Y-70599978D01*
X186000022Y-70599978D02*
X188860000Y-67740000D01*
X188860000Y-67740000D02*
X190510000Y-67740000D01*
X192425000Y-109965000D02*
X190465000Y-109965000D01*
X190465000Y-109965000D02*
X190100000Y-109600000D01*
X189560001Y-66149999D02*
X190510000Y-65200000D01*
X189950000Y-111600000D02*
X188875001Y-110525001D01*
X190100000Y-111600000D02*
X189950000Y-111600000D01*
X188875001Y-110525001D02*
X188875001Y-108075001D01*
X188875001Y-108075001D02*
X185500011Y-104700011D01*
X185500011Y-104700011D02*
X185500011Y-70209989D01*
X185500011Y-70209989D02*
X189560001Y-66149999D01*
X192425000Y-111235000D02*
X190465000Y-111235000D01*
X190465000Y-111235000D02*
X190100000Y-111600000D01*
X222400000Y-96900000D02*
X220900000Y-96900000D01*
X220900000Y-96900000D02*
X220800000Y-96800000D01*
X224300000Y-97100000D02*
X222600000Y-97100000D01*
X222600000Y-97100000D02*
X222400000Y-96900000D01*
X222400000Y-80100000D02*
X220900000Y-80100000D01*
X220900000Y-80100000D02*
X220800000Y-80200000D01*
X224250000Y-80300000D02*
X222600000Y-80300000D01*
X222600000Y-80300000D02*
X222400000Y-80100000D01*
X222400000Y-105300000D02*
X220900000Y-105300000D01*
X220900000Y-105300000D02*
X220800000Y-105200000D01*
X224250000Y-105500000D02*
X222600000Y-105500000D01*
X222600000Y-105500000D02*
X222400000Y-105300000D01*
X222400000Y-71700000D02*
X220900000Y-71700000D01*
X220900000Y-71700000D02*
X220800000Y-71600000D01*
X224250000Y-71900000D02*
X222600000Y-71900000D01*
X222600000Y-71900000D02*
X222400000Y-71700000D01*
X222400000Y-54900000D02*
X220700000Y-54900000D01*
X220700000Y-54900000D02*
X220600000Y-55000000D01*
X224250000Y-55100000D02*
X222600000Y-55100000D01*
X222600000Y-55100000D02*
X222400000Y-54900000D01*
X209600000Y-113105026D02*
X209600000Y-113600000D01*
X209600000Y-112092878D02*
X209600000Y-113105026D01*
X205607112Y-108099990D02*
X209600000Y-112092878D01*
X201700010Y-108099990D02*
X205607112Y-108099990D01*
X200900000Y-108900000D02*
X201700010Y-108099990D01*
X200900000Y-109600000D02*
X200900000Y-108900000D01*
X198775000Y-109965000D02*
X200535000Y-109965000D01*
X200535000Y-109965000D02*
X200900000Y-109600000D01*
X208800000Y-112800000D02*
X208800000Y-113000000D01*
X200900000Y-111600000D02*
X201050000Y-111600000D01*
X201050000Y-111600000D02*
X202000000Y-110650000D01*
X202000000Y-110650000D02*
X202000000Y-108974998D01*
X202000000Y-108974998D02*
X202374998Y-108600000D01*
X208800000Y-113000000D02*
X208800000Y-114800000D01*
X202374998Y-108600000D02*
X205400000Y-108600000D01*
X205400000Y-108600000D02*
X208800000Y-112000000D01*
X208800000Y-112000000D02*
X208800000Y-113000000D01*
X198775000Y-111235000D02*
X200535000Y-111235000D01*
X200535000Y-111235000D02*
X200900000Y-111600000D01*
X208450001Y-115650001D02*
X208800000Y-116000000D01*
X202199999Y-115650001D02*
X208450001Y-115650001D01*
X201150000Y-116700000D02*
X202199999Y-115650001D01*
X201150000Y-117400000D02*
X201150000Y-116700000D01*
X198775000Y-117965000D02*
X200585000Y-117965000D01*
X200585000Y-117965000D02*
X201150000Y-117400000D01*
X201150000Y-119400000D02*
X201300000Y-119400000D01*
X202824998Y-116200000D02*
X207505026Y-116200000D01*
X201300000Y-119400000D02*
X202200000Y-118500000D01*
X202200000Y-118500000D02*
X202200000Y-116824998D01*
X202200000Y-116824998D02*
X202824998Y-116200000D01*
X207505026Y-116200000D02*
X208305026Y-117000000D01*
X208305026Y-117000000D02*
X208800000Y-117000000D01*
X198775000Y-119235000D02*
X200985000Y-119235000D01*
X200985000Y-119235000D02*
X201150000Y-119400000D01*
X201150000Y-125400000D02*
X201150000Y-125037598D01*
X201150000Y-125037598D02*
X208178055Y-118009543D01*
X208178055Y-118009543D02*
X208673029Y-118009543D01*
X198775000Y-125765000D02*
X200785000Y-125765000D01*
X200785000Y-125765000D02*
X201150000Y-125400000D01*
X202200000Y-126500000D02*
X202200000Y-124824998D01*
X202200000Y-124824998D02*
X208224998Y-118800000D01*
X208224998Y-118800000D02*
X209200000Y-118800000D01*
X201150000Y-127400000D02*
X201300000Y-127400000D01*
X201300000Y-127400000D02*
X202200000Y-126500000D01*
X198775000Y-127035000D02*
X200785000Y-127035000D01*
X200785000Y-127035000D02*
X201150000Y-127400000D01*
X228000000Y-63300000D02*
X230490000Y-63300000D01*
X230490000Y-63300000D02*
X231100000Y-63910000D01*
X226150000Y-63500000D02*
X227800000Y-63500000D01*
X227800000Y-63500000D02*
X228000000Y-63300000D01*
X228000000Y-54900000D02*
X226350000Y-54900000D01*
X226350000Y-54900000D02*
X226150000Y-55100000D01*
X231100000Y-55510000D02*
X228610000Y-55510000D01*
X228610000Y-55510000D02*
X228000000Y-54900000D01*
X228000000Y-71700000D02*
X226350000Y-71700000D01*
X226350000Y-71700000D02*
X226150000Y-71900000D01*
X231100000Y-72310000D02*
X228610000Y-72310000D01*
X228610000Y-72310000D02*
X228000000Y-71700000D01*
X228000000Y-88500000D02*
X226350000Y-88500000D01*
X226350000Y-88500000D02*
X226150000Y-88700000D01*
X231100000Y-89110000D02*
X228610000Y-89110000D01*
X228610000Y-89110000D02*
X228000000Y-88500000D01*
X222400000Y-88500000D02*
X220900000Y-88500000D01*
X220900000Y-88500000D02*
X220800000Y-88400000D01*
X224250000Y-88700000D02*
X222600000Y-88700000D01*
X222600000Y-88700000D02*
X222400000Y-88500000D01*
X228000000Y-80100000D02*
X226350000Y-80100000D01*
X226350000Y-80100000D02*
X226150000Y-80300000D01*
X231100000Y-80710000D02*
X228610000Y-80710000D01*
X228610000Y-80710000D02*
X228000000Y-80100000D01*
X228000000Y-96900000D02*
X226400000Y-96900000D01*
X226400000Y-96900000D02*
X226200000Y-97100000D01*
X231100000Y-97510000D02*
X228610000Y-97510000D01*
X228610000Y-97510000D02*
X228000000Y-96900000D01*
X228000000Y-105300000D02*
X226350000Y-105300000D01*
X226350000Y-105300000D02*
X226150000Y-105500000D01*
X231100000Y-105910000D02*
X228610000Y-105910000D01*
X228610000Y-105910000D02*
X228000000Y-105300000D01*
X188800000Y-61000000D02*
X188800000Y-59290000D01*
X188800000Y-59290000D02*
X190510000Y-57580000D01*
X187200000Y-62600000D02*
X188800000Y-61000000D01*
X187200000Y-65600000D02*
X187200000Y-62600000D01*
X183600000Y-69200000D02*
X187200000Y-65600000D01*
X183600000Y-118400000D02*
X183600000Y-69200000D01*
X190100000Y-125600000D02*
X190100000Y-124900000D01*
X190100000Y-124900000D02*
X183600000Y-118400000D01*
X190100000Y-125367876D02*
X190100000Y-125600000D01*
X192425000Y-125765000D02*
X190265000Y-125765000D01*
X190265000Y-125765000D02*
X190100000Y-125600000D01*
X190510000Y-55040000D02*
X189184999Y-56365001D01*
X188200000Y-59000000D02*
X188200000Y-60800000D01*
X189184999Y-56365001D02*
X189184999Y-58015001D01*
X189184999Y-58015001D02*
X188200000Y-59000000D01*
X183000000Y-118974998D02*
X189000000Y-124974998D01*
X188200000Y-60800000D02*
X186600000Y-62400000D01*
X186600000Y-62400000D02*
X186600000Y-65400000D01*
X189000000Y-126650000D02*
X189950000Y-127600000D01*
X189950000Y-127600000D02*
X190100000Y-127600000D01*
X186600000Y-65400000D02*
X183000000Y-69000000D01*
X183000000Y-69000000D02*
X183000000Y-118974998D01*
X189000000Y-124974998D02*
X189000000Y-126650000D01*
X192425000Y-127035000D02*
X190665000Y-127035000D01*
X190665000Y-127035000D02*
X190100000Y-127600000D01*
D28*
X251000000Y-118380000D02*
X235820000Y-118380000D01*
X235820000Y-118380000D02*
X223860000Y-130340000D01*
X223860000Y-130340000D02*
X223860000Y-140200000D01*
D25*
X228000000Y-65500000D02*
X228000000Y-66350000D01*
X228000000Y-66350000D02*
X228310000Y-66660000D01*
X228310000Y-66660000D02*
X228310000Y-68490000D01*
X228000000Y-73900000D02*
X228000000Y-76180000D01*
X228000000Y-76180000D02*
X228710000Y-76890000D01*
X228000000Y-90700000D02*
X228000000Y-93580000D01*
X228000000Y-93580000D02*
X228110000Y-93690000D01*
X228000000Y-99100000D02*
X228000000Y-102600000D01*
X228000000Y-102600000D02*
X228200000Y-102800000D01*
D29*
X229639999Y-111200001D02*
X228000000Y-111200001D01*
D25*
X228000000Y-107500000D02*
X228000000Y-111200001D01*
D29*
X228000000Y-111200001D02*
X218400001Y-111200001D01*
D25*
X228000000Y-57100000D02*
X228000000Y-59580000D01*
X228000000Y-59580000D02*
X228510000Y-60090000D01*
D28*
X218200000Y-111000000D02*
X218200000Y-142400000D01*
X218200000Y-142400000D02*
X221800000Y-146000000D01*
X221800000Y-146000000D02*
X225200000Y-146000000D01*
X225200000Y-146000000D02*
X227820000Y-143380000D01*
X227820000Y-143380000D02*
X227820000Y-140200000D01*
D29*
X227800000Y-60800000D02*
X220249998Y-60800000D01*
X220249998Y-60800000D02*
X218200000Y-62849998D01*
X228510000Y-60090000D02*
X227800000Y-60800000D01*
X231100000Y-60090000D02*
X228510000Y-60090000D01*
D28*
X218200000Y-72200000D02*
X218200000Y-69000000D01*
X218200000Y-69000000D02*
X218200000Y-62849998D01*
D29*
X231100000Y-68490000D02*
X228310000Y-68490000D01*
X228310000Y-68490000D02*
X227600000Y-69200000D01*
X227600000Y-69200000D02*
X218400000Y-69200000D01*
X218400000Y-69200000D02*
X218200000Y-69000000D01*
D28*
X218200000Y-85800000D02*
X218200000Y-77000000D01*
X218200000Y-77000000D02*
X218200000Y-72200000D01*
D29*
X228000000Y-77600000D02*
X218800000Y-77600000D01*
X218800000Y-77600000D02*
X218200000Y-77000000D01*
X228710000Y-76890000D02*
X228000000Y-77600000D01*
X231100000Y-76890000D02*
X228710000Y-76890000D01*
D28*
X218200000Y-94000000D02*
X218200000Y-85800000D01*
D29*
X218400000Y-86000000D02*
X218200000Y-85800000D01*
X227600000Y-86000000D02*
X218400000Y-86000000D01*
X228310000Y-85290000D02*
X227600000Y-86000000D01*
X231100000Y-85290000D02*
X228310000Y-85290000D01*
X227400000Y-94400000D02*
X218600000Y-94400000D01*
X218600000Y-94400000D02*
X218200000Y-94000000D01*
X228110000Y-93690000D02*
X227400000Y-94400000D01*
X231100000Y-93690000D02*
X228110000Y-93690000D01*
D28*
X218200000Y-111000000D02*
X218200000Y-102800000D01*
D29*
X231100000Y-110490000D02*
X230350000Y-110490000D01*
X230350000Y-110490000D02*
X229639999Y-111200001D01*
X218400001Y-111200001D02*
X218200000Y-111000000D01*
D28*
X218200000Y-102800000D02*
X218200000Y-94000000D01*
D29*
X228910000Y-102090000D02*
X228200000Y-102800000D01*
X228200000Y-102800000D02*
X218200000Y-102800000D01*
X231100000Y-102090000D02*
X228910000Y-102090000D01*
D31*
G36*
X204473000Y-89117049D02*
X204314683Y-89146838D01*
X204098559Y-89285910D01*
X203953569Y-89498110D01*
X203902560Y-89750000D01*
X203902560Y-91250000D01*
X203946838Y-91485317D01*
X204085910Y-91701441D01*
X204298110Y-91846431D01*
X204473000Y-91881847D01*
X204473000Y-93717049D01*
X204314683Y-93746838D01*
X204098559Y-93885910D01*
X203953569Y-94098110D01*
X203902560Y-94350000D01*
X203902560Y-95850000D01*
X203946838Y-96085317D01*
X204085910Y-96301441D01*
X204298110Y-96446431D01*
X204383149Y-96463652D01*
X204348559Y-96485910D01*
X204203569Y-96698110D01*
X204152560Y-96950000D01*
X204152560Y-99450000D01*
X204196838Y-99685317D01*
X204335910Y-99901441D01*
X204473000Y-99995111D01*
X204473000Y-103873000D01*
X196127000Y-103873000D01*
X196127000Y-82927000D01*
X204473000Y-82927000D01*
X204473000Y-89117049D01*
X204473000Y-89117049D01*
G37*
X204473000Y-89117049D02*
X204314683Y-89146838D01*
X204098559Y-89285910D01*
X203953569Y-89498110D01*
X203902560Y-89750000D01*
X203902560Y-91250000D01*
X203946838Y-91485317D01*
X204085910Y-91701441D01*
X204298110Y-91846431D01*
X204473000Y-91881847D01*
X204473000Y-93717049D01*
X204314683Y-93746838D01*
X204098559Y-93885910D01*
X203953569Y-94098110D01*
X203902560Y-94350000D01*
X203902560Y-95850000D01*
X203946838Y-96085317D01*
X204085910Y-96301441D01*
X204298110Y-96446431D01*
X204383149Y-96463652D01*
X204348559Y-96485910D01*
X204203569Y-96698110D01*
X204152560Y-96950000D01*
X204152560Y-99450000D01*
X204196838Y-99685317D01*
X204335910Y-99901441D01*
X204473000Y-99995111D01*
X204473000Y-103873000D01*
X196127000Y-103873000D01*
X196127000Y-82927000D01*
X204473000Y-82927000D01*
X204473000Y-89117049D01*
G36*
X191673000Y-51421545D02*
X191409003Y-51157086D01*
X190826659Y-50915276D01*
X190196107Y-50914725D01*
X189613343Y-51155519D01*
X189167086Y-51600997D01*
X188925276Y-52183341D01*
X188924725Y-52813893D01*
X189165519Y-53396657D01*
X189538471Y-53770261D01*
X189167086Y-54140997D01*
X188925276Y-54723341D01*
X188924725Y-55353893D01*
X188982202Y-55492996D01*
X188647598Y-55827600D01*
X188482851Y-56074162D01*
X188424999Y-56365001D01*
X188424999Y-57700199D01*
X187662599Y-58462599D01*
X187497852Y-58709161D01*
X187440000Y-59000000D01*
X187440000Y-60485198D01*
X186062599Y-61862599D01*
X185897852Y-62109161D01*
X185840000Y-62400000D01*
X185840000Y-65085198D01*
X182462599Y-68462599D01*
X182297852Y-68709161D01*
X182240000Y-69000000D01*
X182240000Y-118974998D01*
X182297852Y-119265837D01*
X182462599Y-119512399D01*
X187465200Y-124515000D01*
X187173691Y-124515000D01*
X186940302Y-124611673D01*
X186761673Y-124790301D01*
X186665000Y-125023690D01*
X186665000Y-125314250D01*
X186823750Y-125473000D01*
X187773000Y-125473000D01*
X187773000Y-125453000D01*
X188027000Y-125453000D01*
X188027000Y-125473000D01*
X188047000Y-125473000D01*
X188047000Y-125727000D01*
X188027000Y-125727000D01*
X188027000Y-126526250D01*
X188100750Y-126600000D01*
X188027000Y-126673750D01*
X188027000Y-127473000D01*
X188047000Y-127473000D01*
X188047000Y-127727000D01*
X188027000Y-127727000D01*
X188027000Y-128526250D01*
X188185750Y-128685000D01*
X188626309Y-128685000D01*
X188859698Y-128588327D01*
X189000936Y-128447090D01*
X189035910Y-128501441D01*
X189248110Y-128646431D01*
X189500000Y-128697440D01*
X190700000Y-128697440D01*
X190935317Y-128653162D01*
X191151441Y-128514090D01*
X191218500Y-128415946D01*
X191218500Y-128432002D01*
X191377248Y-128432002D01*
X191218500Y-128590750D01*
X191218500Y-128685309D01*
X191315173Y-128918698D01*
X191493801Y-129097327D01*
X191727190Y-129194000D01*
X192139250Y-129194000D01*
X192298000Y-129035250D01*
X192298000Y-128432000D01*
X192552000Y-128432000D01*
X192552000Y-129035250D01*
X192710750Y-129194000D01*
X193122810Y-129194000D01*
X193356199Y-129097327D01*
X193534827Y-128918698D01*
X193631500Y-128685309D01*
X193631500Y-128590750D01*
X193472750Y-128432000D01*
X192552000Y-128432000D01*
X192298000Y-128432000D01*
X192278000Y-128432000D01*
X192278000Y-128178000D01*
X192298000Y-128178000D01*
X192298000Y-128158000D01*
X192552000Y-128158000D01*
X192552000Y-128178000D01*
X193472750Y-128178000D01*
X193631500Y-128019250D01*
X193631500Y-127924691D01*
X193534827Y-127691302D01*
X193508291Y-127664765D01*
X193592931Y-127540890D01*
X193643940Y-127289000D01*
X193643940Y-126781000D01*
X193599662Y-126545683D01*
X193505334Y-126399093D01*
X193532310Y-126359612D01*
X195871950Y-128699252D01*
X195967599Y-128842401D01*
X196214161Y-129007148D01*
X196505000Y-129065000D01*
X197819260Y-129065000D01*
X197951610Y-129155431D01*
X198203500Y-129206440D01*
X199346500Y-129206440D01*
X199581817Y-129162162D01*
X199797941Y-129023090D01*
X199942931Y-128810890D01*
X199993940Y-128559000D01*
X199993940Y-128158516D01*
X200085910Y-128301441D01*
X200298110Y-128446431D01*
X200550000Y-128497440D01*
X201750000Y-128497440D01*
X201985317Y-128453162D01*
X202201441Y-128314090D01*
X202247969Y-128245994D01*
X202390302Y-128388327D01*
X202623691Y-128485000D01*
X203064250Y-128485000D01*
X203223000Y-128326250D01*
X203223000Y-127527000D01*
X203477000Y-127527000D01*
X203477000Y-128326250D01*
X203635750Y-128485000D01*
X204076309Y-128485000D01*
X204309698Y-128388327D01*
X204488327Y-128209699D01*
X204585000Y-127976310D01*
X204585000Y-127685750D01*
X204426250Y-127527000D01*
X203477000Y-127527000D01*
X203223000Y-127527000D01*
X203203000Y-127527000D01*
X203203000Y-127273000D01*
X203223000Y-127273000D01*
X203223000Y-126473750D01*
X203149250Y-126400000D01*
X203223000Y-126326250D01*
X203223000Y-125527000D01*
X203477000Y-125527000D01*
X203477000Y-126326250D01*
X203550750Y-126400000D01*
X203477000Y-126473750D01*
X203477000Y-127273000D01*
X204426250Y-127273000D01*
X204585000Y-127114250D01*
X204585000Y-126823690D01*
X204488327Y-126590301D01*
X204309698Y-126411673D01*
X204281517Y-126400000D01*
X204309698Y-126388327D01*
X204488327Y-126209699D01*
X204585000Y-125976310D01*
X204585000Y-125685750D01*
X204426250Y-125527000D01*
X203477000Y-125527000D01*
X203223000Y-125527000D01*
X203203000Y-125527000D01*
X203203000Y-125273000D01*
X203223000Y-125273000D01*
X203223000Y-125253000D01*
X203477000Y-125253000D01*
X203477000Y-125273000D01*
X204426250Y-125273000D01*
X204585000Y-125114250D01*
X204585000Y-124823690D01*
X204488327Y-124590301D01*
X204309698Y-124411673D01*
X204076309Y-124315000D01*
X203784800Y-124315000D01*
X208539800Y-119560000D01*
X208566889Y-119560000D01*
X208641314Y-119634555D01*
X209003212Y-119784828D01*
X209395069Y-119785170D01*
X209757229Y-119635529D01*
X210034555Y-119358686D01*
X210184828Y-118996788D01*
X210185170Y-118604931D01*
X210035529Y-118242771D01*
X209758686Y-117965445D01*
X209658104Y-117923680D01*
X209658199Y-117814474D01*
X209576469Y-117616671D01*
X209634555Y-117558686D01*
X209784828Y-117196788D01*
X209785170Y-116804931D01*
X209659050Y-116499696D01*
X209784828Y-116196788D01*
X209785170Y-115804931D01*
X209635529Y-115442771D01*
X209593000Y-115400168D01*
X209634555Y-115358686D01*
X209784828Y-114996788D01*
X209785170Y-114604931D01*
X209776998Y-114585154D01*
X209795069Y-114585170D01*
X210157229Y-114435529D01*
X210434555Y-114158686D01*
X210584828Y-113796788D01*
X210585170Y-113404931D01*
X210435529Y-113042771D01*
X210360000Y-112967110D01*
X210360000Y-112092878D01*
X210332194Y-111953090D01*
X210302148Y-111802038D01*
X210137401Y-111555477D01*
X206144513Y-107562589D01*
X205897951Y-107397842D01*
X205607112Y-107339990D01*
X201700010Y-107339990D01*
X201409171Y-107397842D01*
X201162609Y-107562589D01*
X200362599Y-108362599D01*
X200264634Y-108509215D01*
X200064683Y-108546838D01*
X199993940Y-108592360D01*
X199993940Y-108441000D01*
X199949662Y-108205683D01*
X199810590Y-107989559D01*
X199598390Y-107844569D01*
X199465724Y-107817703D01*
X199430250Y-107794000D01*
X199523000Y-107701250D01*
X199523000Y-106727000D01*
X199777000Y-106727000D01*
X199777000Y-107701250D01*
X199935750Y-107860000D01*
X200526309Y-107860000D01*
X200759698Y-107763327D01*
X200938327Y-107584699D01*
X201035000Y-107351310D01*
X201035000Y-106885750D01*
X200876250Y-106727000D01*
X199777000Y-106727000D01*
X199523000Y-106727000D01*
X199503000Y-106727000D01*
X199503000Y-106473000D01*
X199523000Y-106473000D01*
X199523000Y-105498750D01*
X199777000Y-105498750D01*
X199777000Y-106473000D01*
X200876250Y-106473000D01*
X201035000Y-106314250D01*
X201035000Y-105848690D01*
X200938327Y-105615301D01*
X200759698Y-105436673D01*
X200526309Y-105340000D01*
X199935750Y-105340000D01*
X199777000Y-105498750D01*
X199523000Y-105498750D01*
X199364250Y-105340000D01*
X198773691Y-105340000D01*
X198540302Y-105436673D01*
X198399064Y-105577910D01*
X198364090Y-105523559D01*
X198285000Y-105469519D01*
X198285000Y-104635000D01*
X204600000Y-104635000D01*
X204830795Y-104591573D01*
X205042767Y-104455173D01*
X205184971Y-104247051D01*
X205235000Y-104000000D01*
X205235000Y-100085000D01*
X205514250Y-100085000D01*
X205673000Y-99926250D01*
X205673000Y-98327000D01*
X205927000Y-98327000D01*
X205927000Y-99926250D01*
X206085750Y-100085000D01*
X206926309Y-100085000D01*
X207159698Y-99988327D01*
X207338327Y-99809699D01*
X207435000Y-99576310D01*
X207435000Y-98485750D01*
X207276250Y-98327000D01*
X205927000Y-98327000D01*
X205673000Y-98327000D01*
X205653000Y-98327000D01*
X205653000Y-98073000D01*
X205673000Y-98073000D01*
X205673000Y-98053000D01*
X205927000Y-98053000D01*
X205927000Y-98073000D01*
X207276250Y-98073000D01*
X207435000Y-97914250D01*
X207435000Y-96823690D01*
X207338327Y-96590301D01*
X207159698Y-96411673D01*
X206966413Y-96331612D01*
X207075000Y-96223026D01*
X207190301Y-96338327D01*
X207423690Y-96435000D01*
X208514250Y-96435000D01*
X208673000Y-96276250D01*
X208673000Y-94927000D01*
X208927000Y-94927000D01*
X208927000Y-96276250D01*
X209085750Y-96435000D01*
X210176310Y-96435000D01*
X210409699Y-96338327D01*
X210588327Y-96159698D01*
X210685000Y-95926309D01*
X210685000Y-95085750D01*
X210526250Y-94927000D01*
X208927000Y-94927000D01*
X208673000Y-94927000D01*
X208653000Y-94927000D01*
X208653000Y-94673000D01*
X208673000Y-94673000D01*
X208673000Y-93323750D01*
X208514250Y-93165000D01*
X207423690Y-93165000D01*
X207197440Y-93258716D01*
X207197440Y-92327646D01*
X207298110Y-92396431D01*
X207550000Y-92447440D01*
X209181650Y-92447440D01*
X209899210Y-93165000D01*
X209085750Y-93165000D01*
X208927000Y-93323750D01*
X208927000Y-94673000D01*
X210526250Y-94673000D01*
X210685000Y-94514250D01*
X210685000Y-93950790D01*
X210865000Y-94130790D01*
X210865000Y-144000000D01*
X211027517Y-144817029D01*
X211490327Y-145509673D01*
X217690327Y-151709673D01*
X218382971Y-152172483D01*
X219200000Y-152335000D01*
X226800000Y-152335000D01*
X227617029Y-152172483D01*
X228309673Y-151709673D01*
X233289673Y-146729673D01*
X233752483Y-146037029D01*
X233915000Y-145220000D01*
X233915000Y-141713970D01*
X234405635Y-141713970D01*
X234565418Y-142032739D01*
X235356187Y-142342723D01*
X236205387Y-142326497D01*
X236914582Y-142032739D01*
X237074365Y-141713970D01*
X235740000Y-140379605D01*
X234405635Y-141713970D01*
X233915000Y-141713970D01*
X233915000Y-141378461D01*
X234226030Y-141534365D01*
X235560395Y-140200000D01*
X235919605Y-140200000D01*
X237253970Y-141534365D01*
X237572739Y-141374582D01*
X237882723Y-140583813D01*
X237866497Y-139734613D01*
X237572739Y-139025418D01*
X237253970Y-138865635D01*
X235919605Y-140200000D01*
X235560395Y-140200000D01*
X234226030Y-138865635D01*
X233907261Y-139025418D01*
X233759984Y-139401122D01*
X233591020Y-138992200D01*
X233285384Y-138686030D01*
X234405635Y-138686030D01*
X235740000Y-140020395D01*
X237074365Y-138686030D01*
X236914582Y-138367261D01*
X236123813Y-138057277D01*
X235274613Y-138073503D01*
X234565418Y-138367261D01*
X234405635Y-138686030D01*
X233285384Y-138686030D01*
X232990959Y-138391091D01*
X232206541Y-138065372D01*
X231357185Y-138064630D01*
X230572200Y-138388980D01*
X229971091Y-138989041D01*
X229799982Y-139401118D01*
X229631020Y-138992200D01*
X229030959Y-138391091D01*
X228246541Y-138065372D01*
X227397185Y-138064630D01*
X226612200Y-138388980D01*
X226011091Y-138989041D01*
X225995000Y-139027792D01*
X225995000Y-131773970D01*
X249665635Y-131773970D01*
X249825418Y-132092739D01*
X250616187Y-132402723D01*
X251465387Y-132386497D01*
X252174582Y-132092739D01*
X252334365Y-131773970D01*
X251000000Y-130439605D01*
X249665635Y-131773970D01*
X225995000Y-131773970D01*
X225995000Y-131224346D01*
X227343159Y-129876187D01*
X248857277Y-129876187D01*
X248873503Y-130725387D01*
X249167261Y-131434582D01*
X249486030Y-131594365D01*
X250820395Y-130260000D01*
X251179605Y-130260000D01*
X252513970Y-131594365D01*
X252832739Y-131434582D01*
X253142723Y-130643813D01*
X253126497Y-129794613D01*
X252832739Y-129085418D01*
X252513970Y-128925635D01*
X251179605Y-130260000D01*
X250820395Y-130260000D01*
X249486030Y-128925635D01*
X249167261Y-129085418D01*
X248857277Y-129876187D01*
X227343159Y-129876187D01*
X236704346Y-120515000D01*
X249826034Y-120515000D01*
X249792200Y-120528980D01*
X249191091Y-121129041D01*
X248865372Y-121913459D01*
X248864630Y-122762815D01*
X249188980Y-123547800D01*
X249789041Y-124148909D01*
X250201118Y-124320018D01*
X249792200Y-124488980D01*
X249191091Y-125089041D01*
X248865372Y-125873459D01*
X248864630Y-126722815D01*
X249188980Y-127507800D01*
X249789041Y-128108909D01*
X250191018Y-128275825D01*
X249825418Y-128427261D01*
X249665635Y-128746030D01*
X251000000Y-130080395D01*
X252334365Y-128746030D01*
X252174582Y-128427261D01*
X251798878Y-128279984D01*
X252207800Y-128111020D01*
X252808909Y-127510959D01*
X253134628Y-126726541D01*
X253135370Y-125877185D01*
X252811020Y-125092200D01*
X252210959Y-124491091D01*
X251798882Y-124319982D01*
X252207800Y-124151020D01*
X252808909Y-123550959D01*
X253134628Y-122766541D01*
X253135370Y-121917185D01*
X252811020Y-121132200D01*
X252210959Y-120531091D01*
X251798882Y-120359982D01*
X252207800Y-120191020D01*
X252808909Y-119590959D01*
X253134628Y-118806541D01*
X253135370Y-117957185D01*
X252811020Y-117172200D01*
X252210959Y-116571091D01*
X251798882Y-116399982D01*
X252207800Y-116231020D01*
X252808909Y-115630959D01*
X253134628Y-114846541D01*
X253135370Y-113997185D01*
X252811020Y-113212200D01*
X252210959Y-112611091D01*
X251798882Y-112439982D01*
X252207800Y-112271020D01*
X252808909Y-111670959D01*
X253134628Y-110886541D01*
X253135370Y-110037185D01*
X252811020Y-109252200D01*
X252210959Y-108651091D01*
X251798882Y-108479982D01*
X252207800Y-108311020D01*
X252808909Y-107710959D01*
X253134628Y-106926541D01*
X253135370Y-106077185D01*
X252811020Y-105292200D01*
X252210959Y-104691091D01*
X251798882Y-104519982D01*
X252207800Y-104351020D01*
X252808909Y-103750959D01*
X253134628Y-102966541D01*
X253135370Y-102117185D01*
X252811020Y-101332200D01*
X252210959Y-100731091D01*
X251798882Y-100559982D01*
X252207800Y-100391020D01*
X252808909Y-99790959D01*
X253134628Y-99006541D01*
X253135370Y-98157185D01*
X252811020Y-97372200D01*
X252210959Y-96771091D01*
X251798882Y-96599982D01*
X252207800Y-96431020D01*
X252808909Y-95830959D01*
X253134628Y-95046541D01*
X253135370Y-94197185D01*
X252811020Y-93412200D01*
X252210959Y-92811091D01*
X251798882Y-92639982D01*
X252207800Y-92471020D01*
X252808909Y-91870959D01*
X253134628Y-91086541D01*
X253135370Y-90237185D01*
X252811020Y-89452200D01*
X252210959Y-88851091D01*
X251798882Y-88679982D01*
X252207800Y-88511020D01*
X252808909Y-87910959D01*
X253134628Y-87126541D01*
X253135370Y-86277185D01*
X252811020Y-85492200D01*
X252210959Y-84891091D01*
X251798882Y-84719982D01*
X252207800Y-84551020D01*
X252808909Y-83950959D01*
X253134628Y-83166541D01*
X253135370Y-82317185D01*
X252811020Y-81532200D01*
X252210959Y-80931091D01*
X251798882Y-80759982D01*
X252207800Y-80591020D01*
X252808909Y-79990959D01*
X253134628Y-79206541D01*
X253135370Y-78357185D01*
X252811020Y-77572200D01*
X252210959Y-76971091D01*
X251798882Y-76799982D01*
X252207800Y-76631020D01*
X252808909Y-76030959D01*
X253134628Y-75246541D01*
X253135370Y-74397185D01*
X252811020Y-73612200D01*
X252210959Y-73011091D01*
X251798882Y-72839982D01*
X252207800Y-72671020D01*
X252808909Y-72070959D01*
X253134628Y-71286541D01*
X253135370Y-70437185D01*
X252811020Y-69652200D01*
X252210959Y-69051091D01*
X251426541Y-68725372D01*
X250577185Y-68724630D01*
X250445029Y-68779236D01*
X247285000Y-65619208D01*
X247285000Y-62600000D01*
X247141513Y-61878642D01*
X246732896Y-61267104D01*
X242647440Y-57181648D01*
X242647440Y-54310000D01*
X242603162Y-54074683D01*
X242464090Y-53858559D01*
X242251890Y-53713569D01*
X242000000Y-53662560D01*
X235000000Y-53662560D01*
X234764683Y-53706838D01*
X234548559Y-53845910D01*
X234403569Y-54058110D01*
X234352560Y-54310000D01*
X234352560Y-61310000D01*
X234396838Y-61545317D01*
X234535910Y-61761441D01*
X234748110Y-61906431D01*
X235000000Y-61957440D01*
X242000000Y-61957440D01*
X242077134Y-61942926D01*
X242246733Y-62112525D01*
X242000000Y-62062560D01*
X235000000Y-62062560D01*
X234764683Y-62106838D01*
X234548559Y-62245910D01*
X234403569Y-62458110D01*
X234352560Y-62710000D01*
X234352560Y-69710000D01*
X234396838Y-69945317D01*
X234535910Y-70161441D01*
X234748110Y-70306431D01*
X235000000Y-70357440D01*
X241750328Y-70357440D01*
X241855448Y-70462560D01*
X235000000Y-70462560D01*
X234764683Y-70506838D01*
X234548559Y-70645910D01*
X234403569Y-70858110D01*
X234352560Y-71110000D01*
X234352560Y-78110000D01*
X234396838Y-78345317D01*
X234535910Y-78561441D01*
X234748110Y-78706431D01*
X235000000Y-78757440D01*
X241731649Y-78757440D01*
X241836769Y-78862560D01*
X235000000Y-78862560D01*
X234764683Y-78906838D01*
X234548559Y-79045910D01*
X234403569Y-79258110D01*
X234352560Y-79510000D01*
X234352560Y-86510000D01*
X234396838Y-86745317D01*
X234535910Y-86961441D01*
X234748110Y-87106431D01*
X235000000Y-87157440D01*
X241836770Y-87157440D01*
X241731650Y-87262560D01*
X235000000Y-87262560D01*
X234764683Y-87306838D01*
X234548559Y-87445910D01*
X234403569Y-87658110D01*
X234352560Y-87910000D01*
X234352560Y-94910000D01*
X234396838Y-95145317D01*
X234535910Y-95361441D01*
X234748110Y-95506431D01*
X235000000Y-95557440D01*
X241315448Y-95557440D01*
X241210328Y-95662560D01*
X235000000Y-95662560D01*
X234764683Y-95706838D01*
X234548559Y-95845910D01*
X234403569Y-96058110D01*
X234352560Y-96310000D01*
X234352560Y-103310000D01*
X234396838Y-103545317D01*
X234535910Y-103761441D01*
X234748110Y-103906431D01*
X235000000Y-103957440D01*
X242000000Y-103957440D01*
X242235317Y-103913162D01*
X242451441Y-103774090D01*
X242596431Y-103561890D01*
X242647440Y-103310000D01*
X242647440Y-99557032D01*
X244065200Y-98139272D01*
X243858487Y-98448639D01*
X243748255Y-99002815D01*
X243715000Y-99169998D01*
X243715000Y-103219208D01*
X242546923Y-104387285D01*
X242464090Y-104258559D01*
X242251890Y-104113569D01*
X242000000Y-104062560D01*
X235000000Y-104062560D01*
X234764683Y-104106838D01*
X234548559Y-104245910D01*
X234403569Y-104458110D01*
X234352560Y-104710000D01*
X234352560Y-111710000D01*
X234396838Y-111945317D01*
X234535910Y-112161441D01*
X234748110Y-112306431D01*
X235000000Y-112357440D01*
X242000000Y-112357440D01*
X242235317Y-112313162D01*
X242451441Y-112174090D01*
X242596431Y-111961890D01*
X242647440Y-111710000D01*
X242647440Y-109593314D01*
X242722896Y-109542896D01*
X246932896Y-105332896D01*
X247341513Y-104721359D01*
X247485000Y-104000000D01*
X247485000Y-99950790D01*
X248865007Y-98570783D01*
X248864630Y-99002815D01*
X249188980Y-99787800D01*
X249789041Y-100388909D01*
X250201118Y-100560018D01*
X249792200Y-100728980D01*
X249191091Y-101329041D01*
X248865372Y-102113459D01*
X248864630Y-102962815D01*
X249188980Y-103747800D01*
X249789041Y-104348909D01*
X250201118Y-104520018D01*
X249792200Y-104688980D01*
X249191091Y-105289041D01*
X248865372Y-106073459D01*
X248864630Y-106922815D01*
X249188980Y-107707800D01*
X249789041Y-108308909D01*
X250201118Y-108480018D01*
X249792200Y-108648980D01*
X249191091Y-109249041D01*
X248865372Y-110033459D01*
X248864630Y-110882815D01*
X249188980Y-111667800D01*
X249789041Y-112268909D01*
X250201118Y-112440018D01*
X249792200Y-112608980D01*
X249191091Y-113209041D01*
X248865372Y-113993459D01*
X248864630Y-114842815D01*
X249188980Y-115627800D01*
X249789041Y-116228909D01*
X249827792Y-116245000D01*
X235820000Y-116245000D01*
X235002970Y-116407517D01*
X234310327Y-116870327D01*
X222350327Y-128830327D01*
X221887517Y-129522971D01*
X221725000Y-130340000D01*
X221725000Y-140199282D01*
X221724630Y-140622815D01*
X222048980Y-141407800D01*
X222649041Y-142008909D01*
X223433459Y-142334628D01*
X224282815Y-142335370D01*
X225067800Y-142011020D01*
X225668909Y-141410959D01*
X225685000Y-141372208D01*
X225685000Y-142495654D01*
X224315654Y-143865000D01*
X222684346Y-143865000D01*
X220335000Y-141515654D01*
X220335000Y-113085001D01*
X229639999Y-113085001D01*
X230361358Y-112941514D01*
X230972895Y-112532897D01*
X231138438Y-112367354D01*
X231821358Y-112231513D01*
X231962148Y-112137440D01*
X232850000Y-112137440D01*
X233085317Y-112093162D01*
X233301441Y-111954090D01*
X233446431Y-111741890D01*
X233497440Y-111490000D01*
X233497440Y-109490000D01*
X233453162Y-109254683D01*
X233314090Y-109038559D01*
X233101890Y-108893569D01*
X232850000Y-108842560D01*
X231962148Y-108842560D01*
X231821358Y-108748487D01*
X231100000Y-108605000D01*
X230350000Y-108605000D01*
X229628641Y-108748487D01*
X229487851Y-108842560D01*
X229350000Y-108842560D01*
X229114683Y-108886838D01*
X228898559Y-109025910D01*
X228760000Y-109228698D01*
X228760000Y-108655105D01*
X228901441Y-108564090D01*
X229046431Y-108351890D01*
X229097440Y-108100000D01*
X229097440Y-107505973D01*
X229098110Y-107506431D01*
X229350000Y-107557440D01*
X232850000Y-107557440D01*
X233085317Y-107513162D01*
X233301441Y-107374090D01*
X233446431Y-107161890D01*
X233497440Y-106910000D01*
X233497440Y-104910000D01*
X233453162Y-104674683D01*
X233314090Y-104458559D01*
X233101890Y-104313569D01*
X232850000Y-104262560D01*
X229350000Y-104262560D01*
X229334466Y-104265483D01*
X229532896Y-104132896D01*
X229690792Y-103975000D01*
X231100000Y-103975000D01*
X231821358Y-103831513D01*
X231962148Y-103737440D01*
X232850000Y-103737440D01*
X233085317Y-103693162D01*
X233301441Y-103554090D01*
X233446431Y-103341890D01*
X233497440Y-103090000D01*
X233497440Y-101090000D01*
X233453162Y-100854683D01*
X233314090Y-100638559D01*
X233101890Y-100493569D01*
X232850000Y-100442560D01*
X231962148Y-100442560D01*
X231821358Y-100348487D01*
X231100000Y-100205000D01*
X228910000Y-100205000D01*
X228805590Y-100225768D01*
X228901441Y-100164090D01*
X229046431Y-99951890D01*
X229097440Y-99700000D01*
X229097440Y-99105973D01*
X229098110Y-99106431D01*
X229350000Y-99157440D01*
X232850000Y-99157440D01*
X233085317Y-99113162D01*
X233301441Y-98974090D01*
X233446431Y-98761890D01*
X233497440Y-98510000D01*
X233497440Y-96510000D01*
X233453162Y-96274683D01*
X233314090Y-96058559D01*
X233101890Y-95913569D01*
X232850000Y-95862560D01*
X229350000Y-95862560D01*
X229114683Y-95906838D01*
X228999348Y-95981054D01*
X228914090Y-95848559D01*
X228737733Y-95728059D01*
X228890792Y-95575000D01*
X231100000Y-95575000D01*
X231821358Y-95431513D01*
X231962148Y-95337440D01*
X232850000Y-95337440D01*
X233085317Y-95293162D01*
X233301441Y-95154090D01*
X233446431Y-94941890D01*
X233497440Y-94690000D01*
X233497440Y-92690000D01*
X233453162Y-92454683D01*
X233314090Y-92238559D01*
X233101890Y-92093569D01*
X232850000Y-92042560D01*
X231962148Y-92042560D01*
X231821358Y-91948487D01*
X231100000Y-91805000D01*
X228837865Y-91805000D01*
X228901441Y-91764090D01*
X229046431Y-91551890D01*
X229097440Y-91300000D01*
X229097440Y-90705973D01*
X229098110Y-90706431D01*
X229350000Y-90757440D01*
X232850000Y-90757440D01*
X233085317Y-90713162D01*
X233301441Y-90574090D01*
X233446431Y-90361890D01*
X233497440Y-90110000D01*
X233497440Y-88110000D01*
X233453162Y-87874683D01*
X233314090Y-87658559D01*
X233101890Y-87513569D01*
X232850000Y-87462560D01*
X229350000Y-87462560D01*
X229114683Y-87506838D01*
X228999348Y-87581054D01*
X228914090Y-87448559D01*
X228837804Y-87396435D01*
X228932896Y-87332896D01*
X229090792Y-87175000D01*
X231100000Y-87175000D01*
X231821358Y-87031513D01*
X231962148Y-86937440D01*
X232850000Y-86937440D01*
X233085317Y-86893162D01*
X233301441Y-86754090D01*
X233446431Y-86541890D01*
X233497440Y-86290000D01*
X233497440Y-84290000D01*
X233453162Y-84054683D01*
X233314090Y-83838559D01*
X233101890Y-83693569D01*
X232850000Y-83642560D01*
X231962148Y-83642560D01*
X231821358Y-83548487D01*
X231100000Y-83405000D01*
X228837865Y-83405000D01*
X228901441Y-83364090D01*
X229046431Y-83151890D01*
X229097440Y-82900000D01*
X229097440Y-82305973D01*
X229098110Y-82306431D01*
X229350000Y-82357440D01*
X232850000Y-82357440D01*
X233085317Y-82313162D01*
X233301441Y-82174090D01*
X233446431Y-81961890D01*
X233497440Y-81710000D01*
X233497440Y-79710000D01*
X233453162Y-79474683D01*
X233314090Y-79258559D01*
X233101890Y-79113569D01*
X232850000Y-79062560D01*
X229350000Y-79062560D01*
X229114683Y-79106838D01*
X228999348Y-79181054D01*
X228987969Y-79163370D01*
X229332896Y-78932896D01*
X229490792Y-78775000D01*
X231100000Y-78775000D01*
X231821358Y-78631513D01*
X231962148Y-78537440D01*
X232850000Y-78537440D01*
X233085317Y-78493162D01*
X233301441Y-78354090D01*
X233446431Y-78141890D01*
X233497440Y-77890000D01*
X233497440Y-75890000D01*
X233453162Y-75654683D01*
X233314090Y-75438559D01*
X233101890Y-75293569D01*
X232850000Y-75242560D01*
X231962148Y-75242560D01*
X231821358Y-75148487D01*
X231100000Y-75005000D01*
X228837865Y-75005000D01*
X228901441Y-74964090D01*
X229046431Y-74751890D01*
X229097440Y-74500000D01*
X229097440Y-73905973D01*
X229098110Y-73906431D01*
X229350000Y-73957440D01*
X232850000Y-73957440D01*
X233085317Y-73913162D01*
X233301441Y-73774090D01*
X233446431Y-73561890D01*
X233497440Y-73310000D01*
X233497440Y-71310000D01*
X233453162Y-71074683D01*
X233314090Y-70858559D01*
X233101890Y-70713569D01*
X232850000Y-70662560D01*
X229350000Y-70662560D01*
X229114683Y-70706838D01*
X228999348Y-70781054D01*
X228914090Y-70648559D01*
X228837804Y-70596435D01*
X228932896Y-70532896D01*
X229090792Y-70375000D01*
X231100000Y-70375000D01*
X231821358Y-70231513D01*
X231962148Y-70137440D01*
X232850000Y-70137440D01*
X233085317Y-70093162D01*
X233301441Y-69954090D01*
X233446431Y-69741890D01*
X233497440Y-69490000D01*
X233497440Y-67490000D01*
X233453162Y-67254683D01*
X233314090Y-67038559D01*
X233101890Y-66893569D01*
X232850000Y-66842560D01*
X231962148Y-66842560D01*
X231821358Y-66748487D01*
X231100000Y-66605000D01*
X229059060Y-66605000D01*
X229046710Y-66542914D01*
X229017217Y-66394646D01*
X229046431Y-66351890D01*
X229097440Y-66100000D01*
X229097440Y-65505973D01*
X229098110Y-65506431D01*
X229350000Y-65557440D01*
X232850000Y-65557440D01*
X233085317Y-65513162D01*
X233301441Y-65374090D01*
X233446431Y-65161890D01*
X233497440Y-64910000D01*
X233497440Y-62910000D01*
X233453162Y-62674683D01*
X233314090Y-62458559D01*
X233101890Y-62313569D01*
X232850000Y-62262560D01*
X229350000Y-62262560D01*
X229114683Y-62306838D01*
X228999348Y-62381054D01*
X228927832Y-62269915D01*
X229132896Y-62132896D01*
X229290792Y-61975000D01*
X231100000Y-61975000D01*
X231821358Y-61831513D01*
X231962148Y-61737440D01*
X232850000Y-61737440D01*
X233085317Y-61693162D01*
X233301441Y-61554090D01*
X233446431Y-61341890D01*
X233497440Y-61090000D01*
X233497440Y-59090000D01*
X233453162Y-58854683D01*
X233314090Y-58638559D01*
X233101890Y-58493569D01*
X232850000Y-58442560D01*
X231962148Y-58442560D01*
X231821358Y-58348487D01*
X231100000Y-58205000D01*
X228837865Y-58205000D01*
X228901441Y-58164090D01*
X229046431Y-57951890D01*
X229097440Y-57700000D01*
X229097440Y-57105973D01*
X229098110Y-57106431D01*
X229350000Y-57157440D01*
X232850000Y-57157440D01*
X233085317Y-57113162D01*
X233301441Y-56974090D01*
X233446431Y-56761890D01*
X233497440Y-56510000D01*
X233497440Y-54510000D01*
X233453162Y-54274683D01*
X233314090Y-54058559D01*
X233101890Y-53913569D01*
X232850000Y-53862560D01*
X229350000Y-53862560D01*
X229114683Y-53906838D01*
X228999348Y-53981054D01*
X228914090Y-53848559D01*
X228701890Y-53703569D01*
X228450000Y-53652560D01*
X227550000Y-53652560D01*
X227314683Y-53696838D01*
X227101327Y-53834129D01*
X227014090Y-53698559D01*
X226801890Y-53553569D01*
X226550000Y-53502560D01*
X225750000Y-53502560D01*
X225514683Y-53546838D01*
X225298559Y-53685910D01*
X225199367Y-53831083D01*
X225114090Y-53698559D01*
X224901890Y-53553569D01*
X224650000Y-53502560D01*
X223850000Y-53502560D01*
X223614683Y-53546838D01*
X223398559Y-53685910D01*
X223295912Y-53836139D01*
X223101890Y-53703569D01*
X222850000Y-53652560D01*
X221950000Y-53652560D01*
X221714683Y-53696838D01*
X221498559Y-53835910D01*
X221353569Y-54048110D01*
X221334961Y-54140000D01*
X221097408Y-54140000D01*
X220796788Y-54015172D01*
X220404931Y-54014830D01*
X220042771Y-54164471D01*
X219765445Y-54441314D01*
X219615172Y-54803212D01*
X219614830Y-55195069D01*
X219764471Y-55557229D01*
X220041314Y-55834555D01*
X220403212Y-55984828D01*
X220795069Y-55985170D01*
X221157229Y-55835529D01*
X221332729Y-55660335D01*
X221346838Y-55735317D01*
X221485910Y-55951441D01*
X221554006Y-55997969D01*
X221411673Y-56140302D01*
X221315000Y-56373691D01*
X221315000Y-56814250D01*
X221473750Y-56973000D01*
X222273000Y-56973000D01*
X222273000Y-56953000D01*
X222527000Y-56953000D01*
X222527000Y-56973000D01*
X223326250Y-56973000D01*
X223485000Y-56814250D01*
X223485000Y-56569146D01*
X223598110Y-56646431D01*
X223850000Y-56697440D01*
X224354534Y-56697440D01*
X224261673Y-56790302D01*
X224165000Y-57023691D01*
X224165000Y-57814250D01*
X224323750Y-57973000D01*
X225073000Y-57973000D01*
X225073000Y-56673750D01*
X224986988Y-56587738D01*
X225101441Y-56514090D01*
X225200633Y-56368917D01*
X225285910Y-56501441D01*
X225412686Y-56588064D01*
X225327000Y-56673750D01*
X225327000Y-57973000D01*
X226076250Y-57973000D01*
X226235000Y-57814250D01*
X226235000Y-57023691D01*
X226138327Y-56790302D01*
X226045466Y-56697440D01*
X226550000Y-56697440D01*
X226785317Y-56653162D01*
X226902560Y-56577718D01*
X226902560Y-57700000D01*
X226946838Y-57935317D01*
X227085910Y-58151441D01*
X227240000Y-58256726D01*
X227240000Y-58715077D01*
X227177104Y-58757103D01*
X227019207Y-58915000D01*
X226235000Y-58915000D01*
X226235000Y-58385750D01*
X226076250Y-58227000D01*
X225327000Y-58227000D01*
X225327000Y-58247000D01*
X225073000Y-58247000D01*
X225073000Y-58227000D01*
X224323750Y-58227000D01*
X224165000Y-58385750D01*
X224165000Y-58915000D01*
X220249998Y-58915000D01*
X219528639Y-59058487D01*
X218917102Y-59467104D01*
X217537411Y-60846795D01*
X217382971Y-60877515D01*
X216690327Y-61340325D01*
X216227517Y-62032969D01*
X216065000Y-62849998D01*
X216065000Y-142400000D01*
X216227517Y-143217029D01*
X216690327Y-143909673D01*
X220290327Y-147509673D01*
X220982971Y-147972483D01*
X221448086Y-148065000D01*
X220084346Y-148065000D01*
X215135000Y-143115654D01*
X215135000Y-93599998D01*
X214972483Y-92782969D01*
X214509673Y-92090325D01*
X213817029Y-91627515D01*
X213662589Y-91596795D01*
X211532898Y-89467104D01*
X210921361Y-89058487D01*
X210200002Y-88915000D01*
X209478643Y-89058487D01*
X209337853Y-89152560D01*
X207550000Y-89152560D01*
X207314683Y-89196838D01*
X207098559Y-89335910D01*
X207078683Y-89365000D01*
X207056844Y-89365000D01*
X207014090Y-89298559D01*
X206801890Y-89153569D01*
X206550000Y-89102560D01*
X205235000Y-89102560D01*
X205235000Y-82800000D01*
X205191573Y-82569205D01*
X205055173Y-82357233D01*
X204847051Y-82215029D01*
X204600000Y-82165000D01*
X204170132Y-82165000D01*
X204760132Y-81575000D01*
X207183446Y-81575000D01*
X207390997Y-81782914D01*
X207973341Y-82024724D01*
X208603893Y-82025275D01*
X209186657Y-81784481D01*
X209632914Y-81339003D01*
X209874724Y-80756659D01*
X209875275Y-80126107D01*
X209634481Y-79543343D01*
X209195789Y-79103884D01*
X209226745Y-79016350D01*
X208290000Y-78079605D01*
X207353255Y-79016350D01*
X207384407Y-79104439D01*
X207183496Y-79305000D01*
X204290000Y-79305000D01*
X203855654Y-79391397D01*
X203546673Y-79597852D01*
X203487434Y-79637434D01*
X200959868Y-82165000D01*
X196000000Y-82165000D01*
X195769205Y-82208427D01*
X195557233Y-82344827D01*
X195415029Y-82552949D01*
X195365000Y-82800000D01*
X195365000Y-84079453D01*
X195298603Y-83745654D01*
X195052566Y-83377434D01*
X192095018Y-80419886D01*
X192095275Y-80126107D01*
X191854481Y-79543343D01*
X191481529Y-79169739D01*
X191852914Y-78799003D01*
X192094724Y-78216659D01*
X192095221Y-77647398D01*
X206693812Y-77647398D01*
X206718648Y-78277461D01*
X206911981Y-78744208D01*
X207173650Y-78836745D01*
X208110395Y-77900000D01*
X208469605Y-77900000D01*
X209406350Y-78836745D01*
X209668019Y-78744208D01*
X209886188Y-78152602D01*
X209861352Y-77522539D01*
X209668019Y-77055792D01*
X209406350Y-76963255D01*
X208469605Y-77900000D01*
X208110395Y-77900000D01*
X207173650Y-76963255D01*
X206911981Y-77055792D01*
X206693812Y-77647398D01*
X192095221Y-77647398D01*
X192095275Y-77586107D01*
X191854481Y-77003343D01*
X191481529Y-76629739D01*
X191852914Y-76259003D01*
X192094724Y-75676659D01*
X192095275Y-75046107D01*
X191854481Y-74463343D01*
X191415789Y-74023884D01*
X191446745Y-73936350D01*
X190510000Y-72999605D01*
X189573255Y-73936350D01*
X189604407Y-74024439D01*
X189167086Y-74460997D01*
X188925276Y-75043341D01*
X188924725Y-75673893D01*
X189165519Y-76256657D01*
X189538471Y-76630261D01*
X189167086Y-77000997D01*
X188925276Y-77583341D01*
X188924725Y-78213893D01*
X189165519Y-78796657D01*
X189538471Y-79170261D01*
X189167086Y-79540997D01*
X188925276Y-80123341D01*
X188924725Y-80753893D01*
X189165519Y-81336657D01*
X189610997Y-81782914D01*
X190193341Y-82024724D01*
X190489851Y-82024983D01*
X193115000Y-84650132D01*
X193115000Y-105468156D01*
X193048559Y-105510910D01*
X193002031Y-105579006D01*
X192859698Y-105436673D01*
X192626309Y-105340000D01*
X192035750Y-105340000D01*
X191877000Y-105498750D01*
X191877000Y-106473000D01*
X191897000Y-106473000D01*
X191897000Y-106727000D01*
X191877000Y-106727000D01*
X191877000Y-106747000D01*
X191623000Y-106747000D01*
X191623000Y-106727000D01*
X190523750Y-106727000D01*
X190365000Y-106885750D01*
X190365000Y-107351310D01*
X190461673Y-107584699D01*
X190640302Y-107763327D01*
X190873691Y-107860000D01*
X191464250Y-107860000D01*
X191622998Y-107701252D01*
X191622998Y-107836932D01*
X191618183Y-107837838D01*
X191402059Y-107976910D01*
X191257069Y-108189110D01*
X191206060Y-108441000D01*
X191206060Y-108763782D01*
X191164090Y-108698559D01*
X190951890Y-108553569D01*
X190860000Y-108534961D01*
X190860000Y-108500000D01*
X190802148Y-108209161D01*
X190729209Y-108100000D01*
X190637401Y-107962598D01*
X188523493Y-105848690D01*
X190365000Y-105848690D01*
X190365000Y-106314250D01*
X190523750Y-106473000D01*
X191623000Y-106473000D01*
X191623000Y-105498750D01*
X191464250Y-105340000D01*
X190873691Y-105340000D01*
X190640302Y-105436673D01*
X190461673Y-105615301D01*
X190365000Y-105848690D01*
X188523493Y-105848690D01*
X186760022Y-104085220D01*
X186760022Y-72567398D01*
X188913812Y-72567398D01*
X188938648Y-73197461D01*
X189131981Y-73664208D01*
X189393650Y-73756745D01*
X190330395Y-72820000D01*
X190689605Y-72820000D01*
X191626350Y-73756745D01*
X191888019Y-73664208D01*
X192106188Y-73072602D01*
X192081352Y-72442539D01*
X191888019Y-71975792D01*
X191626350Y-71883255D01*
X190689605Y-72820000D01*
X190330395Y-72820000D01*
X189393650Y-71883255D01*
X189131981Y-71975792D01*
X188913812Y-72567398D01*
X186760022Y-72567398D01*
X186760022Y-70914780D01*
X189128277Y-68546525D01*
X189165519Y-68636657D01*
X189538471Y-69010261D01*
X189167086Y-69380997D01*
X188925276Y-69963341D01*
X188924725Y-70593893D01*
X189165519Y-71176657D01*
X189604211Y-71616116D01*
X189573255Y-71703650D01*
X190510000Y-72640395D01*
X191446745Y-71703650D01*
X191415593Y-71615561D01*
X191852914Y-71179003D01*
X192094724Y-70596659D01*
X192095275Y-69966107D01*
X191854481Y-69383343D01*
X191481529Y-69009739D01*
X191852914Y-68639003D01*
X192094724Y-68056659D01*
X192095275Y-67426107D01*
X191854481Y-66843343D01*
X191481529Y-66469739D01*
X191852914Y-66099003D01*
X192094724Y-65516659D01*
X192095275Y-64886107D01*
X191854481Y-64303343D01*
X191481529Y-63929739D01*
X191852914Y-63559003D01*
X192094724Y-62976659D01*
X192095275Y-62346107D01*
X191854481Y-61763343D01*
X191481529Y-61389739D01*
X191852914Y-61019003D01*
X192094724Y-60436659D01*
X192095275Y-59806107D01*
X191854481Y-59223343D01*
X191481529Y-58849739D01*
X191852914Y-58479003D01*
X192094724Y-57896659D01*
X192095275Y-57266107D01*
X191854481Y-56683343D01*
X191481529Y-56309739D01*
X191673000Y-56118603D01*
X191673000Y-56400000D01*
X191681685Y-56446159D01*
X191708965Y-56488553D01*
X191750590Y-56516994D01*
X191800000Y-56527000D01*
X207000000Y-56527000D01*
X207046159Y-56518315D01*
X207088553Y-56491035D01*
X207116994Y-56449410D01*
X207127000Y-56400000D01*
X207127000Y-56118455D01*
X207318471Y-56310261D01*
X206947086Y-56680997D01*
X206705276Y-57263341D01*
X206704725Y-57893893D01*
X206945519Y-58476657D01*
X207318471Y-58850261D01*
X206947086Y-59220997D01*
X206705276Y-59803341D01*
X206704725Y-60433893D01*
X206945519Y-61016657D01*
X207318471Y-61390261D01*
X206947086Y-61760997D01*
X206705276Y-62343341D01*
X206704725Y-62973893D01*
X206945519Y-63556657D01*
X207318471Y-63930261D01*
X206947086Y-64300997D01*
X206705276Y-64883341D01*
X206704725Y-65513893D01*
X206945519Y-66096657D01*
X207318471Y-66470261D01*
X206947086Y-66840997D01*
X206705276Y-67423341D01*
X206704725Y-68053893D01*
X206945519Y-68636657D01*
X207318471Y-69010261D01*
X206947086Y-69380997D01*
X206705276Y-69963341D01*
X206704725Y-70593893D01*
X206945519Y-71176657D01*
X207318471Y-71550261D01*
X206947086Y-71920997D01*
X206705276Y-72503341D01*
X206704725Y-73133893D01*
X206945519Y-73716657D01*
X207318471Y-74090261D01*
X206947086Y-74460997D01*
X206705276Y-75043341D01*
X206704725Y-75673893D01*
X206945519Y-76256657D01*
X207384211Y-76696116D01*
X207353255Y-76783650D01*
X208290000Y-77720395D01*
X209226745Y-76783650D01*
X209195593Y-76695561D01*
X209632914Y-76259003D01*
X209874724Y-75676659D01*
X209875275Y-75046107D01*
X209634481Y-74463343D01*
X209261529Y-74089739D01*
X209632914Y-73719003D01*
X209874724Y-73136659D01*
X209875275Y-72506107D01*
X209634481Y-71923343D01*
X209261529Y-71549739D01*
X209632914Y-71179003D01*
X209874724Y-70596659D01*
X209875275Y-69966107D01*
X209634481Y-69383343D01*
X209261529Y-69009739D01*
X209632914Y-68639003D01*
X209874724Y-68056659D01*
X209875275Y-67426107D01*
X209634481Y-66843343D01*
X209261529Y-66469739D01*
X209632914Y-66099003D01*
X209874724Y-65516659D01*
X209875275Y-64886107D01*
X209634481Y-64303343D01*
X209261529Y-63929739D01*
X209632914Y-63559003D01*
X209874724Y-62976659D01*
X209875275Y-62346107D01*
X209634481Y-61763343D01*
X209261529Y-61389739D01*
X209632914Y-61019003D01*
X209874724Y-60436659D01*
X209875275Y-59806107D01*
X209634481Y-59223343D01*
X209261529Y-58849739D01*
X209632914Y-58479003D01*
X209874724Y-57896659D01*
X209875170Y-57385750D01*
X221315000Y-57385750D01*
X221315000Y-57826309D01*
X221411673Y-58059698D01*
X221590301Y-58238327D01*
X221823690Y-58335000D01*
X222114250Y-58335000D01*
X222273000Y-58176250D01*
X222273000Y-57227000D01*
X222527000Y-57227000D01*
X222527000Y-58176250D01*
X222685750Y-58335000D01*
X222976310Y-58335000D01*
X223209699Y-58238327D01*
X223388327Y-58059698D01*
X223485000Y-57826309D01*
X223485000Y-57385750D01*
X223326250Y-57227000D01*
X222527000Y-57227000D01*
X222273000Y-57227000D01*
X221473750Y-57227000D01*
X221315000Y-57385750D01*
X209875170Y-57385750D01*
X209875275Y-57266107D01*
X209634481Y-56683343D01*
X209261529Y-56309739D01*
X209632914Y-55939003D01*
X209874724Y-55356659D01*
X209875275Y-54726107D01*
X209634481Y-54143343D01*
X209261529Y-53769739D01*
X209632914Y-53399003D01*
X209874724Y-52816659D01*
X209875275Y-52186107D01*
X209634481Y-51603343D01*
X209189003Y-51157086D01*
X208606659Y-50915276D01*
X207976107Y-50914725D01*
X207393343Y-51155519D01*
X207127000Y-51421397D01*
X207127000Y-50710000D01*
X246473000Y-50710000D01*
X246473000Y-58000000D01*
X246479865Y-58041189D01*
X246505354Y-58084683D01*
X249905354Y-61884683D01*
X249950590Y-61916994D01*
X250000000Y-61927000D01*
X257290000Y-61927000D01*
X257290000Y-146473000D01*
X246600000Y-146473000D01*
X246553841Y-146481685D01*
X246511447Y-146508965D01*
X246483006Y-146550590D01*
X246473000Y-146600000D01*
X246473000Y-157290000D01*
X186527000Y-157290000D01*
X186527000Y-146600000D01*
X186518315Y-146553841D01*
X186491035Y-146511447D01*
X186449410Y-146483006D01*
X186400000Y-146473000D01*
X175710000Y-146473000D01*
X175710000Y-127885750D01*
X186665000Y-127885750D01*
X186665000Y-128176310D01*
X186761673Y-128409699D01*
X186940302Y-128588327D01*
X187173691Y-128685000D01*
X187614250Y-128685000D01*
X187773000Y-128526250D01*
X187773000Y-127727000D01*
X186823750Y-127727000D01*
X186665000Y-127885750D01*
X175710000Y-127885750D01*
X175710000Y-125885750D01*
X186665000Y-125885750D01*
X186665000Y-126176310D01*
X186761673Y-126409699D01*
X186940302Y-126588327D01*
X186968483Y-126600000D01*
X186940302Y-126611673D01*
X186761673Y-126790301D01*
X186665000Y-127023690D01*
X186665000Y-127314250D01*
X186823750Y-127473000D01*
X187773000Y-127473000D01*
X187773000Y-126673750D01*
X187699250Y-126600000D01*
X187773000Y-126526250D01*
X187773000Y-125727000D01*
X186823750Y-125727000D01*
X186665000Y-125885750D01*
X175710000Y-125885750D01*
X175710000Y-62327000D01*
X181600000Y-62327000D01*
X181627305Y-62324030D01*
X181673408Y-62303635D01*
X186473408Y-58903635D01*
X186516994Y-58849410D01*
X186527000Y-58800000D01*
X186527000Y-50710000D01*
X191673000Y-50710000D01*
X191673000Y-51421545D01*
X191673000Y-51421545D01*
G37*
X191673000Y-51421545D02*
X191409003Y-51157086D01*
X190826659Y-50915276D01*
X190196107Y-50914725D01*
X189613343Y-51155519D01*
X189167086Y-51600997D01*
X188925276Y-52183341D01*
X188924725Y-52813893D01*
X189165519Y-53396657D01*
X189538471Y-53770261D01*
X189167086Y-54140997D01*
X188925276Y-54723341D01*
X188924725Y-55353893D01*
X188982202Y-55492996D01*
X188647598Y-55827600D01*
X188482851Y-56074162D01*
X188424999Y-56365001D01*
X188424999Y-57700199D01*
X187662599Y-58462599D01*
X187497852Y-58709161D01*
X187440000Y-59000000D01*
X187440000Y-60485198D01*
X186062599Y-61862599D01*
X185897852Y-62109161D01*
X185840000Y-62400000D01*
X185840000Y-65085198D01*
X182462599Y-68462599D01*
X182297852Y-68709161D01*
X182240000Y-69000000D01*
X182240000Y-118974998D01*
X182297852Y-119265837D01*
X182462599Y-119512399D01*
X187465200Y-124515000D01*
X187173691Y-124515000D01*
X186940302Y-124611673D01*
X186761673Y-124790301D01*
X186665000Y-125023690D01*
X186665000Y-125314250D01*
X186823750Y-125473000D01*
X187773000Y-125473000D01*
X187773000Y-125453000D01*
X188027000Y-125453000D01*
X188027000Y-125473000D01*
X188047000Y-125473000D01*
X188047000Y-125727000D01*
X188027000Y-125727000D01*
X188027000Y-126526250D01*
X188100750Y-126600000D01*
X188027000Y-126673750D01*
X188027000Y-127473000D01*
X188047000Y-127473000D01*
X188047000Y-127727000D01*
X188027000Y-127727000D01*
X188027000Y-128526250D01*
X188185750Y-128685000D01*
X188626309Y-128685000D01*
X188859698Y-128588327D01*
X189000936Y-128447090D01*
X189035910Y-128501441D01*
X189248110Y-128646431D01*
X189500000Y-128697440D01*
X190700000Y-128697440D01*
X190935317Y-128653162D01*
X191151441Y-128514090D01*
X191218500Y-128415946D01*
X191218500Y-128432002D01*
X191377248Y-128432002D01*
X191218500Y-128590750D01*
X191218500Y-128685309D01*
X191315173Y-128918698D01*
X191493801Y-129097327D01*
X191727190Y-129194000D01*
X192139250Y-129194000D01*
X192298000Y-129035250D01*
X192298000Y-128432000D01*
X192552000Y-128432000D01*
X192552000Y-129035250D01*
X192710750Y-129194000D01*
X193122810Y-129194000D01*
X193356199Y-129097327D01*
X193534827Y-128918698D01*
X193631500Y-128685309D01*
X193631500Y-128590750D01*
X193472750Y-128432000D01*
X192552000Y-128432000D01*
X192298000Y-128432000D01*
X192278000Y-128432000D01*
X192278000Y-128178000D01*
X192298000Y-128178000D01*
X192298000Y-128158000D01*
X192552000Y-128158000D01*
X192552000Y-128178000D01*
X193472750Y-128178000D01*
X193631500Y-128019250D01*
X193631500Y-127924691D01*
X193534827Y-127691302D01*
X193508291Y-127664765D01*
X193592931Y-127540890D01*
X193643940Y-127289000D01*
X193643940Y-126781000D01*
X193599662Y-126545683D01*
X193505334Y-126399093D01*
X193532310Y-126359612D01*
X195871950Y-128699252D01*
X195967599Y-128842401D01*
X196214161Y-129007148D01*
X196505000Y-129065000D01*
X197819260Y-129065000D01*
X197951610Y-129155431D01*
X198203500Y-129206440D01*
X199346500Y-129206440D01*
X199581817Y-129162162D01*
X199797941Y-129023090D01*
X199942931Y-128810890D01*
X199993940Y-128559000D01*
X199993940Y-128158516D01*
X200085910Y-128301441D01*
X200298110Y-128446431D01*
X200550000Y-128497440D01*
X201750000Y-128497440D01*
X201985317Y-128453162D01*
X202201441Y-128314090D01*
X202247969Y-128245994D01*
X202390302Y-128388327D01*
X202623691Y-128485000D01*
X203064250Y-128485000D01*
X203223000Y-128326250D01*
X203223000Y-127527000D01*
X203477000Y-127527000D01*
X203477000Y-128326250D01*
X203635750Y-128485000D01*
X204076309Y-128485000D01*
X204309698Y-128388327D01*
X204488327Y-128209699D01*
X204585000Y-127976310D01*
X204585000Y-127685750D01*
X204426250Y-127527000D01*
X203477000Y-127527000D01*
X203223000Y-127527000D01*
X203203000Y-127527000D01*
X203203000Y-127273000D01*
X203223000Y-127273000D01*
X203223000Y-126473750D01*
X203149250Y-126400000D01*
X203223000Y-126326250D01*
X203223000Y-125527000D01*
X203477000Y-125527000D01*
X203477000Y-126326250D01*
X203550750Y-126400000D01*
X203477000Y-126473750D01*
X203477000Y-127273000D01*
X204426250Y-127273000D01*
X204585000Y-127114250D01*
X204585000Y-126823690D01*
X204488327Y-126590301D01*
X204309698Y-126411673D01*
X204281517Y-126400000D01*
X204309698Y-126388327D01*
X204488327Y-126209699D01*
X204585000Y-125976310D01*
X204585000Y-125685750D01*
X204426250Y-125527000D01*
X203477000Y-125527000D01*
X203223000Y-125527000D01*
X203203000Y-125527000D01*
X203203000Y-125273000D01*
X203223000Y-125273000D01*
X203223000Y-125253000D01*
X203477000Y-125253000D01*
X203477000Y-125273000D01*
X204426250Y-125273000D01*
X204585000Y-125114250D01*
X204585000Y-124823690D01*
X204488327Y-124590301D01*
X204309698Y-124411673D01*
X204076309Y-124315000D01*
X203784800Y-124315000D01*
X208539800Y-119560000D01*
X208566889Y-119560000D01*
X208641314Y-119634555D01*
X209003212Y-119784828D01*
X209395069Y-119785170D01*
X209757229Y-119635529D01*
X210034555Y-119358686D01*
X210184828Y-118996788D01*
X210185170Y-118604931D01*
X210035529Y-118242771D01*
X209758686Y-117965445D01*
X209658104Y-117923680D01*
X209658199Y-117814474D01*
X209576469Y-117616671D01*
X209634555Y-117558686D01*
X209784828Y-117196788D01*
X209785170Y-116804931D01*
X209659050Y-116499696D01*
X209784828Y-116196788D01*
X209785170Y-115804931D01*
X209635529Y-115442771D01*
X209593000Y-115400168D01*
X209634555Y-115358686D01*
X209784828Y-114996788D01*
X209785170Y-114604931D01*
X209776998Y-114585154D01*
X209795069Y-114585170D01*
X210157229Y-114435529D01*
X210434555Y-114158686D01*
X210584828Y-113796788D01*
X210585170Y-113404931D01*
X210435529Y-113042771D01*
X210360000Y-112967110D01*
X210360000Y-112092878D01*
X210332194Y-111953090D01*
X210302148Y-111802038D01*
X210137401Y-111555477D01*
X206144513Y-107562589D01*
X205897951Y-107397842D01*
X205607112Y-107339990D01*
X201700010Y-107339990D01*
X201409171Y-107397842D01*
X201162609Y-107562589D01*
X200362599Y-108362599D01*
X200264634Y-108509215D01*
X200064683Y-108546838D01*
X199993940Y-108592360D01*
X199993940Y-108441000D01*
X199949662Y-108205683D01*
X199810590Y-107989559D01*
X199598390Y-107844569D01*
X199465724Y-107817703D01*
X199430250Y-107794000D01*
X199523000Y-107701250D01*
X199523000Y-106727000D01*
X199777000Y-106727000D01*
X199777000Y-107701250D01*
X199935750Y-107860000D01*
X200526309Y-107860000D01*
X200759698Y-107763327D01*
X200938327Y-107584699D01*
X201035000Y-107351310D01*
X201035000Y-106885750D01*
X200876250Y-106727000D01*
X199777000Y-106727000D01*
X199523000Y-106727000D01*
X199503000Y-106727000D01*
X199503000Y-106473000D01*
X199523000Y-106473000D01*
X199523000Y-105498750D01*
X199777000Y-105498750D01*
X199777000Y-106473000D01*
X200876250Y-106473000D01*
X201035000Y-106314250D01*
X201035000Y-105848690D01*
X200938327Y-105615301D01*
X200759698Y-105436673D01*
X200526309Y-105340000D01*
X199935750Y-105340000D01*
X199777000Y-105498750D01*
X199523000Y-105498750D01*
X199364250Y-105340000D01*
X198773691Y-105340000D01*
X198540302Y-105436673D01*
X198399064Y-105577910D01*
X198364090Y-105523559D01*
X198285000Y-105469519D01*
X198285000Y-104635000D01*
X204600000Y-104635000D01*
X204830795Y-104591573D01*
X205042767Y-104455173D01*
X205184971Y-104247051D01*
X205235000Y-104000000D01*
X205235000Y-100085000D01*
X205514250Y-100085000D01*
X205673000Y-99926250D01*
X205673000Y-98327000D01*
X205927000Y-98327000D01*
X205927000Y-99926250D01*
X206085750Y-100085000D01*
X206926309Y-100085000D01*
X207159698Y-99988327D01*
X207338327Y-99809699D01*
X207435000Y-99576310D01*
X207435000Y-98485750D01*
X207276250Y-98327000D01*
X205927000Y-98327000D01*
X205673000Y-98327000D01*
X205653000Y-98327000D01*
X205653000Y-98073000D01*
X205673000Y-98073000D01*
X205673000Y-98053000D01*
X205927000Y-98053000D01*
X205927000Y-98073000D01*
X207276250Y-98073000D01*
X207435000Y-97914250D01*
X207435000Y-96823690D01*
X207338327Y-96590301D01*
X207159698Y-96411673D01*
X206966413Y-96331612D01*
X207075000Y-96223026D01*
X207190301Y-96338327D01*
X207423690Y-96435000D01*
X208514250Y-96435000D01*
X208673000Y-96276250D01*
X208673000Y-94927000D01*
X208927000Y-94927000D01*
X208927000Y-96276250D01*
X209085750Y-96435000D01*
X210176310Y-96435000D01*
X210409699Y-96338327D01*
X210588327Y-96159698D01*
X210685000Y-95926309D01*
X210685000Y-95085750D01*
X210526250Y-94927000D01*
X208927000Y-94927000D01*
X208673000Y-94927000D01*
X208653000Y-94927000D01*
X208653000Y-94673000D01*
X208673000Y-94673000D01*
X208673000Y-93323750D01*
X208514250Y-93165000D01*
X207423690Y-93165000D01*
X207197440Y-93258716D01*
X207197440Y-92327646D01*
X207298110Y-92396431D01*
X207550000Y-92447440D01*
X209181650Y-92447440D01*
X209899210Y-93165000D01*
X209085750Y-93165000D01*
X208927000Y-93323750D01*
X208927000Y-94673000D01*
X210526250Y-94673000D01*
X210685000Y-94514250D01*
X210685000Y-93950790D01*
X210865000Y-94130790D01*
X210865000Y-144000000D01*
X211027517Y-144817029D01*
X211490327Y-145509673D01*
X217690327Y-151709673D01*
X218382971Y-152172483D01*
X219200000Y-152335000D01*
X226800000Y-152335000D01*
X227617029Y-152172483D01*
X228309673Y-151709673D01*
X233289673Y-146729673D01*
X233752483Y-146037029D01*
X233915000Y-145220000D01*
X233915000Y-141713970D01*
X234405635Y-141713970D01*
X234565418Y-142032739D01*
X235356187Y-142342723D01*
X236205387Y-142326497D01*
X236914582Y-142032739D01*
X237074365Y-141713970D01*
X235740000Y-140379605D01*
X234405635Y-141713970D01*
X233915000Y-141713970D01*
X233915000Y-141378461D01*
X234226030Y-141534365D01*
X235560395Y-140200000D01*
X235919605Y-140200000D01*
X237253970Y-141534365D01*
X237572739Y-141374582D01*
X237882723Y-140583813D01*
X237866497Y-139734613D01*
X237572739Y-139025418D01*
X237253970Y-138865635D01*
X235919605Y-140200000D01*
X235560395Y-140200000D01*
X234226030Y-138865635D01*
X233907261Y-139025418D01*
X233759984Y-139401122D01*
X233591020Y-138992200D01*
X233285384Y-138686030D01*
X234405635Y-138686030D01*
X235740000Y-140020395D01*
X237074365Y-138686030D01*
X236914582Y-138367261D01*
X236123813Y-138057277D01*
X235274613Y-138073503D01*
X234565418Y-138367261D01*
X234405635Y-138686030D01*
X233285384Y-138686030D01*
X232990959Y-138391091D01*
X232206541Y-138065372D01*
X231357185Y-138064630D01*
X230572200Y-138388980D01*
X229971091Y-138989041D01*
X229799982Y-139401118D01*
X229631020Y-138992200D01*
X229030959Y-138391091D01*
X228246541Y-138065372D01*
X227397185Y-138064630D01*
X226612200Y-138388980D01*
X226011091Y-138989041D01*
X225995000Y-139027792D01*
X225995000Y-131773970D01*
X249665635Y-131773970D01*
X249825418Y-132092739D01*
X250616187Y-132402723D01*
X251465387Y-132386497D01*
X252174582Y-132092739D01*
X252334365Y-131773970D01*
X251000000Y-130439605D01*
X249665635Y-131773970D01*
X225995000Y-131773970D01*
X225995000Y-131224346D01*
X227343159Y-129876187D01*
X248857277Y-129876187D01*
X248873503Y-130725387D01*
X249167261Y-131434582D01*
X249486030Y-131594365D01*
X250820395Y-130260000D01*
X251179605Y-130260000D01*
X252513970Y-131594365D01*
X252832739Y-131434582D01*
X253142723Y-130643813D01*
X253126497Y-129794613D01*
X252832739Y-129085418D01*
X252513970Y-128925635D01*
X251179605Y-130260000D01*
X250820395Y-130260000D01*
X249486030Y-128925635D01*
X249167261Y-129085418D01*
X248857277Y-129876187D01*
X227343159Y-129876187D01*
X236704346Y-120515000D01*
X249826034Y-120515000D01*
X249792200Y-120528980D01*
X249191091Y-121129041D01*
X248865372Y-121913459D01*
X248864630Y-122762815D01*
X249188980Y-123547800D01*
X249789041Y-124148909D01*
X250201118Y-124320018D01*
X249792200Y-124488980D01*
X249191091Y-125089041D01*
X248865372Y-125873459D01*
X248864630Y-126722815D01*
X249188980Y-127507800D01*
X249789041Y-128108909D01*
X250191018Y-128275825D01*
X249825418Y-128427261D01*
X249665635Y-128746030D01*
X251000000Y-130080395D01*
X252334365Y-128746030D01*
X252174582Y-128427261D01*
X251798878Y-128279984D01*
X252207800Y-128111020D01*
X252808909Y-127510959D01*
X253134628Y-126726541D01*
X253135370Y-125877185D01*
X252811020Y-125092200D01*
X252210959Y-124491091D01*
X251798882Y-124319982D01*
X252207800Y-124151020D01*
X252808909Y-123550959D01*
X253134628Y-122766541D01*
X253135370Y-121917185D01*
X252811020Y-121132200D01*
X252210959Y-120531091D01*
X251798882Y-120359982D01*
X252207800Y-120191020D01*
X252808909Y-119590959D01*
X253134628Y-118806541D01*
X253135370Y-117957185D01*
X252811020Y-117172200D01*
X252210959Y-116571091D01*
X251798882Y-116399982D01*
X252207800Y-116231020D01*
X252808909Y-115630959D01*
X253134628Y-114846541D01*
X253135370Y-113997185D01*
X252811020Y-113212200D01*
X252210959Y-112611091D01*
X251798882Y-112439982D01*
X252207800Y-112271020D01*
X252808909Y-111670959D01*
X253134628Y-110886541D01*
X253135370Y-110037185D01*
X252811020Y-109252200D01*
X252210959Y-108651091D01*
X251798882Y-108479982D01*
X252207800Y-108311020D01*
X252808909Y-107710959D01*
X253134628Y-106926541D01*
X253135370Y-106077185D01*
X252811020Y-105292200D01*
X252210959Y-104691091D01*
X251798882Y-104519982D01*
X252207800Y-104351020D01*
X252808909Y-103750959D01*
X253134628Y-102966541D01*
X253135370Y-102117185D01*
X252811020Y-101332200D01*
X252210959Y-100731091D01*
X251798882Y-100559982D01*
X252207800Y-100391020D01*
X252808909Y-99790959D01*
X253134628Y-99006541D01*
X253135370Y-98157185D01*
X252811020Y-97372200D01*
X252210959Y-96771091D01*
X251798882Y-96599982D01*
X252207800Y-96431020D01*
X252808909Y-95830959D01*
X253134628Y-95046541D01*
X253135370Y-94197185D01*
X252811020Y-93412200D01*
X252210959Y-92811091D01*
X251798882Y-92639982D01*
X252207800Y-92471020D01*
X252808909Y-91870959D01*
X253134628Y-91086541D01*
X253135370Y-90237185D01*
X252811020Y-89452200D01*
X252210959Y-88851091D01*
X251798882Y-88679982D01*
X252207800Y-88511020D01*
X252808909Y-87910959D01*
X253134628Y-87126541D01*
X253135370Y-86277185D01*
X252811020Y-85492200D01*
X252210959Y-84891091D01*
X251798882Y-84719982D01*
X252207800Y-84551020D01*
X252808909Y-83950959D01*
X253134628Y-83166541D01*
X253135370Y-82317185D01*
X252811020Y-81532200D01*
X252210959Y-80931091D01*
X251798882Y-80759982D01*
X252207800Y-80591020D01*
X252808909Y-79990959D01*
X253134628Y-79206541D01*
X253135370Y-78357185D01*
X252811020Y-77572200D01*
X252210959Y-76971091D01*
X251798882Y-76799982D01*
X252207800Y-76631020D01*
X252808909Y-76030959D01*
X253134628Y-75246541D01*
X253135370Y-74397185D01*
X252811020Y-73612200D01*
X252210959Y-73011091D01*
X251798882Y-72839982D01*
X252207800Y-72671020D01*
X252808909Y-72070959D01*
X253134628Y-71286541D01*
X253135370Y-70437185D01*
X252811020Y-69652200D01*
X252210959Y-69051091D01*
X251426541Y-68725372D01*
X250577185Y-68724630D01*
X250445029Y-68779236D01*
X247285000Y-65619208D01*
X247285000Y-62600000D01*
X247141513Y-61878642D01*
X246732896Y-61267104D01*
X242647440Y-57181648D01*
X242647440Y-54310000D01*
X242603162Y-54074683D01*
X242464090Y-53858559D01*
X242251890Y-53713569D01*
X242000000Y-53662560D01*
X235000000Y-53662560D01*
X234764683Y-53706838D01*
X234548559Y-53845910D01*
X234403569Y-54058110D01*
X234352560Y-54310000D01*
X234352560Y-61310000D01*
X234396838Y-61545317D01*
X234535910Y-61761441D01*
X234748110Y-61906431D01*
X235000000Y-61957440D01*
X242000000Y-61957440D01*
X242077134Y-61942926D01*
X242246733Y-62112525D01*
X242000000Y-62062560D01*
X235000000Y-62062560D01*
X234764683Y-62106838D01*
X234548559Y-62245910D01*
X234403569Y-62458110D01*
X234352560Y-62710000D01*
X234352560Y-69710000D01*
X234396838Y-69945317D01*
X234535910Y-70161441D01*
X234748110Y-70306431D01*
X235000000Y-70357440D01*
X241750328Y-70357440D01*
X241855448Y-70462560D01*
X235000000Y-70462560D01*
X234764683Y-70506838D01*
X234548559Y-70645910D01*
X234403569Y-70858110D01*
X234352560Y-71110000D01*
X234352560Y-78110000D01*
X234396838Y-78345317D01*
X234535910Y-78561441D01*
X234748110Y-78706431D01*
X235000000Y-78757440D01*
X241731649Y-78757440D01*
X241836769Y-78862560D01*
X235000000Y-78862560D01*
X234764683Y-78906838D01*
X234548559Y-79045910D01*
X234403569Y-79258110D01*
X234352560Y-79510000D01*
X234352560Y-86510000D01*
X234396838Y-86745317D01*
X234535910Y-86961441D01*
X234748110Y-87106431D01*
X235000000Y-87157440D01*
X241836770Y-87157440D01*
X241731650Y-87262560D01*
X235000000Y-87262560D01*
X234764683Y-87306838D01*
X234548559Y-87445910D01*
X234403569Y-87658110D01*
X234352560Y-87910000D01*
X234352560Y-94910000D01*
X234396838Y-95145317D01*
X234535910Y-95361441D01*
X234748110Y-95506431D01*
X235000000Y-95557440D01*
X241315448Y-95557440D01*
X241210328Y-95662560D01*
X235000000Y-95662560D01*
X234764683Y-95706838D01*
X234548559Y-95845910D01*
X234403569Y-96058110D01*
X234352560Y-96310000D01*
X234352560Y-103310000D01*
X234396838Y-103545317D01*
X234535910Y-103761441D01*
X234748110Y-103906431D01*
X235000000Y-103957440D01*
X242000000Y-103957440D01*
X242235317Y-103913162D01*
X242451441Y-103774090D01*
X242596431Y-103561890D01*
X242647440Y-103310000D01*
X242647440Y-99557032D01*
X244065200Y-98139272D01*
X243858487Y-98448639D01*
X243748255Y-99002815D01*
X243715000Y-99169998D01*
X243715000Y-103219208D01*
X242546923Y-104387285D01*
X242464090Y-104258559D01*
X242251890Y-104113569D01*
X242000000Y-104062560D01*
X235000000Y-104062560D01*
X234764683Y-104106838D01*
X234548559Y-104245910D01*
X234403569Y-104458110D01*
X234352560Y-104710000D01*
X234352560Y-111710000D01*
X234396838Y-111945317D01*
X234535910Y-112161441D01*
X234748110Y-112306431D01*
X235000000Y-112357440D01*
X242000000Y-112357440D01*
X242235317Y-112313162D01*
X242451441Y-112174090D01*
X242596431Y-111961890D01*
X242647440Y-111710000D01*
X242647440Y-109593314D01*
X242722896Y-109542896D01*
X246932896Y-105332896D01*
X247341513Y-104721359D01*
X247485000Y-104000000D01*
X247485000Y-99950790D01*
X248865007Y-98570783D01*
X248864630Y-99002815D01*
X249188980Y-99787800D01*
X249789041Y-100388909D01*
X250201118Y-100560018D01*
X249792200Y-100728980D01*
X249191091Y-101329041D01*
X248865372Y-102113459D01*
X248864630Y-102962815D01*
X249188980Y-103747800D01*
X249789041Y-104348909D01*
X250201118Y-104520018D01*
X249792200Y-104688980D01*
X249191091Y-105289041D01*
X248865372Y-106073459D01*
X248864630Y-106922815D01*
X249188980Y-107707800D01*
X249789041Y-108308909D01*
X250201118Y-108480018D01*
X249792200Y-108648980D01*
X249191091Y-109249041D01*
X248865372Y-110033459D01*
X248864630Y-110882815D01*
X249188980Y-111667800D01*
X249789041Y-112268909D01*
X250201118Y-112440018D01*
X249792200Y-112608980D01*
X249191091Y-113209041D01*
X248865372Y-113993459D01*
X248864630Y-114842815D01*
X249188980Y-115627800D01*
X249789041Y-116228909D01*
X249827792Y-116245000D01*
X235820000Y-116245000D01*
X235002970Y-116407517D01*
X234310327Y-116870327D01*
X222350327Y-128830327D01*
X221887517Y-129522971D01*
X221725000Y-130340000D01*
X221725000Y-140199282D01*
X221724630Y-140622815D01*
X222048980Y-141407800D01*
X222649041Y-142008909D01*
X223433459Y-142334628D01*
X224282815Y-142335370D01*
X225067800Y-142011020D01*
X225668909Y-141410959D01*
X225685000Y-141372208D01*
X225685000Y-142495654D01*
X224315654Y-143865000D01*
X222684346Y-143865000D01*
X220335000Y-141515654D01*
X220335000Y-113085001D01*
X229639999Y-113085001D01*
X230361358Y-112941514D01*
X230972895Y-112532897D01*
X231138438Y-112367354D01*
X231821358Y-112231513D01*
X231962148Y-112137440D01*
X232850000Y-112137440D01*
X233085317Y-112093162D01*
X233301441Y-111954090D01*
X233446431Y-111741890D01*
X233497440Y-111490000D01*
X233497440Y-109490000D01*
X233453162Y-109254683D01*
X233314090Y-109038559D01*
X233101890Y-108893569D01*
X232850000Y-108842560D01*
X231962148Y-108842560D01*
X231821358Y-108748487D01*
X231100000Y-108605000D01*
X230350000Y-108605000D01*
X229628641Y-108748487D01*
X229487851Y-108842560D01*
X229350000Y-108842560D01*
X229114683Y-108886838D01*
X228898559Y-109025910D01*
X228760000Y-109228698D01*
X228760000Y-108655105D01*
X228901441Y-108564090D01*
X229046431Y-108351890D01*
X229097440Y-108100000D01*
X229097440Y-107505973D01*
X229098110Y-107506431D01*
X229350000Y-107557440D01*
X232850000Y-107557440D01*
X233085317Y-107513162D01*
X233301441Y-107374090D01*
X233446431Y-107161890D01*
X233497440Y-106910000D01*
X233497440Y-104910000D01*
X233453162Y-104674683D01*
X233314090Y-104458559D01*
X233101890Y-104313569D01*
X232850000Y-104262560D01*
X229350000Y-104262560D01*
X229334466Y-104265483D01*
X229532896Y-104132896D01*
X229690792Y-103975000D01*
X231100000Y-103975000D01*
X231821358Y-103831513D01*
X231962148Y-103737440D01*
X232850000Y-103737440D01*
X233085317Y-103693162D01*
X233301441Y-103554090D01*
X233446431Y-103341890D01*
X233497440Y-103090000D01*
X233497440Y-101090000D01*
X233453162Y-100854683D01*
X233314090Y-100638559D01*
X233101890Y-100493569D01*
X232850000Y-100442560D01*
X231962148Y-100442560D01*
X231821358Y-100348487D01*
X231100000Y-100205000D01*
X228910000Y-100205000D01*
X228805590Y-100225768D01*
X228901441Y-100164090D01*
X229046431Y-99951890D01*
X229097440Y-99700000D01*
X229097440Y-99105973D01*
X229098110Y-99106431D01*
X229350000Y-99157440D01*
X232850000Y-99157440D01*
X233085317Y-99113162D01*
X233301441Y-98974090D01*
X233446431Y-98761890D01*
X233497440Y-98510000D01*
X233497440Y-96510000D01*
X233453162Y-96274683D01*
X233314090Y-96058559D01*
X233101890Y-95913569D01*
X232850000Y-95862560D01*
X229350000Y-95862560D01*
X229114683Y-95906838D01*
X228999348Y-95981054D01*
X228914090Y-95848559D01*
X228737733Y-95728059D01*
X228890792Y-95575000D01*
X231100000Y-95575000D01*
X231821358Y-95431513D01*
X231962148Y-95337440D01*
X232850000Y-95337440D01*
X233085317Y-95293162D01*
X233301441Y-95154090D01*
X233446431Y-94941890D01*
X233497440Y-94690000D01*
X233497440Y-92690000D01*
X233453162Y-92454683D01*
X233314090Y-92238559D01*
X233101890Y-92093569D01*
X232850000Y-92042560D01*
X231962148Y-92042560D01*
X231821358Y-91948487D01*
X231100000Y-91805000D01*
X228837865Y-91805000D01*
X228901441Y-91764090D01*
X229046431Y-91551890D01*
X229097440Y-91300000D01*
X229097440Y-90705973D01*
X229098110Y-90706431D01*
X229350000Y-90757440D01*
X232850000Y-90757440D01*
X233085317Y-90713162D01*
X233301441Y-90574090D01*
X233446431Y-90361890D01*
X233497440Y-90110000D01*
X233497440Y-88110000D01*
X233453162Y-87874683D01*
X233314090Y-87658559D01*
X233101890Y-87513569D01*
X232850000Y-87462560D01*
X229350000Y-87462560D01*
X229114683Y-87506838D01*
X228999348Y-87581054D01*
X228914090Y-87448559D01*
X228837804Y-87396435D01*
X228932896Y-87332896D01*
X229090792Y-87175000D01*
X231100000Y-87175000D01*
X231821358Y-87031513D01*
X231962148Y-86937440D01*
X232850000Y-86937440D01*
X233085317Y-86893162D01*
X233301441Y-86754090D01*
X233446431Y-86541890D01*
X233497440Y-86290000D01*
X233497440Y-84290000D01*
X233453162Y-84054683D01*
X233314090Y-83838559D01*
X233101890Y-83693569D01*
X232850000Y-83642560D01*
X231962148Y-83642560D01*
X231821358Y-83548487D01*
X231100000Y-83405000D01*
X228837865Y-83405000D01*
X228901441Y-83364090D01*
X229046431Y-83151890D01*
X229097440Y-82900000D01*
X229097440Y-82305973D01*
X229098110Y-82306431D01*
X229350000Y-82357440D01*
X232850000Y-82357440D01*
X233085317Y-82313162D01*
X233301441Y-82174090D01*
X233446431Y-81961890D01*
X233497440Y-81710000D01*
X233497440Y-79710000D01*
X233453162Y-79474683D01*
X233314090Y-79258559D01*
X233101890Y-79113569D01*
X232850000Y-79062560D01*
X229350000Y-79062560D01*
X229114683Y-79106838D01*
X228999348Y-79181054D01*
X228987969Y-79163370D01*
X229332896Y-78932896D01*
X229490792Y-78775000D01*
X231100000Y-78775000D01*
X231821358Y-78631513D01*
X231962148Y-78537440D01*
X232850000Y-78537440D01*
X233085317Y-78493162D01*
X233301441Y-78354090D01*
X233446431Y-78141890D01*
X233497440Y-77890000D01*
X233497440Y-75890000D01*
X233453162Y-75654683D01*
X233314090Y-75438559D01*
X233101890Y-75293569D01*
X232850000Y-75242560D01*
X231962148Y-75242560D01*
X231821358Y-75148487D01*
X231100000Y-75005000D01*
X228837865Y-75005000D01*
X228901441Y-74964090D01*
X229046431Y-74751890D01*
X229097440Y-74500000D01*
X229097440Y-73905973D01*
X229098110Y-73906431D01*
X229350000Y-73957440D01*
X232850000Y-73957440D01*
X233085317Y-73913162D01*
X233301441Y-73774090D01*
X233446431Y-73561890D01*
X233497440Y-73310000D01*
X233497440Y-71310000D01*
X233453162Y-71074683D01*
X233314090Y-70858559D01*
X233101890Y-70713569D01*
X232850000Y-70662560D01*
X229350000Y-70662560D01*
X229114683Y-70706838D01*
X228999348Y-70781054D01*
X228914090Y-70648559D01*
X228837804Y-70596435D01*
X228932896Y-70532896D01*
X229090792Y-70375000D01*
X231100000Y-70375000D01*
X231821358Y-70231513D01*
X231962148Y-70137440D01*
X232850000Y-70137440D01*
X233085317Y-70093162D01*
X233301441Y-69954090D01*
X233446431Y-69741890D01*
X233497440Y-69490000D01*
X233497440Y-67490000D01*
X233453162Y-67254683D01*
X233314090Y-67038559D01*
X233101890Y-66893569D01*
X232850000Y-66842560D01*
X231962148Y-66842560D01*
X231821358Y-66748487D01*
X231100000Y-66605000D01*
X229059060Y-66605000D01*
X229046710Y-66542914D01*
X229017217Y-66394646D01*
X229046431Y-66351890D01*
X229097440Y-66100000D01*
X229097440Y-65505973D01*
X229098110Y-65506431D01*
X229350000Y-65557440D01*
X232850000Y-65557440D01*
X233085317Y-65513162D01*
X233301441Y-65374090D01*
X233446431Y-65161890D01*
X233497440Y-64910000D01*
X233497440Y-62910000D01*
X233453162Y-62674683D01*
X233314090Y-62458559D01*
X233101890Y-62313569D01*
X232850000Y-62262560D01*
X229350000Y-62262560D01*
X229114683Y-62306838D01*
X228999348Y-62381054D01*
X228927832Y-62269915D01*
X229132896Y-62132896D01*
X229290792Y-61975000D01*
X231100000Y-61975000D01*
X231821358Y-61831513D01*
X231962148Y-61737440D01*
X232850000Y-61737440D01*
X233085317Y-61693162D01*
X233301441Y-61554090D01*
X233446431Y-61341890D01*
X233497440Y-61090000D01*
X233497440Y-59090000D01*
X233453162Y-58854683D01*
X233314090Y-58638559D01*
X233101890Y-58493569D01*
X232850000Y-58442560D01*
X231962148Y-58442560D01*
X231821358Y-58348487D01*
X231100000Y-58205000D01*
X228837865Y-58205000D01*
X228901441Y-58164090D01*
X229046431Y-57951890D01*
X229097440Y-57700000D01*
X229097440Y-57105973D01*
X229098110Y-57106431D01*
X229350000Y-57157440D01*
X232850000Y-57157440D01*
X233085317Y-57113162D01*
X233301441Y-56974090D01*
X233446431Y-56761890D01*
X233497440Y-56510000D01*
X233497440Y-54510000D01*
X233453162Y-54274683D01*
X233314090Y-54058559D01*
X233101890Y-53913569D01*
X232850000Y-53862560D01*
X229350000Y-53862560D01*
X229114683Y-53906838D01*
X228999348Y-53981054D01*
X228914090Y-53848559D01*
X228701890Y-53703569D01*
X228450000Y-53652560D01*
X227550000Y-53652560D01*
X227314683Y-53696838D01*
X227101327Y-53834129D01*
X227014090Y-53698559D01*
X226801890Y-53553569D01*
X226550000Y-53502560D01*
X225750000Y-53502560D01*
X225514683Y-53546838D01*
X225298559Y-53685910D01*
X225199367Y-53831083D01*
X225114090Y-53698559D01*
X224901890Y-53553569D01*
X224650000Y-53502560D01*
X223850000Y-53502560D01*
X223614683Y-53546838D01*
X223398559Y-53685910D01*
X223295912Y-53836139D01*
X223101890Y-53703569D01*
X222850000Y-53652560D01*
X221950000Y-53652560D01*
X221714683Y-53696838D01*
X221498559Y-53835910D01*
X221353569Y-54048110D01*
X221334961Y-54140000D01*
X221097408Y-54140000D01*
X220796788Y-54015172D01*
X220404931Y-54014830D01*
X220042771Y-54164471D01*
X219765445Y-54441314D01*
X219615172Y-54803212D01*
X219614830Y-55195069D01*
X219764471Y-55557229D01*
X220041314Y-55834555D01*
X220403212Y-55984828D01*
X220795069Y-55985170D01*
X221157229Y-55835529D01*
X221332729Y-55660335D01*
X221346838Y-55735317D01*
X221485910Y-55951441D01*
X221554006Y-55997969D01*
X221411673Y-56140302D01*
X221315000Y-56373691D01*
X221315000Y-56814250D01*
X221473750Y-56973000D01*
X222273000Y-56973000D01*
X222273000Y-56953000D01*
X222527000Y-56953000D01*
X222527000Y-56973000D01*
X223326250Y-56973000D01*
X223485000Y-56814250D01*
X223485000Y-56569146D01*
X223598110Y-56646431D01*
X223850000Y-56697440D01*
X224354534Y-56697440D01*
X224261673Y-56790302D01*
X224165000Y-57023691D01*
X224165000Y-57814250D01*
X224323750Y-57973000D01*
X225073000Y-57973000D01*
X225073000Y-56673750D01*
X224986988Y-56587738D01*
X225101441Y-56514090D01*
X225200633Y-56368917D01*
X225285910Y-56501441D01*
X225412686Y-56588064D01*
X225327000Y-56673750D01*
X225327000Y-57973000D01*
X226076250Y-57973000D01*
X226235000Y-57814250D01*
X226235000Y-57023691D01*
X226138327Y-56790302D01*
X226045466Y-56697440D01*
X226550000Y-56697440D01*
X226785317Y-56653162D01*
X226902560Y-56577718D01*
X226902560Y-57700000D01*
X226946838Y-57935317D01*
X227085910Y-58151441D01*
X227240000Y-58256726D01*
X227240000Y-58715077D01*
X227177104Y-58757103D01*
X227019207Y-58915000D01*
X226235000Y-58915000D01*
X226235000Y-58385750D01*
X226076250Y-58227000D01*
X225327000Y-58227000D01*
X225327000Y-58247000D01*
X225073000Y-58247000D01*
X225073000Y-58227000D01*
X224323750Y-58227000D01*
X224165000Y-58385750D01*
X224165000Y-58915000D01*
X220249998Y-58915000D01*
X219528639Y-59058487D01*
X218917102Y-59467104D01*
X217537411Y-60846795D01*
X217382971Y-60877515D01*
X216690327Y-61340325D01*
X216227517Y-62032969D01*
X216065000Y-62849998D01*
X216065000Y-142400000D01*
X216227517Y-143217029D01*
X216690327Y-143909673D01*
X220290327Y-147509673D01*
X220982971Y-147972483D01*
X221448086Y-148065000D01*
X220084346Y-148065000D01*
X215135000Y-143115654D01*
X215135000Y-93599998D01*
X214972483Y-92782969D01*
X214509673Y-92090325D01*
X213817029Y-91627515D01*
X213662589Y-91596795D01*
X211532898Y-89467104D01*
X210921361Y-89058487D01*
X210200002Y-88915000D01*
X209478643Y-89058487D01*
X209337853Y-89152560D01*
X207550000Y-89152560D01*
X207314683Y-89196838D01*
X207098559Y-89335910D01*
X207078683Y-89365000D01*
X207056844Y-89365000D01*
X207014090Y-89298559D01*
X206801890Y-89153569D01*
X206550000Y-89102560D01*
X205235000Y-89102560D01*
X205235000Y-82800000D01*
X205191573Y-82569205D01*
X205055173Y-82357233D01*
X204847051Y-82215029D01*
X204600000Y-82165000D01*
X204170132Y-82165000D01*
X204760132Y-81575000D01*
X207183446Y-81575000D01*
X207390997Y-81782914D01*
X207973341Y-82024724D01*
X208603893Y-82025275D01*
X209186657Y-81784481D01*
X209632914Y-81339003D01*
X209874724Y-80756659D01*
X209875275Y-80126107D01*
X209634481Y-79543343D01*
X209195789Y-79103884D01*
X209226745Y-79016350D01*
X208290000Y-78079605D01*
X207353255Y-79016350D01*
X207384407Y-79104439D01*
X207183496Y-79305000D01*
X204290000Y-79305000D01*
X203855654Y-79391397D01*
X203546673Y-79597852D01*
X203487434Y-79637434D01*
X200959868Y-82165000D01*
X196000000Y-82165000D01*
X195769205Y-82208427D01*
X195557233Y-82344827D01*
X195415029Y-82552949D01*
X195365000Y-82800000D01*
X195365000Y-84079453D01*
X195298603Y-83745654D01*
X195052566Y-83377434D01*
X192095018Y-80419886D01*
X192095275Y-80126107D01*
X191854481Y-79543343D01*
X191481529Y-79169739D01*
X191852914Y-78799003D01*
X192094724Y-78216659D01*
X192095221Y-77647398D01*
X206693812Y-77647398D01*
X206718648Y-78277461D01*
X206911981Y-78744208D01*
X207173650Y-78836745D01*
X208110395Y-77900000D01*
X208469605Y-77900000D01*
X209406350Y-78836745D01*
X209668019Y-78744208D01*
X209886188Y-78152602D01*
X209861352Y-77522539D01*
X209668019Y-77055792D01*
X209406350Y-76963255D01*
X208469605Y-77900000D01*
X208110395Y-77900000D01*
X207173650Y-76963255D01*
X206911981Y-77055792D01*
X206693812Y-77647398D01*
X192095221Y-77647398D01*
X192095275Y-77586107D01*
X191854481Y-77003343D01*
X191481529Y-76629739D01*
X191852914Y-76259003D01*
X192094724Y-75676659D01*
X192095275Y-75046107D01*
X191854481Y-74463343D01*
X191415789Y-74023884D01*
X191446745Y-73936350D01*
X190510000Y-72999605D01*
X189573255Y-73936350D01*
X189604407Y-74024439D01*
X189167086Y-74460997D01*
X188925276Y-75043341D01*
X188924725Y-75673893D01*
X189165519Y-76256657D01*
X189538471Y-76630261D01*
X189167086Y-77000997D01*
X188925276Y-77583341D01*
X188924725Y-78213893D01*
X189165519Y-78796657D01*
X189538471Y-79170261D01*
X189167086Y-79540997D01*
X188925276Y-80123341D01*
X188924725Y-80753893D01*
X189165519Y-81336657D01*
X189610997Y-81782914D01*
X190193341Y-82024724D01*
X190489851Y-82024983D01*
X193115000Y-84650132D01*
X193115000Y-105468156D01*
X193048559Y-105510910D01*
X193002031Y-105579006D01*
X192859698Y-105436673D01*
X192626309Y-105340000D01*
X192035750Y-105340000D01*
X191877000Y-105498750D01*
X191877000Y-106473000D01*
X191897000Y-106473000D01*
X191897000Y-106727000D01*
X191877000Y-106727000D01*
X191877000Y-106747000D01*
X191623000Y-106747000D01*
X191623000Y-106727000D01*
X190523750Y-106727000D01*
X190365000Y-106885750D01*
X190365000Y-107351310D01*
X190461673Y-107584699D01*
X190640302Y-107763327D01*
X190873691Y-107860000D01*
X191464250Y-107860000D01*
X191622998Y-107701252D01*
X191622998Y-107836932D01*
X191618183Y-107837838D01*
X191402059Y-107976910D01*
X191257069Y-108189110D01*
X191206060Y-108441000D01*
X191206060Y-108763782D01*
X191164090Y-108698559D01*
X190951890Y-108553569D01*
X190860000Y-108534961D01*
X190860000Y-108500000D01*
X190802148Y-108209161D01*
X190729209Y-108100000D01*
X190637401Y-107962598D01*
X188523493Y-105848690D01*
X190365000Y-105848690D01*
X190365000Y-106314250D01*
X190523750Y-106473000D01*
X191623000Y-106473000D01*
X191623000Y-105498750D01*
X191464250Y-105340000D01*
X190873691Y-105340000D01*
X190640302Y-105436673D01*
X190461673Y-105615301D01*
X190365000Y-105848690D01*
X188523493Y-105848690D01*
X186760022Y-104085220D01*
X186760022Y-72567398D01*
X188913812Y-72567398D01*
X188938648Y-73197461D01*
X189131981Y-73664208D01*
X189393650Y-73756745D01*
X190330395Y-72820000D01*
X190689605Y-72820000D01*
X191626350Y-73756745D01*
X191888019Y-73664208D01*
X192106188Y-73072602D01*
X192081352Y-72442539D01*
X191888019Y-71975792D01*
X191626350Y-71883255D01*
X190689605Y-72820000D01*
X190330395Y-72820000D01*
X189393650Y-71883255D01*
X189131981Y-71975792D01*
X188913812Y-72567398D01*
X186760022Y-72567398D01*
X186760022Y-70914780D01*
X189128277Y-68546525D01*
X189165519Y-68636657D01*
X189538471Y-69010261D01*
X189167086Y-69380997D01*
X188925276Y-69963341D01*
X188924725Y-70593893D01*
X189165519Y-71176657D01*
X189604211Y-71616116D01*
X189573255Y-71703650D01*
X190510000Y-72640395D01*
X191446745Y-71703650D01*
X191415593Y-71615561D01*
X191852914Y-71179003D01*
X192094724Y-70596659D01*
X192095275Y-69966107D01*
X191854481Y-69383343D01*
X191481529Y-69009739D01*
X191852914Y-68639003D01*
X192094724Y-68056659D01*
X192095275Y-67426107D01*
X191854481Y-66843343D01*
X191481529Y-66469739D01*
X191852914Y-66099003D01*
X192094724Y-65516659D01*
X192095275Y-64886107D01*
X191854481Y-64303343D01*
X191481529Y-63929739D01*
X191852914Y-63559003D01*
X192094724Y-62976659D01*
X192095275Y-62346107D01*
X191854481Y-61763343D01*
X191481529Y-61389739D01*
X191852914Y-61019003D01*
X192094724Y-60436659D01*
X192095275Y-59806107D01*
X191854481Y-59223343D01*
X191481529Y-58849739D01*
X191852914Y-58479003D01*
X192094724Y-57896659D01*
X192095275Y-57266107D01*
X191854481Y-56683343D01*
X191481529Y-56309739D01*
X191673000Y-56118603D01*
X191673000Y-56400000D01*
X191681685Y-56446159D01*
X191708965Y-56488553D01*
X191750590Y-56516994D01*
X191800000Y-56527000D01*
X207000000Y-56527000D01*
X207046159Y-56518315D01*
X207088553Y-56491035D01*
X207116994Y-56449410D01*
X207127000Y-56400000D01*
X207127000Y-56118455D01*
X207318471Y-56310261D01*
X206947086Y-56680997D01*
X206705276Y-57263341D01*
X206704725Y-57893893D01*
X206945519Y-58476657D01*
X207318471Y-58850261D01*
X206947086Y-59220997D01*
X206705276Y-59803341D01*
X206704725Y-60433893D01*
X206945519Y-61016657D01*
X207318471Y-61390261D01*
X206947086Y-61760997D01*
X206705276Y-62343341D01*
X206704725Y-62973893D01*
X206945519Y-63556657D01*
X207318471Y-63930261D01*
X206947086Y-64300997D01*
X206705276Y-64883341D01*
X206704725Y-65513893D01*
X206945519Y-66096657D01*
X207318471Y-66470261D01*
X206947086Y-66840997D01*
X206705276Y-67423341D01*
X206704725Y-68053893D01*
X206945519Y-68636657D01*
X207318471Y-69010261D01*
X206947086Y-69380997D01*
X206705276Y-69963341D01*
X206704725Y-70593893D01*
X206945519Y-71176657D01*
X207318471Y-71550261D01*
X206947086Y-71920997D01*
X206705276Y-72503341D01*
X206704725Y-73133893D01*
X206945519Y-73716657D01*
X207318471Y-74090261D01*
X206947086Y-74460997D01*
X206705276Y-75043341D01*
X206704725Y-75673893D01*
X206945519Y-76256657D01*
X207384211Y-76696116D01*
X207353255Y-76783650D01*
X208290000Y-77720395D01*
X209226745Y-76783650D01*
X209195593Y-76695561D01*
X209632914Y-76259003D01*
X209874724Y-75676659D01*
X209875275Y-75046107D01*
X209634481Y-74463343D01*
X209261529Y-74089739D01*
X209632914Y-73719003D01*
X209874724Y-73136659D01*
X209875275Y-72506107D01*
X209634481Y-71923343D01*
X209261529Y-71549739D01*
X209632914Y-71179003D01*
X209874724Y-70596659D01*
X209875275Y-69966107D01*
X209634481Y-69383343D01*
X209261529Y-69009739D01*
X209632914Y-68639003D01*
X209874724Y-68056659D01*
X209875275Y-67426107D01*
X209634481Y-66843343D01*
X209261529Y-66469739D01*
X209632914Y-66099003D01*
X209874724Y-65516659D01*
X209875275Y-64886107D01*
X209634481Y-64303343D01*
X209261529Y-63929739D01*
X209632914Y-63559003D01*
X209874724Y-62976659D01*
X209875275Y-62346107D01*
X209634481Y-61763343D01*
X209261529Y-61389739D01*
X209632914Y-61019003D01*
X209874724Y-60436659D01*
X209875275Y-59806107D01*
X209634481Y-59223343D01*
X209261529Y-58849739D01*
X209632914Y-58479003D01*
X209874724Y-57896659D01*
X209875170Y-57385750D01*
X221315000Y-57385750D01*
X221315000Y-57826309D01*
X221411673Y-58059698D01*
X221590301Y-58238327D01*
X221823690Y-58335000D01*
X222114250Y-58335000D01*
X222273000Y-58176250D01*
X222273000Y-57227000D01*
X222527000Y-57227000D01*
X222527000Y-58176250D01*
X222685750Y-58335000D01*
X222976310Y-58335000D01*
X223209699Y-58238327D01*
X223388327Y-58059698D01*
X223485000Y-57826309D01*
X223485000Y-57385750D01*
X223326250Y-57227000D01*
X222527000Y-57227000D01*
X222273000Y-57227000D01*
X221473750Y-57227000D01*
X221315000Y-57385750D01*
X209875170Y-57385750D01*
X209875275Y-57266107D01*
X209634481Y-56683343D01*
X209261529Y-56309739D01*
X209632914Y-55939003D01*
X209874724Y-55356659D01*
X209875275Y-54726107D01*
X209634481Y-54143343D01*
X209261529Y-53769739D01*
X209632914Y-53399003D01*
X209874724Y-52816659D01*
X209875275Y-52186107D01*
X209634481Y-51603343D01*
X209189003Y-51157086D01*
X208606659Y-50915276D01*
X207976107Y-50914725D01*
X207393343Y-51155519D01*
X207127000Y-51421397D01*
X207127000Y-50710000D01*
X246473000Y-50710000D01*
X246473000Y-58000000D01*
X246479865Y-58041189D01*
X246505354Y-58084683D01*
X249905354Y-61884683D01*
X249950590Y-61916994D01*
X250000000Y-61927000D01*
X257290000Y-61927000D01*
X257290000Y-146473000D01*
X246600000Y-146473000D01*
X246553841Y-146481685D01*
X246511447Y-146508965D01*
X246483006Y-146550590D01*
X246473000Y-146600000D01*
X246473000Y-157290000D01*
X186527000Y-157290000D01*
X186527000Y-146600000D01*
X186518315Y-146553841D01*
X186491035Y-146511447D01*
X186449410Y-146483006D01*
X186400000Y-146473000D01*
X175710000Y-146473000D01*
X175710000Y-127885750D01*
X186665000Y-127885750D01*
X186665000Y-128176310D01*
X186761673Y-128409699D01*
X186940302Y-128588327D01*
X187173691Y-128685000D01*
X187614250Y-128685000D01*
X187773000Y-128526250D01*
X187773000Y-127727000D01*
X186823750Y-127727000D01*
X186665000Y-127885750D01*
X175710000Y-127885750D01*
X175710000Y-125885750D01*
X186665000Y-125885750D01*
X186665000Y-126176310D01*
X186761673Y-126409699D01*
X186940302Y-126588327D01*
X186968483Y-126600000D01*
X186940302Y-126611673D01*
X186761673Y-126790301D01*
X186665000Y-127023690D01*
X186665000Y-127314250D01*
X186823750Y-127473000D01*
X187773000Y-127473000D01*
X187773000Y-126673750D01*
X187699250Y-126600000D01*
X187773000Y-126526250D01*
X187773000Y-125727000D01*
X186823750Y-125727000D01*
X186665000Y-125885750D01*
X175710000Y-125885750D01*
X175710000Y-62327000D01*
X181600000Y-62327000D01*
X181627305Y-62324030D01*
X181673408Y-62303635D01*
X186473408Y-58903635D01*
X186516994Y-58849410D01*
X186527000Y-58800000D01*
X186527000Y-50710000D01*
X191673000Y-50710000D01*
X191673000Y-51421545D01*
G36*
X188159413Y-116541337D02*
X188027000Y-116673750D01*
X188027000Y-117473000D01*
X188047000Y-117473000D01*
X188047000Y-117727000D01*
X188027000Y-117727000D01*
X188027000Y-118526250D01*
X188100750Y-118600000D01*
X188027000Y-118673750D01*
X188027000Y-119473000D01*
X188047000Y-119473000D01*
X188047000Y-119727000D01*
X188027000Y-119727000D01*
X188027000Y-120526250D01*
X188185750Y-120685000D01*
X188626309Y-120685000D01*
X188859698Y-120588327D01*
X189000936Y-120447090D01*
X189035910Y-120501441D01*
X189248110Y-120646431D01*
X189500000Y-120697440D01*
X190700000Y-120697440D01*
X190935317Y-120653162D01*
X191151441Y-120514090D01*
X191296431Y-120301890D01*
X191297224Y-120297974D01*
X191377250Y-120378000D01*
X192298000Y-120378000D01*
X192298000Y-120358000D01*
X192552000Y-120358000D01*
X192552000Y-120378000D01*
X192572000Y-120378000D01*
X192572000Y-120632000D01*
X192552000Y-120632000D01*
X192552000Y-120652000D01*
X192298000Y-120652000D01*
X192298000Y-120632000D01*
X191377250Y-120632000D01*
X191218500Y-120790750D01*
X191218500Y-120885309D01*
X191315173Y-121118698D01*
X191336475Y-121140000D01*
X190873691Y-121140000D01*
X190640302Y-121236673D01*
X190461673Y-121415301D01*
X190365000Y-121648690D01*
X190365000Y-122114250D01*
X190523750Y-122273000D01*
X191623000Y-122273000D01*
X191623000Y-122253000D01*
X191877000Y-122253000D01*
X191877000Y-122273000D01*
X191897000Y-122273000D01*
X191897000Y-122527000D01*
X191877000Y-122527000D01*
X191877000Y-122547000D01*
X191623000Y-122547000D01*
X191623000Y-122527000D01*
X190523750Y-122527000D01*
X190365000Y-122685750D01*
X190365000Y-123151310D01*
X190461673Y-123384699D01*
X190640302Y-123563327D01*
X190873691Y-123660000D01*
X191464250Y-123660000D01*
X191622998Y-123501252D01*
X191622998Y-123636932D01*
X191618183Y-123637838D01*
X191402059Y-123776910D01*
X191257069Y-123989110D01*
X191206060Y-124241000D01*
X191206060Y-124749000D01*
X191209991Y-124769891D01*
X191164090Y-124698559D01*
X190951890Y-124553569D01*
X190735758Y-124509801D01*
X190637401Y-124362599D01*
X186160552Y-119885750D01*
X186665000Y-119885750D01*
X186665000Y-120176310D01*
X186761673Y-120409699D01*
X186940302Y-120588327D01*
X187173691Y-120685000D01*
X187614250Y-120685000D01*
X187773000Y-120526250D01*
X187773000Y-119727000D01*
X186823750Y-119727000D01*
X186665000Y-119885750D01*
X186160552Y-119885750D01*
X184360000Y-118085198D01*
X184360000Y-117885750D01*
X186665000Y-117885750D01*
X186665000Y-118176310D01*
X186761673Y-118409699D01*
X186940302Y-118588327D01*
X186968483Y-118600000D01*
X186940302Y-118611673D01*
X186761673Y-118790301D01*
X186665000Y-119023690D01*
X186665000Y-119314250D01*
X186823750Y-119473000D01*
X187773000Y-119473000D01*
X187773000Y-118673750D01*
X187699250Y-118600000D01*
X187773000Y-118526250D01*
X187773000Y-117727000D01*
X186823750Y-117727000D01*
X186665000Y-117885750D01*
X184360000Y-117885750D01*
X184360000Y-117023690D01*
X186665000Y-117023690D01*
X186665000Y-117314250D01*
X186823750Y-117473000D01*
X187773000Y-117473000D01*
X187773000Y-116673750D01*
X187614250Y-116515000D01*
X187173691Y-116515000D01*
X186940302Y-116611673D01*
X186761673Y-116790301D01*
X186665000Y-117023690D01*
X184360000Y-117023690D01*
X184360000Y-112741924D01*
X188159413Y-116541337D01*
X188159413Y-116541337D01*
G37*
X188159413Y-116541337D02*
X188027000Y-116673750D01*
X188027000Y-117473000D01*
X188047000Y-117473000D01*
X188047000Y-117727000D01*
X188027000Y-117727000D01*
X188027000Y-118526250D01*
X188100750Y-118600000D01*
X188027000Y-118673750D01*
X188027000Y-119473000D01*
X188047000Y-119473000D01*
X188047000Y-119727000D01*
X188027000Y-119727000D01*
X188027000Y-120526250D01*
X188185750Y-120685000D01*
X188626309Y-120685000D01*
X188859698Y-120588327D01*
X189000936Y-120447090D01*
X189035910Y-120501441D01*
X189248110Y-120646431D01*
X189500000Y-120697440D01*
X190700000Y-120697440D01*
X190935317Y-120653162D01*
X191151441Y-120514090D01*
X191296431Y-120301890D01*
X191297224Y-120297974D01*
X191377250Y-120378000D01*
X192298000Y-120378000D01*
X192298000Y-120358000D01*
X192552000Y-120358000D01*
X192552000Y-120378000D01*
X192572000Y-120378000D01*
X192572000Y-120632000D01*
X192552000Y-120632000D01*
X192552000Y-120652000D01*
X192298000Y-120652000D01*
X192298000Y-120632000D01*
X191377250Y-120632000D01*
X191218500Y-120790750D01*
X191218500Y-120885309D01*
X191315173Y-121118698D01*
X191336475Y-121140000D01*
X190873691Y-121140000D01*
X190640302Y-121236673D01*
X190461673Y-121415301D01*
X190365000Y-121648690D01*
X190365000Y-122114250D01*
X190523750Y-122273000D01*
X191623000Y-122273000D01*
X191623000Y-122253000D01*
X191877000Y-122253000D01*
X191877000Y-122273000D01*
X191897000Y-122273000D01*
X191897000Y-122527000D01*
X191877000Y-122527000D01*
X191877000Y-122547000D01*
X191623000Y-122547000D01*
X191623000Y-122527000D01*
X190523750Y-122527000D01*
X190365000Y-122685750D01*
X190365000Y-123151310D01*
X190461673Y-123384699D01*
X190640302Y-123563327D01*
X190873691Y-123660000D01*
X191464250Y-123660000D01*
X191622998Y-123501252D01*
X191622998Y-123636932D01*
X191618183Y-123637838D01*
X191402059Y-123776910D01*
X191257069Y-123989110D01*
X191206060Y-124241000D01*
X191206060Y-124749000D01*
X191209991Y-124769891D01*
X191164090Y-124698559D01*
X190951890Y-124553569D01*
X190735758Y-124509801D01*
X190637401Y-124362599D01*
X186160552Y-119885750D01*
X186665000Y-119885750D01*
X186665000Y-120176310D01*
X186761673Y-120409699D01*
X186940302Y-120588327D01*
X187173691Y-120685000D01*
X187614250Y-120685000D01*
X187773000Y-120526250D01*
X187773000Y-119727000D01*
X186823750Y-119727000D01*
X186665000Y-119885750D01*
X186160552Y-119885750D01*
X184360000Y-118085198D01*
X184360000Y-117885750D01*
X186665000Y-117885750D01*
X186665000Y-118176310D01*
X186761673Y-118409699D01*
X186940302Y-118588327D01*
X186968483Y-118600000D01*
X186940302Y-118611673D01*
X186761673Y-118790301D01*
X186665000Y-119023690D01*
X186665000Y-119314250D01*
X186823750Y-119473000D01*
X187773000Y-119473000D01*
X187773000Y-118673750D01*
X187699250Y-118600000D01*
X187773000Y-118526250D01*
X187773000Y-117727000D01*
X186823750Y-117727000D01*
X186665000Y-117885750D01*
X184360000Y-117885750D01*
X184360000Y-117023690D01*
X186665000Y-117023690D01*
X186665000Y-117314250D01*
X186823750Y-117473000D01*
X187773000Y-117473000D01*
X187773000Y-116673750D01*
X187614250Y-116515000D01*
X187173691Y-116515000D01*
X186940302Y-116611673D01*
X186761673Y-116790301D01*
X186665000Y-117023690D01*
X184360000Y-117023690D01*
X184360000Y-112741924D01*
X188159413Y-116541337D01*
G36*
X207677648Y-117447424D02*
X207640654Y-117472142D01*
X200810236Y-124302560D01*
X200550000Y-124302560D01*
X200314683Y-124346838D01*
X200098559Y-124485910D01*
X199993940Y-124639025D01*
X199993940Y-124241000D01*
X199949662Y-124005683D01*
X199810590Y-123789559D01*
X199598390Y-123644569D01*
X199465724Y-123617703D01*
X199430250Y-123594000D01*
X199523000Y-123501250D01*
X199523000Y-122527000D01*
X199777000Y-122527000D01*
X199777000Y-123501250D01*
X199935750Y-123660000D01*
X200526309Y-123660000D01*
X200759698Y-123563327D01*
X200938327Y-123384699D01*
X201035000Y-123151310D01*
X201035000Y-122685750D01*
X200876250Y-122527000D01*
X199777000Y-122527000D01*
X199523000Y-122527000D01*
X199503000Y-122527000D01*
X199503000Y-122273000D01*
X199523000Y-122273000D01*
X199523000Y-122253000D01*
X199777000Y-122253000D01*
X199777000Y-122273000D01*
X200876250Y-122273000D01*
X201035000Y-122114250D01*
X201035000Y-121648690D01*
X200949886Y-121443207D01*
X201034555Y-121358686D01*
X201184828Y-120996788D01*
X201185170Y-120604931D01*
X201140756Y-120497440D01*
X201750000Y-120497440D01*
X201985317Y-120453162D01*
X202201441Y-120314090D01*
X202247969Y-120245994D01*
X202390302Y-120388327D01*
X202623691Y-120485000D01*
X203064250Y-120485000D01*
X203223000Y-120326250D01*
X203223000Y-119527000D01*
X203477000Y-119527000D01*
X203477000Y-120326250D01*
X203635750Y-120485000D01*
X204076309Y-120485000D01*
X204309698Y-120388327D01*
X204488327Y-120209699D01*
X204585000Y-119976310D01*
X204585000Y-119685750D01*
X204426250Y-119527000D01*
X203477000Y-119527000D01*
X203223000Y-119527000D01*
X203203000Y-119527000D01*
X203203000Y-119273000D01*
X203223000Y-119273000D01*
X203223000Y-118473750D01*
X203149250Y-118400000D01*
X203223000Y-118326250D01*
X203223000Y-117527000D01*
X203477000Y-117527000D01*
X203477000Y-118326250D01*
X203550750Y-118400000D01*
X203477000Y-118473750D01*
X203477000Y-119273000D01*
X204426250Y-119273000D01*
X204585000Y-119114250D01*
X204585000Y-118823690D01*
X204488327Y-118590301D01*
X204309698Y-118411673D01*
X204281517Y-118400000D01*
X204309698Y-118388327D01*
X204488327Y-118209699D01*
X204585000Y-117976310D01*
X204585000Y-117685750D01*
X204426250Y-117527000D01*
X203477000Y-117527000D01*
X203223000Y-117527000D01*
X203203000Y-117527000D01*
X203203000Y-117273000D01*
X203223000Y-117273000D01*
X203223000Y-117253000D01*
X203477000Y-117253000D01*
X203477000Y-117273000D01*
X204426250Y-117273000D01*
X204585000Y-117114250D01*
X204585000Y-116960000D01*
X207190224Y-116960000D01*
X207677648Y-117447424D01*
X207677648Y-117447424D01*
G37*
X207677648Y-117447424D02*
X207640654Y-117472142D01*
X200810236Y-124302560D01*
X200550000Y-124302560D01*
X200314683Y-124346838D01*
X200098559Y-124485910D01*
X199993940Y-124639025D01*
X199993940Y-124241000D01*
X199949662Y-124005683D01*
X199810590Y-123789559D01*
X199598390Y-123644569D01*
X199465724Y-123617703D01*
X199430250Y-123594000D01*
X199523000Y-123501250D01*
X199523000Y-122527000D01*
X199777000Y-122527000D01*
X199777000Y-123501250D01*
X199935750Y-123660000D01*
X200526309Y-123660000D01*
X200759698Y-123563327D01*
X200938327Y-123384699D01*
X201035000Y-123151310D01*
X201035000Y-122685750D01*
X200876250Y-122527000D01*
X199777000Y-122527000D01*
X199523000Y-122527000D01*
X199503000Y-122527000D01*
X199503000Y-122273000D01*
X199523000Y-122273000D01*
X199523000Y-122253000D01*
X199777000Y-122253000D01*
X199777000Y-122273000D01*
X200876250Y-122273000D01*
X201035000Y-122114250D01*
X201035000Y-121648690D01*
X200949886Y-121443207D01*
X201034555Y-121358686D01*
X201184828Y-120996788D01*
X201185170Y-120604931D01*
X201140756Y-120497440D01*
X201750000Y-120497440D01*
X201985317Y-120453162D01*
X202201441Y-120314090D01*
X202247969Y-120245994D01*
X202390302Y-120388327D01*
X202623691Y-120485000D01*
X203064250Y-120485000D01*
X203223000Y-120326250D01*
X203223000Y-119527000D01*
X203477000Y-119527000D01*
X203477000Y-120326250D01*
X203635750Y-120485000D01*
X204076309Y-120485000D01*
X204309698Y-120388327D01*
X204488327Y-120209699D01*
X204585000Y-119976310D01*
X204585000Y-119685750D01*
X204426250Y-119527000D01*
X203477000Y-119527000D01*
X203223000Y-119527000D01*
X203203000Y-119527000D01*
X203203000Y-119273000D01*
X203223000Y-119273000D01*
X203223000Y-118473750D01*
X203149250Y-118400000D01*
X203223000Y-118326250D01*
X203223000Y-117527000D01*
X203477000Y-117527000D01*
X203477000Y-118326250D01*
X203550750Y-118400000D01*
X203477000Y-118473750D01*
X203477000Y-119273000D01*
X204426250Y-119273000D01*
X204585000Y-119114250D01*
X204585000Y-118823690D01*
X204488327Y-118590301D01*
X204309698Y-118411673D01*
X204281517Y-118400000D01*
X204309698Y-118388327D01*
X204488327Y-118209699D01*
X204585000Y-117976310D01*
X204585000Y-117685750D01*
X204426250Y-117527000D01*
X203477000Y-117527000D01*
X203223000Y-117527000D01*
X203203000Y-117527000D01*
X203203000Y-117273000D01*
X203223000Y-117273000D01*
X203223000Y-117253000D01*
X203477000Y-117253000D01*
X203477000Y-117273000D01*
X204426250Y-117273000D01*
X204585000Y-117114250D01*
X204585000Y-116960000D01*
X207190224Y-116960000D01*
X207677648Y-117447424D01*
G36*
X188115001Y-108389803D02*
X188115001Y-108585749D01*
X188027000Y-108673750D01*
X188027000Y-109473000D01*
X188047000Y-109473000D01*
X188047000Y-109727000D01*
X188027000Y-109727000D01*
X188027000Y-110526250D01*
X188100750Y-110600000D01*
X188027000Y-110673750D01*
X188027000Y-111473000D01*
X188047000Y-111473000D01*
X188047000Y-111727000D01*
X188027000Y-111727000D01*
X188027000Y-112526250D01*
X188185750Y-112685000D01*
X188626309Y-112685000D01*
X188859698Y-112588327D01*
X189000936Y-112447090D01*
X189035910Y-112501441D01*
X189248110Y-112646431D01*
X189500000Y-112697440D01*
X190700000Y-112697440D01*
X190935317Y-112653162D01*
X191151441Y-112514090D01*
X191296431Y-112301890D01*
X191297224Y-112297974D01*
X191377250Y-112378000D01*
X192298000Y-112378000D01*
X192298000Y-112358000D01*
X192552000Y-112358000D01*
X192552000Y-112378000D01*
X192572000Y-112378000D01*
X192572000Y-112632000D01*
X192552000Y-112632000D01*
X192552000Y-112652000D01*
X192298000Y-112652000D01*
X192298000Y-112632000D01*
X191377250Y-112632000D01*
X191218500Y-112790750D01*
X191218500Y-112885309D01*
X191315173Y-113118698D01*
X191493801Y-113297327D01*
X191622998Y-113350842D01*
X191622998Y-113498748D01*
X191464250Y-113340000D01*
X190873691Y-113340000D01*
X190640302Y-113436673D01*
X190461673Y-113615301D01*
X190365000Y-113848690D01*
X190365000Y-114314250D01*
X190523750Y-114473000D01*
X191623000Y-114473000D01*
X191623000Y-114453000D01*
X191877000Y-114453000D01*
X191877000Y-114473000D01*
X191897000Y-114473000D01*
X191897000Y-114727000D01*
X191877000Y-114727000D01*
X191877000Y-114747000D01*
X191623000Y-114747000D01*
X191623000Y-114727000D01*
X190523750Y-114727000D01*
X190365000Y-114885750D01*
X190365000Y-115351310D01*
X190461673Y-115584699D01*
X190640302Y-115763327D01*
X190873691Y-115860000D01*
X191464250Y-115860000D01*
X191622998Y-115701252D01*
X191622998Y-115836932D01*
X191618183Y-115837838D01*
X191402059Y-115976910D01*
X191257069Y-116189110D01*
X191206060Y-116441000D01*
X191206060Y-116763782D01*
X191164090Y-116698559D01*
X190951890Y-116553569D01*
X190825793Y-116528034D01*
X190802148Y-116409161D01*
X190637401Y-116162599D01*
X187149981Y-112675179D01*
X187173691Y-112685000D01*
X187614250Y-112685000D01*
X187773000Y-112526250D01*
X187773000Y-111727000D01*
X186823750Y-111727000D01*
X186665000Y-111885750D01*
X186665000Y-112176310D01*
X186674820Y-112200018D01*
X185560000Y-111085198D01*
X185560000Y-109885750D01*
X186665000Y-109885750D01*
X186665000Y-110176310D01*
X186761673Y-110409699D01*
X186940302Y-110588327D01*
X186968483Y-110600000D01*
X186940302Y-110611673D01*
X186761673Y-110790301D01*
X186665000Y-111023690D01*
X186665000Y-111314250D01*
X186823750Y-111473000D01*
X187773000Y-111473000D01*
X187773000Y-110673750D01*
X187699250Y-110600000D01*
X187773000Y-110526250D01*
X187773000Y-109727000D01*
X186823750Y-109727000D01*
X186665000Y-109885750D01*
X185560000Y-109885750D01*
X185560000Y-109023690D01*
X186665000Y-109023690D01*
X186665000Y-109314250D01*
X186823750Y-109473000D01*
X187773000Y-109473000D01*
X187773000Y-108673750D01*
X187614250Y-108515000D01*
X187173691Y-108515000D01*
X186940302Y-108611673D01*
X186761673Y-108790301D01*
X186665000Y-109023690D01*
X185560000Y-109023690D01*
X185560000Y-105834802D01*
X188115001Y-108389803D01*
X188115001Y-108389803D01*
G37*
X188115001Y-108389803D02*
X188115001Y-108585749D01*
X188027000Y-108673750D01*
X188027000Y-109473000D01*
X188047000Y-109473000D01*
X188047000Y-109727000D01*
X188027000Y-109727000D01*
X188027000Y-110526250D01*
X188100750Y-110600000D01*
X188027000Y-110673750D01*
X188027000Y-111473000D01*
X188047000Y-111473000D01*
X188047000Y-111727000D01*
X188027000Y-111727000D01*
X188027000Y-112526250D01*
X188185750Y-112685000D01*
X188626309Y-112685000D01*
X188859698Y-112588327D01*
X189000936Y-112447090D01*
X189035910Y-112501441D01*
X189248110Y-112646431D01*
X189500000Y-112697440D01*
X190700000Y-112697440D01*
X190935317Y-112653162D01*
X191151441Y-112514090D01*
X191296431Y-112301890D01*
X191297224Y-112297974D01*
X191377250Y-112378000D01*
X192298000Y-112378000D01*
X192298000Y-112358000D01*
X192552000Y-112358000D01*
X192552000Y-112378000D01*
X192572000Y-112378000D01*
X192572000Y-112632000D01*
X192552000Y-112632000D01*
X192552000Y-112652000D01*
X192298000Y-112652000D01*
X192298000Y-112632000D01*
X191377250Y-112632000D01*
X191218500Y-112790750D01*
X191218500Y-112885309D01*
X191315173Y-113118698D01*
X191493801Y-113297327D01*
X191622998Y-113350842D01*
X191622998Y-113498748D01*
X191464250Y-113340000D01*
X190873691Y-113340000D01*
X190640302Y-113436673D01*
X190461673Y-113615301D01*
X190365000Y-113848690D01*
X190365000Y-114314250D01*
X190523750Y-114473000D01*
X191623000Y-114473000D01*
X191623000Y-114453000D01*
X191877000Y-114453000D01*
X191877000Y-114473000D01*
X191897000Y-114473000D01*
X191897000Y-114727000D01*
X191877000Y-114727000D01*
X191877000Y-114747000D01*
X191623000Y-114747000D01*
X191623000Y-114727000D01*
X190523750Y-114727000D01*
X190365000Y-114885750D01*
X190365000Y-115351310D01*
X190461673Y-115584699D01*
X190640302Y-115763327D01*
X190873691Y-115860000D01*
X191464250Y-115860000D01*
X191622998Y-115701252D01*
X191622998Y-115836932D01*
X191618183Y-115837838D01*
X191402059Y-115976910D01*
X191257069Y-116189110D01*
X191206060Y-116441000D01*
X191206060Y-116763782D01*
X191164090Y-116698559D01*
X190951890Y-116553569D01*
X190825793Y-116528034D01*
X190802148Y-116409161D01*
X190637401Y-116162599D01*
X187149981Y-112675179D01*
X187173691Y-112685000D01*
X187614250Y-112685000D01*
X187773000Y-112526250D01*
X187773000Y-111727000D01*
X186823750Y-111727000D01*
X186665000Y-111885750D01*
X186665000Y-112176310D01*
X186674820Y-112200018D01*
X185560000Y-111085198D01*
X185560000Y-109885750D01*
X186665000Y-109885750D01*
X186665000Y-110176310D01*
X186761673Y-110409699D01*
X186940302Y-110588327D01*
X186968483Y-110600000D01*
X186940302Y-110611673D01*
X186761673Y-110790301D01*
X186665000Y-111023690D01*
X186665000Y-111314250D01*
X186823750Y-111473000D01*
X187773000Y-111473000D01*
X187773000Y-110673750D01*
X187699250Y-110600000D01*
X187773000Y-110526250D01*
X187773000Y-109727000D01*
X186823750Y-109727000D01*
X186665000Y-109885750D01*
X185560000Y-109885750D01*
X185560000Y-109023690D01*
X186665000Y-109023690D01*
X186665000Y-109314250D01*
X186823750Y-109473000D01*
X187773000Y-109473000D01*
X187773000Y-108673750D01*
X187614250Y-108515000D01*
X187173691Y-108515000D01*
X186940302Y-108611673D01*
X186761673Y-108790301D01*
X186665000Y-109023690D01*
X185560000Y-109023690D01*
X185560000Y-105834802D01*
X188115001Y-108389803D01*
G36*
X208040000Y-112314802D02*
X208040000Y-114166889D01*
X207965445Y-114241314D01*
X207815172Y-114603212D01*
X207814922Y-114890001D01*
X202199999Y-114890001D01*
X201909160Y-114947853D01*
X201662598Y-115112600D01*
X200612599Y-116162599D01*
X200514634Y-116309215D01*
X200314683Y-116346838D01*
X200098559Y-116485910D01*
X199993940Y-116639025D01*
X199993940Y-116441000D01*
X199949662Y-116205683D01*
X199810590Y-115989559D01*
X199598390Y-115844569D01*
X199465724Y-115817703D01*
X199430250Y-115794000D01*
X199523000Y-115701250D01*
X199523000Y-114727000D01*
X199777000Y-114727000D01*
X199777000Y-115701250D01*
X199935750Y-115860000D01*
X200526309Y-115860000D01*
X200759698Y-115763327D01*
X200938327Y-115584699D01*
X201035000Y-115351310D01*
X201035000Y-114885750D01*
X200876250Y-114727000D01*
X199777000Y-114727000D01*
X199523000Y-114727000D01*
X199503000Y-114727000D01*
X199503000Y-114473000D01*
X199523000Y-114473000D01*
X199523000Y-114453000D01*
X199777000Y-114453000D01*
X199777000Y-114473000D01*
X200876250Y-114473000D01*
X201035000Y-114314250D01*
X201035000Y-113848690D01*
X200949886Y-113643207D01*
X201034555Y-113558686D01*
X201184828Y-113196788D01*
X201185170Y-112804931D01*
X201140756Y-112697440D01*
X201500000Y-112697440D01*
X201735317Y-112653162D01*
X201951441Y-112514090D01*
X201997969Y-112445994D01*
X202140302Y-112588327D01*
X202373691Y-112685000D01*
X202814250Y-112685000D01*
X202973000Y-112526250D01*
X202973000Y-111727000D01*
X203227000Y-111727000D01*
X203227000Y-112526250D01*
X203385750Y-112685000D01*
X203826309Y-112685000D01*
X204059698Y-112588327D01*
X204238327Y-112409699D01*
X204335000Y-112176310D01*
X204335000Y-111885750D01*
X204176250Y-111727000D01*
X203227000Y-111727000D01*
X202973000Y-111727000D01*
X202953000Y-111727000D01*
X202953000Y-111473000D01*
X202973000Y-111473000D01*
X202973000Y-110673750D01*
X202899250Y-110600000D01*
X202973000Y-110526250D01*
X202973000Y-109727000D01*
X203227000Y-109727000D01*
X203227000Y-110526250D01*
X203300750Y-110600000D01*
X203227000Y-110673750D01*
X203227000Y-111473000D01*
X204176250Y-111473000D01*
X204335000Y-111314250D01*
X204335000Y-111023690D01*
X204238327Y-110790301D01*
X204059698Y-110611673D01*
X204031517Y-110600000D01*
X204059698Y-110588327D01*
X204238327Y-110409699D01*
X204335000Y-110176310D01*
X204335000Y-109885750D01*
X204176250Y-109727000D01*
X203227000Y-109727000D01*
X202973000Y-109727000D01*
X202953000Y-109727000D01*
X202953000Y-109473000D01*
X202973000Y-109473000D01*
X202973000Y-109453000D01*
X203227000Y-109453000D01*
X203227000Y-109473000D01*
X204176250Y-109473000D01*
X204289250Y-109360000D01*
X205085198Y-109360000D01*
X208040000Y-112314802D01*
X208040000Y-112314802D01*
G37*
X208040000Y-112314802D02*
X208040000Y-114166889D01*
X207965445Y-114241314D01*
X207815172Y-114603212D01*
X207814922Y-114890001D01*
X202199999Y-114890001D01*
X201909160Y-114947853D01*
X201662598Y-115112600D01*
X200612599Y-116162599D01*
X200514634Y-116309215D01*
X200314683Y-116346838D01*
X200098559Y-116485910D01*
X199993940Y-116639025D01*
X199993940Y-116441000D01*
X199949662Y-116205683D01*
X199810590Y-115989559D01*
X199598390Y-115844569D01*
X199465724Y-115817703D01*
X199430250Y-115794000D01*
X199523000Y-115701250D01*
X199523000Y-114727000D01*
X199777000Y-114727000D01*
X199777000Y-115701250D01*
X199935750Y-115860000D01*
X200526309Y-115860000D01*
X200759698Y-115763327D01*
X200938327Y-115584699D01*
X201035000Y-115351310D01*
X201035000Y-114885750D01*
X200876250Y-114727000D01*
X199777000Y-114727000D01*
X199523000Y-114727000D01*
X199503000Y-114727000D01*
X199503000Y-114473000D01*
X199523000Y-114473000D01*
X199523000Y-114453000D01*
X199777000Y-114453000D01*
X199777000Y-114473000D01*
X200876250Y-114473000D01*
X201035000Y-114314250D01*
X201035000Y-113848690D01*
X200949886Y-113643207D01*
X201034555Y-113558686D01*
X201184828Y-113196788D01*
X201185170Y-112804931D01*
X201140756Y-112697440D01*
X201500000Y-112697440D01*
X201735317Y-112653162D01*
X201951441Y-112514090D01*
X201997969Y-112445994D01*
X202140302Y-112588327D01*
X202373691Y-112685000D01*
X202814250Y-112685000D01*
X202973000Y-112526250D01*
X202973000Y-111727000D01*
X203227000Y-111727000D01*
X203227000Y-112526250D01*
X203385750Y-112685000D01*
X203826309Y-112685000D01*
X204059698Y-112588327D01*
X204238327Y-112409699D01*
X204335000Y-112176310D01*
X204335000Y-111885750D01*
X204176250Y-111727000D01*
X203227000Y-111727000D01*
X202973000Y-111727000D01*
X202953000Y-111727000D01*
X202953000Y-111473000D01*
X202973000Y-111473000D01*
X202973000Y-110673750D01*
X202899250Y-110600000D01*
X202973000Y-110526250D01*
X202973000Y-109727000D01*
X203227000Y-109727000D01*
X203227000Y-110526250D01*
X203300750Y-110600000D01*
X203227000Y-110673750D01*
X203227000Y-111473000D01*
X204176250Y-111473000D01*
X204335000Y-111314250D01*
X204335000Y-111023690D01*
X204238327Y-110790301D01*
X204059698Y-110611673D01*
X204031517Y-110600000D01*
X204059698Y-110588327D01*
X204238327Y-110409699D01*
X204335000Y-110176310D01*
X204335000Y-109885750D01*
X204176250Y-109727000D01*
X203227000Y-109727000D01*
X202973000Y-109727000D01*
X202953000Y-109727000D01*
X202953000Y-109473000D01*
X202973000Y-109473000D01*
X202973000Y-109453000D01*
X203227000Y-109453000D01*
X203227000Y-109473000D01*
X204176250Y-109473000D01*
X204289250Y-109360000D01*
X205085198Y-109360000D01*
X208040000Y-112314802D01*
G36*
X221346838Y-106135317D02*
X221485910Y-106351441D01*
X221554006Y-106397969D01*
X221411673Y-106540302D01*
X221315000Y-106773691D01*
X221315000Y-107214250D01*
X221473750Y-107373000D01*
X222273000Y-107373000D01*
X222273000Y-107353000D01*
X222527000Y-107353000D01*
X222527000Y-107373000D01*
X223326250Y-107373000D01*
X223485000Y-107214250D01*
X223485000Y-106969146D01*
X223598110Y-107046431D01*
X223850000Y-107097440D01*
X224354534Y-107097440D01*
X224261673Y-107190302D01*
X224165000Y-107423691D01*
X224165000Y-108214250D01*
X224323750Y-108373000D01*
X225073000Y-108373000D01*
X225073000Y-107073750D01*
X224986988Y-106987738D01*
X225101441Y-106914090D01*
X225200633Y-106768917D01*
X225285910Y-106901441D01*
X225412686Y-106988064D01*
X225327000Y-107073750D01*
X225327000Y-108373000D01*
X226076250Y-108373000D01*
X226235000Y-108214250D01*
X226235000Y-107423691D01*
X226138327Y-107190302D01*
X226045466Y-107097440D01*
X226550000Y-107097440D01*
X226785317Y-107053162D01*
X226902560Y-106977718D01*
X226902560Y-108100000D01*
X226946838Y-108335317D01*
X227085910Y-108551441D01*
X227240000Y-108656726D01*
X227240000Y-109315001D01*
X226235000Y-109315001D01*
X226235000Y-108785750D01*
X226076250Y-108627000D01*
X225327000Y-108627000D01*
X225327000Y-108647000D01*
X225073000Y-108647000D01*
X225073000Y-108627000D01*
X224323750Y-108627000D01*
X224165000Y-108785750D01*
X224165000Y-109315001D01*
X220335000Y-109315001D01*
X220335000Y-107785750D01*
X221315000Y-107785750D01*
X221315000Y-108226309D01*
X221411673Y-108459698D01*
X221590301Y-108638327D01*
X221823690Y-108735000D01*
X222114250Y-108735000D01*
X222273000Y-108576250D01*
X222273000Y-107627000D01*
X222527000Y-107627000D01*
X222527000Y-108576250D01*
X222685750Y-108735000D01*
X222976310Y-108735000D01*
X223209699Y-108638327D01*
X223388327Y-108459698D01*
X223485000Y-108226309D01*
X223485000Y-107785750D01*
X223326250Y-107627000D01*
X222527000Y-107627000D01*
X222273000Y-107627000D01*
X221473750Y-107627000D01*
X221315000Y-107785750D01*
X220335000Y-107785750D01*
X220335000Y-106073457D01*
X220603212Y-106184828D01*
X220995069Y-106185170D01*
X221298004Y-106060000D01*
X221332666Y-106060000D01*
X221346838Y-106135317D01*
X221346838Y-106135317D01*
G37*
X221346838Y-106135317D02*
X221485910Y-106351441D01*
X221554006Y-106397969D01*
X221411673Y-106540302D01*
X221315000Y-106773691D01*
X221315000Y-107214250D01*
X221473750Y-107373000D01*
X222273000Y-107373000D01*
X222273000Y-107353000D01*
X222527000Y-107353000D01*
X222527000Y-107373000D01*
X223326250Y-107373000D01*
X223485000Y-107214250D01*
X223485000Y-106969146D01*
X223598110Y-107046431D01*
X223850000Y-107097440D01*
X224354534Y-107097440D01*
X224261673Y-107190302D01*
X224165000Y-107423691D01*
X224165000Y-108214250D01*
X224323750Y-108373000D01*
X225073000Y-108373000D01*
X225073000Y-107073750D01*
X224986988Y-106987738D01*
X225101441Y-106914090D01*
X225200633Y-106768917D01*
X225285910Y-106901441D01*
X225412686Y-106988064D01*
X225327000Y-107073750D01*
X225327000Y-108373000D01*
X226076250Y-108373000D01*
X226235000Y-108214250D01*
X226235000Y-107423691D01*
X226138327Y-107190302D01*
X226045466Y-107097440D01*
X226550000Y-107097440D01*
X226785317Y-107053162D01*
X226902560Y-106977718D01*
X226902560Y-108100000D01*
X226946838Y-108335317D01*
X227085910Y-108551441D01*
X227240000Y-108656726D01*
X227240000Y-109315001D01*
X226235000Y-109315001D01*
X226235000Y-108785750D01*
X226076250Y-108627000D01*
X225327000Y-108627000D01*
X225327000Y-108647000D01*
X225073000Y-108647000D01*
X225073000Y-108627000D01*
X224323750Y-108627000D01*
X224165000Y-108785750D01*
X224165000Y-109315001D01*
X220335000Y-109315001D01*
X220335000Y-107785750D01*
X221315000Y-107785750D01*
X221315000Y-108226309D01*
X221411673Y-108459698D01*
X221590301Y-108638327D01*
X221823690Y-108735000D01*
X222114250Y-108735000D01*
X222273000Y-108576250D01*
X222273000Y-107627000D01*
X222527000Y-107627000D01*
X222527000Y-108576250D01*
X222685750Y-108735000D01*
X222976310Y-108735000D01*
X223209699Y-108638327D01*
X223388327Y-108459698D01*
X223485000Y-108226309D01*
X223485000Y-107785750D01*
X223326250Y-107627000D01*
X222527000Y-107627000D01*
X222273000Y-107627000D01*
X221473750Y-107627000D01*
X221315000Y-107785750D01*
X220335000Y-107785750D01*
X220335000Y-106073457D01*
X220603212Y-106184828D01*
X220995069Y-106185170D01*
X221298004Y-106060000D01*
X221332666Y-106060000D01*
X221346838Y-106135317D01*
G36*
X221346838Y-97735317D02*
X221485910Y-97951441D01*
X221554006Y-97997969D01*
X221411673Y-98140302D01*
X221315000Y-98373691D01*
X221315000Y-98814250D01*
X221473750Y-98973000D01*
X222273000Y-98973000D01*
X222273000Y-98953000D01*
X222527000Y-98953000D01*
X222527000Y-98973000D01*
X223326250Y-98973000D01*
X223485000Y-98814250D01*
X223485000Y-98534983D01*
X223648110Y-98646431D01*
X223900000Y-98697440D01*
X224404534Y-98697440D01*
X224311673Y-98790302D01*
X224215000Y-99023691D01*
X224215000Y-99814250D01*
X224373750Y-99973000D01*
X225123000Y-99973000D01*
X225123000Y-98673750D01*
X225036988Y-98587738D01*
X225151441Y-98514090D01*
X225250633Y-98368917D01*
X225335910Y-98501441D01*
X225462686Y-98588064D01*
X225377000Y-98673750D01*
X225377000Y-99973000D01*
X226126250Y-99973000D01*
X226285000Y-99814250D01*
X226285000Y-99023691D01*
X226188327Y-98790302D01*
X226095466Y-98697440D01*
X226600000Y-98697440D01*
X226835317Y-98653162D01*
X226902560Y-98609892D01*
X226902560Y-99700000D01*
X226946838Y-99935317D01*
X227085910Y-100151441D01*
X227240000Y-100256726D01*
X227240000Y-100915000D01*
X226285000Y-100915000D01*
X226285000Y-100385750D01*
X226126250Y-100227000D01*
X225377000Y-100227000D01*
X225377000Y-100247000D01*
X225123000Y-100247000D01*
X225123000Y-100227000D01*
X224373750Y-100227000D01*
X224215000Y-100385750D01*
X224215000Y-100915000D01*
X220335000Y-100915000D01*
X220335000Y-99385750D01*
X221315000Y-99385750D01*
X221315000Y-99826309D01*
X221411673Y-100059698D01*
X221590301Y-100238327D01*
X221823690Y-100335000D01*
X222114250Y-100335000D01*
X222273000Y-100176250D01*
X222273000Y-99227000D01*
X222527000Y-99227000D01*
X222527000Y-100176250D01*
X222685750Y-100335000D01*
X222976310Y-100335000D01*
X223209699Y-100238327D01*
X223388327Y-100059698D01*
X223485000Y-99826309D01*
X223485000Y-99385750D01*
X223326250Y-99227000D01*
X222527000Y-99227000D01*
X222273000Y-99227000D01*
X221473750Y-99227000D01*
X221315000Y-99385750D01*
X220335000Y-99385750D01*
X220335000Y-97673457D01*
X220603212Y-97784828D01*
X220995069Y-97785170D01*
X221298004Y-97660000D01*
X221332666Y-97660000D01*
X221346838Y-97735317D01*
X221346838Y-97735317D01*
G37*
X221346838Y-97735317D02*
X221485910Y-97951441D01*
X221554006Y-97997969D01*
X221411673Y-98140302D01*
X221315000Y-98373691D01*
X221315000Y-98814250D01*
X221473750Y-98973000D01*
X222273000Y-98973000D01*
X222273000Y-98953000D01*
X222527000Y-98953000D01*
X222527000Y-98973000D01*
X223326250Y-98973000D01*
X223485000Y-98814250D01*
X223485000Y-98534983D01*
X223648110Y-98646431D01*
X223900000Y-98697440D01*
X224404534Y-98697440D01*
X224311673Y-98790302D01*
X224215000Y-99023691D01*
X224215000Y-99814250D01*
X224373750Y-99973000D01*
X225123000Y-99973000D01*
X225123000Y-98673750D01*
X225036988Y-98587738D01*
X225151441Y-98514090D01*
X225250633Y-98368917D01*
X225335910Y-98501441D01*
X225462686Y-98588064D01*
X225377000Y-98673750D01*
X225377000Y-99973000D01*
X226126250Y-99973000D01*
X226285000Y-99814250D01*
X226285000Y-99023691D01*
X226188327Y-98790302D01*
X226095466Y-98697440D01*
X226600000Y-98697440D01*
X226835317Y-98653162D01*
X226902560Y-98609892D01*
X226902560Y-99700000D01*
X226946838Y-99935317D01*
X227085910Y-100151441D01*
X227240000Y-100256726D01*
X227240000Y-100915000D01*
X226285000Y-100915000D01*
X226285000Y-100385750D01*
X226126250Y-100227000D01*
X225377000Y-100227000D01*
X225377000Y-100247000D01*
X225123000Y-100247000D01*
X225123000Y-100227000D01*
X224373750Y-100227000D01*
X224215000Y-100385750D01*
X224215000Y-100915000D01*
X220335000Y-100915000D01*
X220335000Y-99385750D01*
X221315000Y-99385750D01*
X221315000Y-99826309D01*
X221411673Y-100059698D01*
X221590301Y-100238327D01*
X221823690Y-100335000D01*
X222114250Y-100335000D01*
X222273000Y-100176250D01*
X222273000Y-99227000D01*
X222527000Y-99227000D01*
X222527000Y-100176250D01*
X222685750Y-100335000D01*
X222976310Y-100335000D01*
X223209699Y-100238327D01*
X223388327Y-100059698D01*
X223485000Y-99826309D01*
X223485000Y-99385750D01*
X223326250Y-99227000D01*
X222527000Y-99227000D01*
X222273000Y-99227000D01*
X221473750Y-99227000D01*
X221315000Y-99385750D01*
X220335000Y-99385750D01*
X220335000Y-97673457D01*
X220603212Y-97784828D01*
X220995069Y-97785170D01*
X221298004Y-97660000D01*
X221332666Y-97660000D01*
X221346838Y-97735317D01*
G36*
X205677000Y-94973000D02*
X205697000Y-94973000D01*
X205697000Y-95227000D01*
X205677000Y-95227000D01*
X205677000Y-95247000D01*
X205423000Y-95247000D01*
X205423000Y-95227000D01*
X205403000Y-95227000D01*
X205403000Y-94973000D01*
X205423000Y-94973000D01*
X205423000Y-94953000D01*
X205677000Y-94953000D01*
X205677000Y-94973000D01*
X205677000Y-94973000D01*
G37*
X205677000Y-94973000D02*
X205697000Y-94973000D01*
X205697000Y-95227000D01*
X205677000Y-95227000D01*
X205677000Y-95247000D01*
X205423000Y-95247000D01*
X205423000Y-95227000D01*
X205403000Y-95227000D01*
X205403000Y-94973000D01*
X205423000Y-94973000D01*
X205423000Y-94953000D01*
X205677000Y-94953000D01*
X205677000Y-94973000D01*
G36*
X221346838Y-89335317D02*
X221485910Y-89551441D01*
X221554006Y-89597969D01*
X221411673Y-89740302D01*
X221315000Y-89973691D01*
X221315000Y-90414250D01*
X221473750Y-90573000D01*
X222273000Y-90573000D01*
X222273000Y-90553000D01*
X222527000Y-90553000D01*
X222527000Y-90573000D01*
X223326250Y-90573000D01*
X223485000Y-90414250D01*
X223485000Y-90169146D01*
X223598110Y-90246431D01*
X223850000Y-90297440D01*
X224354534Y-90297440D01*
X224261673Y-90390302D01*
X224165000Y-90623691D01*
X224165000Y-91414250D01*
X224323750Y-91573000D01*
X225073000Y-91573000D01*
X225073000Y-90273750D01*
X224986988Y-90187738D01*
X225101441Y-90114090D01*
X225200633Y-89968917D01*
X225285910Y-90101441D01*
X225412686Y-90188064D01*
X225327000Y-90273750D01*
X225327000Y-91573000D01*
X226076250Y-91573000D01*
X226235000Y-91414250D01*
X226235000Y-90623691D01*
X226138327Y-90390302D01*
X226045466Y-90297440D01*
X226550000Y-90297440D01*
X226785317Y-90253162D01*
X226902560Y-90177718D01*
X226902560Y-91300000D01*
X226946838Y-91535317D01*
X227085910Y-91751441D01*
X227240000Y-91856726D01*
X227240000Y-92047806D01*
X226777104Y-92357103D01*
X226619207Y-92515000D01*
X226235000Y-92515000D01*
X226235000Y-91985750D01*
X226076250Y-91827000D01*
X225327000Y-91827000D01*
X225327000Y-91847000D01*
X225073000Y-91847000D01*
X225073000Y-91827000D01*
X224323750Y-91827000D01*
X224165000Y-91985750D01*
X224165000Y-92515000D01*
X220335000Y-92515000D01*
X220335000Y-90985750D01*
X221315000Y-90985750D01*
X221315000Y-91426309D01*
X221411673Y-91659698D01*
X221590301Y-91838327D01*
X221823690Y-91935000D01*
X222114250Y-91935000D01*
X222273000Y-91776250D01*
X222273000Y-90827000D01*
X222527000Y-90827000D01*
X222527000Y-91776250D01*
X222685750Y-91935000D01*
X222976310Y-91935000D01*
X223209699Y-91838327D01*
X223388327Y-91659698D01*
X223485000Y-91426309D01*
X223485000Y-90985750D01*
X223326250Y-90827000D01*
X222527000Y-90827000D01*
X222273000Y-90827000D01*
X221473750Y-90827000D01*
X221315000Y-90985750D01*
X220335000Y-90985750D01*
X220335000Y-89273457D01*
X220603212Y-89384828D01*
X220995069Y-89385170D01*
X221298004Y-89260000D01*
X221332666Y-89260000D01*
X221346838Y-89335317D01*
X221346838Y-89335317D01*
G37*
X221346838Y-89335317D02*
X221485910Y-89551441D01*
X221554006Y-89597969D01*
X221411673Y-89740302D01*
X221315000Y-89973691D01*
X221315000Y-90414250D01*
X221473750Y-90573000D01*
X222273000Y-90573000D01*
X222273000Y-90553000D01*
X222527000Y-90553000D01*
X222527000Y-90573000D01*
X223326250Y-90573000D01*
X223485000Y-90414250D01*
X223485000Y-90169146D01*
X223598110Y-90246431D01*
X223850000Y-90297440D01*
X224354534Y-90297440D01*
X224261673Y-90390302D01*
X224165000Y-90623691D01*
X224165000Y-91414250D01*
X224323750Y-91573000D01*
X225073000Y-91573000D01*
X225073000Y-90273750D01*
X224986988Y-90187738D01*
X225101441Y-90114090D01*
X225200633Y-89968917D01*
X225285910Y-90101441D01*
X225412686Y-90188064D01*
X225327000Y-90273750D01*
X225327000Y-91573000D01*
X226076250Y-91573000D01*
X226235000Y-91414250D01*
X226235000Y-90623691D01*
X226138327Y-90390302D01*
X226045466Y-90297440D01*
X226550000Y-90297440D01*
X226785317Y-90253162D01*
X226902560Y-90177718D01*
X226902560Y-91300000D01*
X226946838Y-91535317D01*
X227085910Y-91751441D01*
X227240000Y-91856726D01*
X227240000Y-92047806D01*
X226777104Y-92357103D01*
X226619207Y-92515000D01*
X226235000Y-92515000D01*
X226235000Y-91985750D01*
X226076250Y-91827000D01*
X225327000Y-91827000D01*
X225327000Y-91847000D01*
X225073000Y-91847000D01*
X225073000Y-91827000D01*
X224323750Y-91827000D01*
X224165000Y-91985750D01*
X224165000Y-92515000D01*
X220335000Y-92515000D01*
X220335000Y-90985750D01*
X221315000Y-90985750D01*
X221315000Y-91426309D01*
X221411673Y-91659698D01*
X221590301Y-91838327D01*
X221823690Y-91935000D01*
X222114250Y-91935000D01*
X222273000Y-91776250D01*
X222273000Y-90827000D01*
X222527000Y-90827000D01*
X222527000Y-91776250D01*
X222685750Y-91935000D01*
X222976310Y-91935000D01*
X223209699Y-91838327D01*
X223388327Y-91659698D01*
X223485000Y-91426309D01*
X223485000Y-90985750D01*
X223326250Y-90827000D01*
X222527000Y-90827000D01*
X222273000Y-90827000D01*
X221473750Y-90827000D01*
X221315000Y-90985750D01*
X220335000Y-90985750D01*
X220335000Y-89273457D01*
X220603212Y-89384828D01*
X220995069Y-89385170D01*
X221298004Y-89260000D01*
X221332666Y-89260000D01*
X221346838Y-89335317D01*
G36*
X221485910Y-81151441D02*
X221554006Y-81197969D01*
X221411673Y-81340302D01*
X221315000Y-81573691D01*
X221315000Y-82014250D01*
X221473750Y-82173000D01*
X222273000Y-82173000D01*
X222273000Y-82153000D01*
X222527000Y-82153000D01*
X222527000Y-82173000D01*
X223326250Y-82173000D01*
X223485000Y-82014250D01*
X223485000Y-81769146D01*
X223598110Y-81846431D01*
X223850000Y-81897440D01*
X224354534Y-81897440D01*
X224261673Y-81990302D01*
X224165000Y-82223691D01*
X224165000Y-83014250D01*
X224323750Y-83173000D01*
X225073000Y-83173000D01*
X225073000Y-81873750D01*
X224986988Y-81787738D01*
X225101441Y-81714090D01*
X225200633Y-81568917D01*
X225285910Y-81701441D01*
X225412686Y-81788064D01*
X225327000Y-81873750D01*
X225327000Y-83173000D01*
X226076250Y-83173000D01*
X226235000Y-83014250D01*
X226235000Y-82223691D01*
X226138327Y-81990302D01*
X226045466Y-81897440D01*
X226550000Y-81897440D01*
X226785317Y-81853162D01*
X226902560Y-81777718D01*
X226902560Y-82900000D01*
X226946838Y-83135317D01*
X227085910Y-83351441D01*
X227298110Y-83496431D01*
X227550000Y-83547440D01*
X227593906Y-83547440D01*
X227588642Y-83548487D01*
X226977104Y-83957103D01*
X226819207Y-84115000D01*
X226235000Y-84115000D01*
X226235000Y-83585750D01*
X226076250Y-83427000D01*
X225327000Y-83427000D01*
X225327000Y-83447000D01*
X225073000Y-83447000D01*
X225073000Y-83427000D01*
X224323750Y-83427000D01*
X224165000Y-83585750D01*
X224165000Y-84115000D01*
X220335000Y-84115000D01*
X220335000Y-82585750D01*
X221315000Y-82585750D01*
X221315000Y-83026309D01*
X221411673Y-83259698D01*
X221590301Y-83438327D01*
X221823690Y-83535000D01*
X222114250Y-83535000D01*
X222273000Y-83376250D01*
X222273000Y-82427000D01*
X222527000Y-82427000D01*
X222527000Y-83376250D01*
X222685750Y-83535000D01*
X222976310Y-83535000D01*
X223209699Y-83438327D01*
X223388327Y-83259698D01*
X223485000Y-83026309D01*
X223485000Y-82585750D01*
X223326250Y-82427000D01*
X222527000Y-82427000D01*
X222273000Y-82427000D01*
X221473750Y-82427000D01*
X221315000Y-82585750D01*
X220335000Y-82585750D01*
X220335000Y-81073457D01*
X220603212Y-81184828D01*
X220995069Y-81185170D01*
X221357229Y-81035529D01*
X221390166Y-81002650D01*
X221485910Y-81151441D01*
X221485910Y-81151441D01*
G37*
X221485910Y-81151441D02*
X221554006Y-81197969D01*
X221411673Y-81340302D01*
X221315000Y-81573691D01*
X221315000Y-82014250D01*
X221473750Y-82173000D01*
X222273000Y-82173000D01*
X222273000Y-82153000D01*
X222527000Y-82153000D01*
X222527000Y-82173000D01*
X223326250Y-82173000D01*
X223485000Y-82014250D01*
X223485000Y-81769146D01*
X223598110Y-81846431D01*
X223850000Y-81897440D01*
X224354534Y-81897440D01*
X224261673Y-81990302D01*
X224165000Y-82223691D01*
X224165000Y-83014250D01*
X224323750Y-83173000D01*
X225073000Y-83173000D01*
X225073000Y-81873750D01*
X224986988Y-81787738D01*
X225101441Y-81714090D01*
X225200633Y-81568917D01*
X225285910Y-81701441D01*
X225412686Y-81788064D01*
X225327000Y-81873750D01*
X225327000Y-83173000D01*
X226076250Y-83173000D01*
X226235000Y-83014250D01*
X226235000Y-82223691D01*
X226138327Y-81990302D01*
X226045466Y-81897440D01*
X226550000Y-81897440D01*
X226785317Y-81853162D01*
X226902560Y-81777718D01*
X226902560Y-82900000D01*
X226946838Y-83135317D01*
X227085910Y-83351441D01*
X227298110Y-83496431D01*
X227550000Y-83547440D01*
X227593906Y-83547440D01*
X227588642Y-83548487D01*
X226977104Y-83957103D01*
X226819207Y-84115000D01*
X226235000Y-84115000D01*
X226235000Y-83585750D01*
X226076250Y-83427000D01*
X225327000Y-83427000D01*
X225327000Y-83447000D01*
X225073000Y-83447000D01*
X225073000Y-83427000D01*
X224323750Y-83427000D01*
X224165000Y-83585750D01*
X224165000Y-84115000D01*
X220335000Y-84115000D01*
X220335000Y-82585750D01*
X221315000Y-82585750D01*
X221315000Y-83026309D01*
X221411673Y-83259698D01*
X221590301Y-83438327D01*
X221823690Y-83535000D01*
X222114250Y-83535000D01*
X222273000Y-83376250D01*
X222273000Y-82427000D01*
X222527000Y-82427000D01*
X222527000Y-83376250D01*
X222685750Y-83535000D01*
X222976310Y-83535000D01*
X223209699Y-83438327D01*
X223388327Y-83259698D01*
X223485000Y-83026309D01*
X223485000Y-82585750D01*
X223326250Y-82427000D01*
X222527000Y-82427000D01*
X222273000Y-82427000D01*
X221473750Y-82427000D01*
X221315000Y-82585750D01*
X220335000Y-82585750D01*
X220335000Y-81073457D01*
X220603212Y-81184828D01*
X220995069Y-81185170D01*
X221357229Y-81035529D01*
X221390166Y-81002650D01*
X221485910Y-81151441D01*
G36*
X221346838Y-72535317D02*
X221485910Y-72751441D01*
X221554006Y-72797969D01*
X221411673Y-72940302D01*
X221315000Y-73173691D01*
X221315000Y-73614250D01*
X221473750Y-73773000D01*
X222273000Y-73773000D01*
X222273000Y-73753000D01*
X222527000Y-73753000D01*
X222527000Y-73773000D01*
X223326250Y-73773000D01*
X223485000Y-73614250D01*
X223485000Y-73369146D01*
X223598110Y-73446431D01*
X223850000Y-73497440D01*
X224354534Y-73497440D01*
X224261673Y-73590302D01*
X224165000Y-73823691D01*
X224165000Y-74614250D01*
X224323750Y-74773000D01*
X225073000Y-74773000D01*
X225073000Y-73473750D01*
X224986988Y-73387738D01*
X225101441Y-73314090D01*
X225200633Y-73168917D01*
X225285910Y-73301441D01*
X225412686Y-73388064D01*
X225327000Y-73473750D01*
X225327000Y-74773000D01*
X226076250Y-74773000D01*
X226235000Y-74614250D01*
X226235000Y-73823691D01*
X226138327Y-73590302D01*
X226045466Y-73497440D01*
X226550000Y-73497440D01*
X226785317Y-73453162D01*
X226902560Y-73377718D01*
X226902560Y-74500000D01*
X226946838Y-74735317D01*
X227085910Y-74951441D01*
X227240000Y-75056726D01*
X227240000Y-75694207D01*
X227219207Y-75715000D01*
X226235000Y-75715000D01*
X226235000Y-75185750D01*
X226076250Y-75027000D01*
X225327000Y-75027000D01*
X225327000Y-75047000D01*
X225073000Y-75047000D01*
X225073000Y-75027000D01*
X224323750Y-75027000D01*
X224165000Y-75185750D01*
X224165000Y-75715000D01*
X220335000Y-75715000D01*
X220335000Y-74185750D01*
X221315000Y-74185750D01*
X221315000Y-74626309D01*
X221411673Y-74859698D01*
X221590301Y-75038327D01*
X221823690Y-75135000D01*
X222114250Y-75135000D01*
X222273000Y-74976250D01*
X222273000Y-74027000D01*
X222527000Y-74027000D01*
X222527000Y-74976250D01*
X222685750Y-75135000D01*
X222976310Y-75135000D01*
X223209699Y-75038327D01*
X223388327Y-74859698D01*
X223485000Y-74626309D01*
X223485000Y-74185750D01*
X223326250Y-74027000D01*
X222527000Y-74027000D01*
X222273000Y-74027000D01*
X221473750Y-74027000D01*
X221315000Y-74185750D01*
X220335000Y-74185750D01*
X220335000Y-72473457D01*
X220603212Y-72584828D01*
X220995069Y-72585170D01*
X221298004Y-72460000D01*
X221332666Y-72460000D01*
X221346838Y-72535317D01*
X221346838Y-72535317D01*
G37*
X221346838Y-72535317D02*
X221485910Y-72751441D01*
X221554006Y-72797969D01*
X221411673Y-72940302D01*
X221315000Y-73173691D01*
X221315000Y-73614250D01*
X221473750Y-73773000D01*
X222273000Y-73773000D01*
X222273000Y-73753000D01*
X222527000Y-73753000D01*
X222527000Y-73773000D01*
X223326250Y-73773000D01*
X223485000Y-73614250D01*
X223485000Y-73369146D01*
X223598110Y-73446431D01*
X223850000Y-73497440D01*
X224354534Y-73497440D01*
X224261673Y-73590302D01*
X224165000Y-73823691D01*
X224165000Y-74614250D01*
X224323750Y-74773000D01*
X225073000Y-74773000D01*
X225073000Y-73473750D01*
X224986988Y-73387738D01*
X225101441Y-73314090D01*
X225200633Y-73168917D01*
X225285910Y-73301441D01*
X225412686Y-73388064D01*
X225327000Y-73473750D01*
X225327000Y-74773000D01*
X226076250Y-74773000D01*
X226235000Y-74614250D01*
X226235000Y-73823691D01*
X226138327Y-73590302D01*
X226045466Y-73497440D01*
X226550000Y-73497440D01*
X226785317Y-73453162D01*
X226902560Y-73377718D01*
X226902560Y-74500000D01*
X226946838Y-74735317D01*
X227085910Y-74951441D01*
X227240000Y-75056726D01*
X227240000Y-75694207D01*
X227219207Y-75715000D01*
X226235000Y-75715000D01*
X226235000Y-75185750D01*
X226076250Y-75027000D01*
X225327000Y-75027000D01*
X225327000Y-75047000D01*
X225073000Y-75047000D01*
X225073000Y-75027000D01*
X224323750Y-75027000D01*
X224165000Y-75185750D01*
X224165000Y-75715000D01*
X220335000Y-75715000D01*
X220335000Y-74185750D01*
X221315000Y-74185750D01*
X221315000Y-74626309D01*
X221411673Y-74859698D01*
X221590301Y-75038327D01*
X221823690Y-75135000D01*
X222114250Y-75135000D01*
X222273000Y-74976250D01*
X222273000Y-74027000D01*
X222527000Y-74027000D01*
X222527000Y-74976250D01*
X222685750Y-75135000D01*
X222976310Y-75135000D01*
X223209699Y-75038327D01*
X223388327Y-74859698D01*
X223485000Y-74626309D01*
X223485000Y-74185750D01*
X223326250Y-74027000D01*
X222527000Y-74027000D01*
X222273000Y-74027000D01*
X221473750Y-74027000D01*
X221315000Y-74185750D01*
X220335000Y-74185750D01*
X220335000Y-72473457D01*
X220603212Y-72584828D01*
X220995069Y-72585170D01*
X221298004Y-72460000D01*
X221332666Y-72460000D01*
X221346838Y-72535317D01*
G36*
X221485910Y-64351441D02*
X221554006Y-64397969D01*
X221411673Y-64540302D01*
X221315000Y-64773691D01*
X221315000Y-65214250D01*
X221473750Y-65373000D01*
X222273000Y-65373000D01*
X222273000Y-65353000D01*
X222527000Y-65353000D01*
X222527000Y-65373000D01*
X223326250Y-65373000D01*
X223485000Y-65214250D01*
X223485000Y-64969146D01*
X223598110Y-65046431D01*
X223850000Y-65097440D01*
X224354534Y-65097440D01*
X224261673Y-65190302D01*
X224165000Y-65423691D01*
X224165000Y-66214250D01*
X224323750Y-66373000D01*
X225073000Y-66373000D01*
X225073000Y-65073750D01*
X224986988Y-64987738D01*
X225101441Y-64914090D01*
X225200633Y-64768917D01*
X225285910Y-64901441D01*
X225412686Y-64988064D01*
X225327000Y-65073750D01*
X225327000Y-66373000D01*
X226076250Y-66373000D01*
X226235000Y-66214250D01*
X226235000Y-65423691D01*
X226138327Y-65190302D01*
X226045466Y-65097440D01*
X226550000Y-65097440D01*
X226785317Y-65053162D01*
X226902560Y-64977718D01*
X226902560Y-66100000D01*
X226946838Y-66335317D01*
X227085910Y-66551441D01*
X227298110Y-66696431D01*
X227340770Y-66705070D01*
X227437333Y-66849588D01*
X226977104Y-67157103D01*
X226819207Y-67315000D01*
X226235000Y-67315000D01*
X226235000Y-66785750D01*
X226076250Y-66627000D01*
X225327000Y-66627000D01*
X225327000Y-66647000D01*
X225073000Y-66647000D01*
X225073000Y-66627000D01*
X224323750Y-66627000D01*
X224165000Y-66785750D01*
X224165000Y-67315000D01*
X220335000Y-67315000D01*
X220335000Y-65785750D01*
X221315000Y-65785750D01*
X221315000Y-66226309D01*
X221411673Y-66459698D01*
X221590301Y-66638327D01*
X221823690Y-66735000D01*
X222114250Y-66735000D01*
X222273000Y-66576250D01*
X222273000Y-65627000D01*
X222527000Y-65627000D01*
X222527000Y-66576250D01*
X222685750Y-66735000D01*
X222976310Y-66735000D01*
X223209699Y-66638327D01*
X223388327Y-66459698D01*
X223485000Y-66226309D01*
X223485000Y-65785750D01*
X223326250Y-65627000D01*
X222527000Y-65627000D01*
X222273000Y-65627000D01*
X221473750Y-65627000D01*
X221315000Y-65785750D01*
X220335000Y-65785750D01*
X220335000Y-64273457D01*
X220603212Y-64384828D01*
X220995069Y-64385170D01*
X221357229Y-64235529D01*
X221390166Y-64202650D01*
X221485910Y-64351441D01*
X221485910Y-64351441D01*
G37*
X221485910Y-64351441D02*
X221554006Y-64397969D01*
X221411673Y-64540302D01*
X221315000Y-64773691D01*
X221315000Y-65214250D01*
X221473750Y-65373000D01*
X222273000Y-65373000D01*
X222273000Y-65353000D01*
X222527000Y-65353000D01*
X222527000Y-65373000D01*
X223326250Y-65373000D01*
X223485000Y-65214250D01*
X223485000Y-64969146D01*
X223598110Y-65046431D01*
X223850000Y-65097440D01*
X224354534Y-65097440D01*
X224261673Y-65190302D01*
X224165000Y-65423691D01*
X224165000Y-66214250D01*
X224323750Y-66373000D01*
X225073000Y-66373000D01*
X225073000Y-65073750D01*
X224986988Y-64987738D01*
X225101441Y-64914090D01*
X225200633Y-64768917D01*
X225285910Y-64901441D01*
X225412686Y-64988064D01*
X225327000Y-65073750D01*
X225327000Y-66373000D01*
X226076250Y-66373000D01*
X226235000Y-66214250D01*
X226235000Y-65423691D01*
X226138327Y-65190302D01*
X226045466Y-65097440D01*
X226550000Y-65097440D01*
X226785317Y-65053162D01*
X226902560Y-64977718D01*
X226902560Y-66100000D01*
X226946838Y-66335317D01*
X227085910Y-66551441D01*
X227298110Y-66696431D01*
X227340770Y-66705070D01*
X227437333Y-66849588D01*
X226977104Y-67157103D01*
X226819207Y-67315000D01*
X226235000Y-67315000D01*
X226235000Y-66785750D01*
X226076250Y-66627000D01*
X225327000Y-66627000D01*
X225327000Y-66647000D01*
X225073000Y-66647000D01*
X225073000Y-66627000D01*
X224323750Y-66627000D01*
X224165000Y-66785750D01*
X224165000Y-67315000D01*
X220335000Y-67315000D01*
X220335000Y-65785750D01*
X221315000Y-65785750D01*
X221315000Y-66226309D01*
X221411673Y-66459698D01*
X221590301Y-66638327D01*
X221823690Y-66735000D01*
X222114250Y-66735000D01*
X222273000Y-66576250D01*
X222273000Y-65627000D01*
X222527000Y-65627000D01*
X222527000Y-66576250D01*
X222685750Y-66735000D01*
X222976310Y-66735000D01*
X223209699Y-66638327D01*
X223388327Y-66459698D01*
X223485000Y-66226309D01*
X223485000Y-65785750D01*
X223326250Y-65627000D01*
X222527000Y-65627000D01*
X222273000Y-65627000D01*
X221473750Y-65627000D01*
X221315000Y-65785750D01*
X220335000Y-65785750D01*
X220335000Y-64273457D01*
X220603212Y-64384828D01*
X220995069Y-64385170D01*
X221357229Y-64235529D01*
X221390166Y-64202650D01*
X221485910Y-64351441D01*
M02*
